<svg id="Layer_1" data-name="Layer 1" xmlns="http://www.w3.org/2000/svg" width="170" height="150" viewBox="0 0 170 150"><defs><style>.cls-1{fill:#f2e7e4;}</style></defs><g id="Group_94" data-name="Group 94"><ellipse id="Ellipse_5" data-name="Ellipse 5" class="cls-1" cx="92.62" cy="75.17" rx="77.21" ry="74.4"/><path id="Path_8" data-name="Path 8" d="M65,10.77C29,10.77-.23,39.54-.23,75S29,139.29,65,139.29,130.23,110.52,130.23,75,101,10.8,65,10.77ZM25.57,120.05a49.42,49.42,0,0,1,38.18-18.9c.23,0,.45.07.68.07h.23c.21,0,.4-.06.62-.07a49.35,49.35,0,0,1,38.5,19.44,60.89,60.89,0,0,1-78.21-.54Zm38.89-23.7c-.24,0-.47,0-.71.05a21.62,21.62,0,1,1,1.53,0c-.27,0-.54,0-.82,0Zm42.89,21.05a54,54,0,0,0-30-19.5A25.92,25.92,0,0,0,87.77,62.43a26.73,26.73,0,0,0-36-10.32A25.92,25.92,0,0,0,41.29,87.58a26.32,26.32,0,0,0,10.44,10.3,54.14,54.14,0,0,0-29.71,19,58.92,58.92,0,0,1,.41-84.21,61.09,61.09,0,0,1,85.49.4,58.93,58.93,0,0,1-.42,84.22l-.15.15Z"/></g></svg>