<svg id="Layer_1" data-name="Layer 1" xmlns="http://www.w3.org/2000/svg" width="170" height="150" viewBox="0 0 170 150"><defs><style>.cls-1,.cls-2{fill:none;stroke:#ee6c4a;stroke-width:3px;}.cls-1{stroke-linecap:round;stroke-linejoin:round;}.cls-2{stroke-miterlimit:10;}</style></defs><g id="_Group_" data-name=" Group "><rect id="_Path_" data-name=" Path " class="cls-1" x="18.89" y="7.08" width="136" height="136" rx="12.85"/><path class="cls-2" d="M37,36.86A8.91,8.91,0,0,1,40.3,30a12.28,12.28,0,0,1,8.42-2.93,13.23,13.23,0,0,1,8.57,2.79,8.8,8.8,0,0,1,0,14,13.23,13.23,0,0,1-8.57,2.79,12.28,12.28,0,0,1-8.42-2.92A8.91,8.91,0,0,1,37,36.86Zm2.63,22.19H58.14v65.33H39.61Z"/><path class="cls-2" d="M74.51,59.05H92.12V69.53h.31A22.09,22.09,0,0,1,101,60.89a27,27,0,0,1,14.44-3.75,31.1,31.1,0,0,1,12.44,2.25,24.24,24.24,0,0,1,8.49,5.92,22.94,22.94,0,0,1,4.87,8.44,31.57,31.57,0,0,1,1.54,9.8v40.83H124.25V88.18a40.83,40.83,0,0,0-.47-6,14.83,14.83,0,0,0-2-5.65,12.43,12.43,0,0,0-4.25-4.15,13.78,13.78,0,0,0-7.18-1.64,17.71,17.71,0,0,0-7.73,1.57,15.88,15.88,0,0,0-5.32,4A17,17,0,0,0,94.13,82a20.14,20.14,0,0,0-1.08,6.47v35.93H74.51Z"/></g></svg>