<svg id="Layer_1" data-name="Layer 1" xmlns="http://www.w3.org/2000/svg" width="270" height="150" viewBox="0 0 270 150"><defs><style>.cls-1{fill:#f2e7e4;}.cls-2,.cls-3{fill:none;stroke:#000;}.cls-2{stroke-width:2px;}.cls-3{stroke-width:3px;}</style></defs><g id="Group_92" data-name="Group 92"><ellipse id="Ellipse_2" data-name="Ellipse 2" class="cls-1" cx="193.35" cy="75.2" rx="76.05" ry="74.38"/><g id="Group_2" data-name="Group 2"><path id="Path_10" data-name="Path 10" d="M176.59,63.36l-7.1,7.1a48.82,48.82,0,0,0-15.05,7.63c-12.1,9.07-17.27,39-17.49,40.3l-.36,2.17h2.2c30.84,0,46.47-29.2,48.1-32.43l7.36-7.36L256.8,4.94,252.55.69Zm1.32,3.94,12.27,12.28-4.82,4.82L173.09,72.13Zm-36.86,49.48c1.43-7.07,6.48-28.86,15.62-35.71a46.11,46.11,0,0,1,13.25-6.85l13.16,13.16c-2.92,5.38-16.73,28.11-42,29.4Zm51.63-40-12-12L249.27,8.22l-56.58,68.6Z"/><path id="Path_11" data-name="Path 11" class="cls-2" d="M171.35,106.05s-13.1,2.85-17.81,0,1.06-9,0-12.93-6.1-3.13-6.1-3.13"/><path id="Path_12" data-name="Path 12" class="cls-3" d="M2.22,98.62S7.13,124.39,26,128.5s32.82-27.8,50.18-25.6,33.3,27.48,45.36,25.6a33.6,33.6,0,0,0,18.77-9.43"/></g></g></svg>