<svg id="Layer_1" data-name="Layer 1" xmlns="http://www.w3.org/2000/svg" width="220" height="150" viewBox="0 0 220 150"><defs><style>.cls-1{fill:#f2e7e4;}.cls-2,.cls-3{fill:none;}.cls-3{stroke:#000;stroke-width:2.5px;}</style></defs><g id="Group_95" data-name="Group 95"><rect id="Rectangle_27" data-name="Rectangle 27" class="cls-1" x="21.47" y="0.66" width="198.43" height="137.32"/><g id="Group_7" data-name="Group 7"><g id="Rectangle_12" data-name="Rectangle 12"><path class="cls-2" d="M13.24,12.64h171a2,2,0,0,1,2,2V115.82a2,2,0,0,1-2,2h-171a2,2,0,0,1-2-2V14.64A2,2,0,0,1,13.24,12.64Z"/><rect class="cls-3" x="12.49" y="13.89" width="172.51" height="102.68" rx="0.75"/></g><line id="Line_3" data-name="Line 3" class="cls-3" x1="11.7" y1="101.95" x2="186.7" y2="102.86"/><g id="Ellipse_1" data-name="Ellipse 1"><ellipse class="cls-2" cx="99.2" cy="110.12" rx="4.06" ry="4.08"/><ellipse class="cls-3" cx="99.2" cy="110.12" rx="2.81" ry="2.83"/></g><path id="Path_13" data-name="Path 13" class="cls-3" d="M80.67,116.37s8,8.66,8.07,16.54-19.45,16.81-19.45,16.81h59.82s-15.81-8.61-17.88-16.81,6.18-16.54,6.18-16.54"/></g><path id="Path_68" data-name="Path 68" d="M85.51,42.1,71.36,56.32,85.51,70.55a1.35,1.35,0,0,1,0,1.89l0,0a1.32,1.32,0,0,1-1.88,0l0,0L68.47,57.29a1.34,1.34,0,0,1,0-1.89l0,0L83.59,40.16a1.36,1.36,0,0,1,1.92,0,1.38,1.38,0,0,1,0,1.94Zm44,13.25L114.36,40.16a1.36,1.36,0,0,0-1.92,0,1.37,1.37,0,0,0,0,1.94l14.16,14.22L112.43,70.55a1.34,1.34,0,0,0,0,1.89l0,0a1.32,1.32,0,0,0,1.88,0l0,0,15.11-15.19a1.35,1.35,0,0,0,.05-1.89ZM106.94,31.53a1.37,1.37,0,0,0-1.72.89h0L90.11,79.38a1.36,1.36,0,0,0,.83,1.71l.07,0a1,1,0,0,0,.41.07,1.4,1.4,0,0,0,1.31-1l15.1-46.95a1.36,1.36,0,0,0-.88-1.72h0Z"/></g></svg>