<svg id="Layer_1" data-name="Layer 1" xmlns="http://www.w3.org/2000/svg" width="170" height="150" viewBox="0 0 170 150"><defs><style>.cls-1{fill:#f2e7e4;}</style></defs><g id="Group_93" data-name="Group 93"><ellipse id="Ellipse_4" data-name="Ellipse 4" class="cls-1" cx="94.11" cy="75.08" rx="76.04" ry="74.5"/><path id="Path_9" data-name="Path 9" d="M131.85,138.49a2.06,2.06,0,0,1-2.06,2.06H1.81a2,2,0,0,1-1.46-.61h0s0,0,0-.05a2.09,2.09,0,0,1-.45-.81,2.74,2.74,0,0,1,0-.28,1.59,1.59,0,0,1-.06-.3A1.79,1.79,0,0,1-.16,138a1.09,1.09,0,0,1,0-.18l13-40a2,2,0,0,1,.5-.82L83.77,26.47a1.79,1.79,0,0,1,.22-.34L99.37,10.72a6.42,6.42,0,0,1,9.07,0L130,32.29a6.43,6.43,0,0,1,0,9.08l-15,15.07a1.46,1.46,0,0,1-.22.33l-70.3,70.9a2.1,2.1,0,0,1-.88.53l-27.61,8.24H129.79a2,2,0,0,1,2.06,2.05ZM105.68,50.65,41.14,114.46l2.38,8.25,66.82-67.38ZM38,111.8l64.78-64.06-10-10L28.54,102.18v9.62ZM26,98.92,89.84,34.79,85.57,30.5,18.88,97.3Zm11.3,17H26.49a2.06,2.06,0,0,1-2.06-2.06V102.79l-8.25-1.88L5,135.4,39.89,125Zm90.46-79.09a2.3,2.3,0,0,0-.67-1.62L105.53,13.64a2.28,2.28,0,0,0-3.24,0L88.41,27.54l24.78,24.82,13.87-13.9a2.23,2.23,0,0,0,.67-1.63Z"/></g></svg>