<svg id="Layer_1" data-name="Layer 1" xmlns="http://www.w3.org/2000/svg" xmlns:xlink="http://www.w3.org/1999/xlink" width="516" height="838" viewBox="0 0 516 838"><defs><style>.cls-1{opacity:0.3;filter:url(#AI_GaussianBlur_7);}.cls-2{fill:url(#linear-gradient);}.cls-3{fill:url(#linear-gradient-2);}.cls-4{fill:url(#linear-gradient-3);}.cls-5{fill:none;stroke:#000;stroke-miterlimit:10;stroke-width:7px;}.cls-6{fill:url(#linear-gradient-4);}.cls-7{fill:#ee6c4a;}</style><filter id="AI_GaussianBlur_7" name="AI_GaussianBlur_7"><feGaussianBlur stdDeviation="7"/></filter><linearGradient id="linear-gradient" x1="152.55" y1="413.16" x2="394.55" y2="413.16" gradientUnits="userSpaceOnUse"><stop offset="0.01" stop-color="#fff"/><stop offset="0.13" stop-color="#f8f8f8"/><stop offset="0.32" stop-color="#e5e5e5"/><stop offset="0.54" stop-color="#c6c6c6"/><stop offset="0.78" stop-color="#9b9b9b"/><stop offset="1" stop-color="#6d6d6d"/></linearGradient><linearGradient id="linear-gradient-2" x1="3820.53" y1="272.16" x2="4062.53" y2="272.16" gradientTransform="matrix(-1, 0, 0, 1, 4179.08, 0)" gradientUnits="userSpaceOnUse"><stop offset="0.01"/><stop offset="0.16" stop-color="#070707"/><stop offset="0.39" stop-color="#1a1a1a"/><stop offset="0.65" stop-color="#393939"/><stop offset="0.94" stop-color="#646464"/><stop offset="1" stop-color="#6d6d6d"/></linearGradient><linearGradient id="linear-gradient-3" x1="116.55" y1="420.16" x2="358.55" y2="420.16" xlink:href="#linear-gradient"/><linearGradient id="linear-gradient-4" x1="358.55" y1="272.16" x2="394.55" y2="272.16" gradientTransform="matrix(1, 0, 0, 1, 0, 0)" xlink:href="#linear-gradient-2"/></defs><image class="cls-1" width="338" height="348" transform="translate(89.79 250.18)" xlink:href="bag1.png"/><path class="cls-2" d="M394.55,552.16l-35.49,9H152.55v-296h242Z"/><path class="cls-3" d="M139.55,279.16h219v-14h-219l-23,14Z"/><rect class="cls-4" x="116.55" y="279.16" width="242" height="282"/><path class="cls-5" d="M208.57,320.24c0-3.32,0-8,0-13.71.39-61.5.88-92.44,15.63-101.65,10.53-6.57,26-4.9,34.88,1.14,9.85,6.71,12.11,18.59,13.83,36a473,473,0,0,1,1,79.66"/><path class="cls-6" d="M358.55,279.16v-14h36Z"/><path class="cls-5" d="M229.28,267.69c0-1.75,0-4.24,0-7.22.28-25,.87-45.17,14.05-53.59a27.9,27.9,0,0,1,22.87-2.72c11.34,3.81,18.86,16.22,17.84,31v31"/><g id="Group_1" data-name="Group 1"><path id="Path_1" data-name="Path 1" class="cls-7" d="M212.21,379.33c-.22,7.5-.29,11.25-.39,18.76h-4.36c.07-7.51.13-11.26.3-18.76Z"/><path id="Path_2" data-name="Path 2" class="cls-7" d="M226.37,405.83l-14.67,0c0,1.06,0,1.59,0,2.65a6.57,6.57,0,0,0,.83,4.9,7.08,7.08,0,0,0,4.07,2.72,12.33,12.33,0,0,0,9-1c0,2,0,3,0,5-1.16.43-5.69,2-10.09.54a11.44,11.44,0,0,1-3.85-2,11.31,11.31,0,0,1-2.47-2.78,7.71,7.71,0,0,1-.9,1.79,10,10,0,0,1-5.75,3.66,17.37,17.37,0,0,1-10.17-.21v-4a12.11,12.11,0,0,0,9,0,7.52,7.52,0,0,0,3.74-3c.79-1.39.85-2.89,1-5.59.05-1.1,0-2,0-2.65l-14.45,0c0-1.92,0-2.89,0-4.81l34.67.07C226.41,402.93,226.39,403.9,226.37,405.83Z"/><path id="Path_3" data-name="Path 3" class="cls-7" d="M192.07,428.32l34.45.18c0,1.73,0,2.6.09,4.32l-34.56-.18C192.06,430.91,192.06,430.05,192.07,428.32Z"/><path id="Path_4" data-name="Path 4" class="cls-7" d="M254.75,421.19c5.44,0,8.3,2.07,8.45,5.67.12,2.95-1.59,4.86-5.18,6-7.35,2.4-11,3.6-18.42,6-1,.35-1.68,1-1.64,1.91s1,1.68,2.66,1.68h22.81c.15,1.8.23,2.7.41,4.5H240.49c-5.57,0-8.52-2.06-8.69-5.65-.13-2.94,1.63-4.86,5.3-6l18.31-6c1.1-.35,1.73-1,1.7-1.92s-.92-1.68-2.64-1.68h-22c0-1.8-.05-2.71-.08-4.51Z"/><path id="Path_5" data-name="Path 5" class="cls-7" d="M250.26,392.71c-.48,9.86-.58,14.81-.48,24.69H245c-.09-9.88,0-14.82.44-24.69Z"/><path id="Path_6" data-name="Path 6" class="cls-7" d="M257.83,417.58h-4.94c3.5-8.83,5.35-13.26,9.42-22.08,1.07-2.32,2.89-3.2,5.61-3.2s4.37.88,5.15,3.19c3,8.83,4.56,13.25,8.17,22.09h-5c-3.24-8-4.7-12-7.43-20a1.14,1.14,0,0,0-1.21-.84,1.37,1.37,0,0,0-1.34.84C262.64,405.58,261,409.59,257.83,417.58Z"/><path id="Path_7" data-name="Path 7" class="cls-7" d="M239.2,392.56c-.39,9.87-.47,14.81-.39,24.69H234.3c-.07-9.88,0-14.82.36-24.69Z"/></g></svg>