<svg id="Layer_1" data-name="Layer 1" xmlns="http://www.w3.org/2000/svg" xmlns:xlink="http://www.w3.org/1999/xlink" width="516" height="838" viewBox="0 0 516 838"><defs><style>.cls-1{opacity:0.39;filter:url(#AI_GaussianBlur_7);}.cls-2{fill:url(#linear-gradient);}.cls-3{fill:url(#linear-gradient-2);}.cls-4{fill:url(#linear-gradient-3);}.cls-5{fill:url(#linear-gradient-4);}.cls-6{fill:#7a7a7a;}.cls-7{fill:url(#linear-gradient-5);}.cls-8{fill:url(#linear-gradient-6);}.cls-9{fill:url(#linear-gradient-7);}.cls-10{fill:url(#linear-gradient-8);}.cls-11{fill:url(#linear-gradient-9);}.cls-12{fill:url(#linear-gradient-10);}.cls-13{fill:url(#linear-gradient-11);}.cls-14{fill:url(#linear-gradient-12);}.cls-15{fill:none;stroke:#7a7a7a;stroke-miterlimit:10;stroke-width:1.5px;}.cls-16{fill:url(#radial-gradient);}.cls-17{fill:url(#radial-gradient-2);}.cls-18{fill:url(#radial-gradient-3);}.cls-19{fill:url(#radial-gradient-4);}</style><filter id="AI_GaussianBlur_7" name="AI_GaussianBlur_7"><feGaussianBlur stdDeviation="7"/></filter><linearGradient id="linear-gradient" x1="73.34" y1="420.8" x2="440.12" y2="420.8" gradientUnits="userSpaceOnUse"><stop offset="0.01" stop-color="#fff"/><stop offset="0.13" stop-color="#f8f8f8"/><stop offset="0.32" stop-color="#e5e5e5"/><stop offset="0.54" stop-color="#c6c6c6"/><stop offset="0.78" stop-color="#9b9b9b"/><stop offset="1" stop-color="#6d6d6d"/></linearGradient><linearGradient id="linear-gradient-2" x1="256.58" y1="523.48" x2="262.07" y2="215.4" gradientUnits="userSpaceOnUse"><stop offset="0"/><stop offset="0.39" stop-color="#250e05"/><stop offset="0.8" stop-color="#ff6210"/></linearGradient><linearGradient id="linear-gradient-3" x1="-476.08" y1="174.8" x2="-421.38" y2="174.8" gradientTransform="translate(592.24 125.54)" gradientUnits="userSpaceOnUse"><stop offset="0"/><stop offset="1" stop-color="#575757"/></linearGradient><linearGradient id="linear-gradient-4" x1="1665.01" y1="413.79" x2="1719.72" y2="413.79" gradientTransform="matrix(1, 0, 0, -1, -1322.25, 714.58)" xlink:href="#linear-gradient-3"/><linearGradient id="linear-gradient-5" x1="360.52" y1="367.24" x2="337.64" y2="364.22" gradientUnits="userSpaceOnUse"><stop offset="0.03" stop-color="#7a7a7a"/><stop offset="1" stop-color="#fff"/></linearGradient><linearGradient id="linear-gradient-6" x1="386.16" y1="396.3" x2="363.28" y2="393.28" xlink:href="#linear-gradient-5"/><linearGradient id="linear-gradient-7" x1="386.16" y1="340.74" x2="363.28" y2="337.72" xlink:href="#linear-gradient-5"/><linearGradient id="linear-gradient-8" x1="412.66" y1="368.09" x2="389.78" y2="365.07" xlink:href="#linear-gradient-5"/><linearGradient id="linear-gradient-9" x1="152.44" y1="347.29" x2="129.82" y2="344.31" xlink:href="#linear-gradient-5"/><linearGradient id="linear-gradient-10" x1="174.18" y1="364.99" x2="147.12" y2="361.42" xlink:href="#linear-gradient-5"/><linearGradient id="linear-gradient-11" x1="7469.85" y1="-7030.21" x2="7447.23" y2="-7033.2" gradientTransform="matrix(0.01, 1, 1, -0.01, 7099.34, -7149.7)" xlink:href="#linear-gradient-5"/><linearGradient id="linear-gradient-12" x1="7491.59" y1="-7012.51" x2="7464.53" y2="-7016.08" gradientTransform="matrix(0.01, 1, 1, -0.01, 7099.34, -7149.7)" xlink:href="#linear-gradient-5"/><radialGradient id="radial-gradient" cx="315.31" cy="420.86" r="33.34" gradientUnits="userSpaceOnUse"><stop offset="0.46"/><stop offset="0.7" stop-color="#343434"/><stop offset="1"/></radialGradient><radialGradient id="radial-gradient-2" cx="381.61" cy="36.51" r="19.66" gradientTransform="translate(-90.75 380.68) scale(1.07 1.07)" xlink:href="#radial-gradient"/><radialGradient id="radial-gradient-3" cx="197.36" cy="420.86" r="33.34" xlink:href="#radial-gradient"/><radialGradient id="radial-gradient-4" cx="270.87" cy="36.51" r="19.66" gradientTransform="translate(-90.75 380.68) scale(1.07 1.07)" xlink:href="#radial-gradient"/></defs><g class="cls-1"><path d="M110.74,314.39c-4.25,3.24-12.82,11-25.92,69.22C79,409.67,73.48,440.18,72.73,478.24c-.59,29.83,2.2,40.93,9.5,49.94,10.28,12.69,30.39,22.32,40.6,15.77,2.55-1.63,3.71-3.78,6-8.76A406.49,406.49,0,0,0,145.29,494c6.2-17.82,9.4-26.8,14.69-30.67,9.16-6.7,21.85-6.95,25.05-7a55,55,0,0,1,14.69,1.75c13.71,3.34,19.2.76,59.61.88,44,.13,47.33,3.23,58.74-.88a37.53,37.53,0,0,1,17.28-2.63,36.9,36.9,0,0,1,19.87,8.77c3.62,3.25,7,7.75,13,28.91,6.45,22.76,6.8,32.39,15.57,44.15,3.78,5.06,6.62,7.16,9.48,8.42,11.3,5,24-2.69,26.78-4.38a47.87,47.87,0,0,0,13-12.26c17.27-25.12,7.77-94.63,7.77-94.63-14.16-103.74-25.08-115.4-35.41-120-8.15-3.67-23.22-6.25-32.83-7.89a266.36,266.36,0,0,0-33.69-3.5c-38.57-1.92-57.86-2.88-82.07-2.63-8.17.08-33.49,1.52-83.8,4.38C137.23,306.78,119.2,307.93,110.74,314.39Z"/></g><path class="cls-2" d="M111,314c-4.21,3.17-12.69,10.71-25.65,67.53-5.79,25.43-11.22,55.19-12,92.32-.58,29.1,2.17,39.93,9.4,48.72C93,535,112.89,544.35,123,538c2.52-1.59,3.67-3.69,6-8.55a398.63,398.63,0,0,0,16.24-40.17c6.12-17.38,9.29-26.14,14.53-29.92,9.06-6.53,21.62-6.77,24.79-6.83a54.5,54.5,0,0,1,14.53,1.71c13.56,3.25,19,.73,59,.85,43.55.13,46.83,3.16,58.12-.85a37.5,37.5,0,0,1,17.09-2.57,36.67,36.67,0,0,1,19.66,8.55c3.59,3.17,6.89,7.56,12.83,28.21,6.38,22.2,6.72,31.59,15.41,43.06,3.73,4.94,6.54,7,9.37,8.22,11.18,4.87,23.74-2.63,26.5-4.27a47.11,47.11,0,0,0,12.82-12c17.09-24.5,7.7-92.31,7.7-92.31-14-101.2-24.83-112.58-35.05-117.11-8.06-3.57-23-6.09-32.48-7.69a268.91,268.91,0,0,0-33.34-3.42c-38.16-1.87-57.24-2.81-81.2-2.56-8.08.08-33.14,1.48-82.91,4.27C137.23,306.59,119.39,307.71,111,314Z"/><path class="cls-3" d="M183.68,304.61c.77.18-1.39,7.14-.85,16.24.52,8.88,3.07,10.4,7.69,24.79,5.6,17.45,4.34,22.95,10.26,27.35,3.59,2.68,7.3,3.7,14.53,3.42,13.95-.53,27.92.07,41.88,0,34.56-.17,37.61,0,37.61,0,14.11,0,16.32-2.15,17.95-3.42,7.41-5.76,4.41-14.13,12.82-36.75,1.21-3.24,1.94-5.86,3.42-11.11,2.58-9.19,3-12.7,1.71-16.24-1.08-3-2.92-4.84-2.56-5.13s3.55,1.83,5.12,5.13a13.13,13.13,0,0,1,.86,7.69,92.51,92.51,0,0,1-4.27,17.09,120.67,120.67,0,0,0-4.28,17.95c-.85,5.64-1.73,11.44-.85,17.1,1.73,11.16,9.77,18.4,13.67,22.22,12.2,11.93,18.85,24.49,30.77,47,5,9.52,12.2,28.29,26.5,65.82.7,1.84,2.16,5.47,4.28,10.26,4.64,10.53,9,18.74,12,23.93a22.83,22.83,0,0,1-12,3.42,22.48,22.48,0,0,1-8.55-1.71c-1.54-3.55-4-9.22-6.84-16.24-4.67-11.44-8.38-21.24-14.53-35.9-5.16-12.3-6.9-15.42-9.4-18.8-3.25-4.4-7.56-10.55-14.53-13.68-9.25-4.15-18.81-1.17-23.08,0-17.35,4.77-13.92-1.91-73.51,0-31.67,1-48.61,3.41-60.69-.85a26.62,26.62,0,0,0-11.11-1.71c-9.26.63-16.43,6.45-17.95,7.69-4.78,3.87-6.66,7.67-12.82,21.37-11,24.42-18,41-18,41-3,7.19-5.45,12.95-6.84,16.24a31,31,0,0,1-7.69.85,31.33,31.33,0,0,1-13.68-3.42,91.8,91.8,0,0,0,11.11-15.38c6-10.47,7.07-17.77,11.11-30.77,5-16.27,9.82-31.62,18-49.58,4.28-9.45,6.95-15.35,12-23.08,4-6.22,9.3-12.78,19.66-25.64,10.94-13.59,11.09-13.23,12-15.39,4.91-12.06,1.36-25.74-1.71-37.61-2.11-8.12-4.39-13.11-3.42-21.37C180.22,310.49,183,304.45,183.68,304.61Z"/><path class="cls-4" d="M123.67,292.65h38.55a8.64,8.64,0,0,1,8.64,8.64V308a0,0,0,0,1,0,0h-54.7a0,0,0,0,1,0,0v-7.87A7.51,7.51,0,0,1,123.67,292.65Z" transform="translate(-27.85 14.97) rotate(-5.44)"/><path class="cls-5" d="M342.76,293.09h54.7a0,0,0,0,1,0,0v6.75a8.64,8.64,0,0,1-8.64,8.64H350.27a7.51,7.51,0,0,1-7.51-7.51v-7.87a0,0,0,0,1,0,0Z" transform="translate(697.68 647.43) rotate(-172.48)"/><path class="cls-6" d="M141,360.12c-4.06-.44-6.42-4.93-8.07-8.07-1.44-2.73-5-9.47-1.8-14.35,2.22-3.4,6.52-4.09,9-4.49s7.41-1.19,10.76,1.8c4.42,3.93,2.9,11.82.9,16.14C150.25,354.42,146.11,360.67,141,360.12Z"/><path class="cls-6" d="M147.29,365.5c0-5.6,7.14-9,9-9.87,2.08-1,10.54-5,16.14,0,4.58,4.09,5,12.17.9,17-5.2,6.19-14.4,3.3-16.14,2.69C156.49,375.13,147.33,371.8,147.29,365.5Z"/><path class="cls-6" d="M137.6,362.73c-.47-4.06-5-6.38-8.13-8-2.74-1.42-9.51-4.91-14.36-1.69-3.38,2.24-4,6.55-4.42,9s-1.14,7.41,1.88,10.74c4,4.39,11.85,2.81,16.15.78C132,372,138.19,367.83,137.6,362.73Z"/><path class="cls-6" d="M143,369c-5.6,0-8.95,7.22-9.79,9.05-1,2.08-4.92,10.57.12,16.14,4.11,4.55,12.21,4.89,17,.77,6.15-5.25,3.19-14.44,2.57-16.17C152.73,378.09,149.34,369,143,369Z"/><circle class="cls-6" cx="348.99" cy="366.55" r="12.31"/><circle class="cls-6" cx="374.69" cy="395.73" r="12.31"/><circle class="cls-6" cx="374.69" cy="340" r="12.31"/><circle class="cls-6" cx="401.25" cy="367.41" r="12.31"/><circle class="cls-7" cx="349.08" cy="365.73" r="11.54"/><circle class="cls-8" cx="374.72" cy="394.79" r="11.54"/><circle class="cls-9" cx="374.72" cy="339.23" r="11.54"/><circle class="cls-10" cx="401.22" cy="366.58" r="11.54"/><path class="cls-11" d="M140.83,359c-3.87-.42-6.11-4.7-7.69-7.7-1.37-2.6-4.75-9-1.71-13.67,2.11-3.24,6.21-3.9,8.55-4.28s7.06-1.14,10.25,1.71c4.22,3.76,2.77,11.28.86,15.39C149.64,353.6,145.7,359.55,140.83,359Z"/><path class="cls-12" d="M146.82,364.16c0-5.34,6.81-8.58,8.54-9.41,2-.93,10-4.76,15.39,0,4.36,3.9,4.75,11.6.85,16.24-4.95,5.9-13.73,3.15-15.38,2.57C155.58,373.34,146.85,370.17,146.82,364.16Z"/><path class="cls-13" d="M137.59,361.52c-.45-3.87-4.74-6.08-7.75-7.64-2.62-1.34-9.07-4.67-13.69-1.6-3.22,2.13-3.85,6.23-4.21,8.58s-1.09,7.06,1.79,10.24c3.78,4.18,11.29,2.68,15.39.74C132.23,370.37,138.15,366.38,137.59,361.52Z"/><path class="cls-14" d="M142.76,367.46c-5.33,0-8.53,6.88-9.34,8.62-.92,2-4.68,10.08.12,15.39,3.92,4.33,11.64,4.66,16.25.73,5.86-5,3-13.76,2.44-15.41C152,376.16,148.77,367.45,142.76,367.46Z"/><circle class="cls-15" cx="402.07" cy="365.73" r="5.56"/><line class="cls-15" x1="369.16" y1="390.09" x2="381.13" y2="399.49"/><line class="cls-15" x1="380.05" y1="389.9" x2="369.16" y2="400.54"/><rect class="cls-15" x="342.24" y="358.89" width="13.68" height="12.82"/><polygon class="cls-15" points="368.31 344.79 374.72 331.57 382.04 344.79 368.31 344.79"/><circle class="cls-16" cx="315.31" cy="420.86" r="33.34"/><circle class="cls-17" cx="315.74" cy="419.58" r="20.94"/><circle class="cls-18" cx="197.36" cy="420.86" r="33.34"/><circle class="cls-19" cx="197.78" cy="419.58" r="20.94"/></svg>