<svg id="Layer_1" data-name="Layer 1" xmlns="http://www.w3.org/2000/svg" xmlns:xlink="http://www.w3.org/1999/xlink" width="516" height="838" viewBox="0 0 516 838"><defs><style>.cls-1{fill:url(#linear-gradient);}.cls-2{fill:#333;}.cls-3{fill:#dcdcdc;}.cls-4{opacity:0.4;}.cls-5,.cls-7{fill:#fffef9;}.cls-6{fill:#686868;}.cls-7{opacity:0.4;}</style><linearGradient id="linear-gradient" x1="-1048.68" y1="138.12" x2="-1048.68" y2="137.43" gradientTransform="matrix(190.88, 0, 0, -130.34, 200419.24, 18251.46)" gradientUnits="userSpaceOnUse"><stop offset="0" stop-color="#fff"/><stop offset="0.49" stop-color="#51514f"/><stop offset="0.61" stop-color="#fff"/><stop offset="0.69" stop-color="#626261"/><stop offset="0.77" stop-color="#474746"/><stop offset="0.92" stop-color="#141414"/><stop offset="1"/></linearGradient></defs><g id="Group_70" data-name="Group 70"><path id="Path_66" data-name="Path 66" class="cls-1" d="M186.4,337.37c40.2-33.68,45.76-53,42.42-64.59-1.51-5.21-4.67-8.39-3.17-12.66,5.57-15.88,63.84-13.72,66.47-2.53,1.18,5-9.57,7.52-13.29,17.09-6.71,17.26,15.2,42.39,39.25,63.94Z"/><rect id="Rectangle_28" data-name="Rectangle 28" class="cls-2" x="100.19" y="129.56" width="315.63" height="159.76" rx="6.12"/><rect id="Rectangle_29" data-name="Rectangle 29" class="cls-3" x="105.76" y="133.23" width="304.48" height="152.41" rx="6.12"/><g id="Group_62" data-name="Group 62" class="cls-4"><path id="Path_67" data-name="Path 67" class="cls-5" d="M148,285.64H256.17L356.48,133.23H262.8Q205.4,209.43,148,285.64Z"/></g></g><path id="Rectangle_28-2" data-name="Rectangle 28" class="cls-2" d="M172.36,721.81V437.54a5.94,5.94,0,0,1,6.12-5.74H326a5.94,5.94,0,0,1,6.12,5.74V721.81a5.94,5.94,0,0,1-6.12,5.74H178.48A5.94,5.94,0,0,1,172.36,721.81Z"/><path id="Rectangle_28-3" data-name="Rectangle 28" class="cls-6" d="M175.39,716.24V439.82a5.74,5.74,0,0,1,5.89-5.57H323.2a5.73,5.73,0,0,1,5.89,5.57V716.24a5.74,5.74,0,0,1-5.89,5.58H181.28A5.74,5.74,0,0,1,175.39,716.24Z"/><rect class="cls-2" x="229.8" y="440.62" width="39.39" height="6.33" rx="3.17"/><circle class="cls-2" cx="277.43" cy="443.58" r="2.96"/><path class="cls-3" d="M217.81,482.62h-.08L213.32,485l-.66-2.61,5.54-3h2.92v25.36h-3.31Z"/><path class="cls-3" d="M237.81,482.62h-.08l-4.4,2.38-.67-2.61,5.54-3h2.93v25.36h-3.32Z"/><path class="cls-3" d="M250.64,489a2.32,2.32,0,1,1,4.64,0,2.32,2.32,0,1,1-4.64,0Zm0,13.77a2.32,2.32,0,1,1,4.64,0,2.32,2.32,0,1,1-4.64,0Z"/><path class="cls-3" d="M265.89,482.62h-.08L261.4,485l-.66-2.61,5.54-3h2.92v25.36h-3.31Z"/><path class="cls-3" d="M285.89,482.62h-.07L281.41,485l-.66-2.61,5.53-3h2.93v25.36h-3.32Z"/><rect class="cls-3" x="222.02" y="709.19" width="60" height="2.28" rx="1.14"/><path class="cls-3" d="M228.22,701.76a1.87,1.87,0,0,0,1,.27c.55,0,.87-.29.87-.71s-.22-.61-.78-.82-1.1-.59-1.1-1.18a1.2,1.2,0,0,1,1.34-1.13,1.83,1.83,0,0,1,.92.21l-.15.43a1.69,1.69,0,0,0-.79-.19c-.56,0-.78.34-.78.62s.25.58.83.8,1.06.61,1.06,1.22-.48,1.19-1.46,1.19a2.15,2.15,0,0,1-1.06-.26Z"/><path class="cls-3" d="M231.84,700.8h0c.07-.11.18-.24.26-.34l.88-1h.65l-1.15,1.23,1.31,1.75h-.66l-1-1.43-.28.31v1.12h-.53V698h.53Z"/><path class="cls-3" d="M236.71,701.6q0,.46,0,.81h-.48l0-.48h0a1.16,1.16,0,0,1-1,.55c-.47,0-1-.26-1-1.31v-1.74h.54v1.65c0,.57.18.95.67.95a.78.78,0,0,0,.71-.49.82.82,0,0,0,0-.28v-1.83h.54Z"/><path class="cls-3" d="M237.59,702.41c0-.2,0-.5,0-.77V698h.54v1.87h0a1.12,1.12,0,0,1,1-.55,1.33,1.33,0,0,1,1.25,1.52,1.42,1.42,0,0,1-1.33,1.6,1.07,1.07,0,0,1-1-.56h0l0,.49Zm.56-1.19a1.23,1.23,0,0,0,0,.19.84.84,0,0,0,.82.64c.56,0,.9-.46.9-1.15s-.31-1.11-.89-1.11a.86.86,0,0,0-.82.67,1.17,1.17,0,0,0,0,.22Z"/><path class="cls-3" d="M242.48,702.41v-2.57h-.42v-.41h.42v-.14a1.41,1.41,0,0,1,.34-1,1,1,0,0,1,.73-.28,1.33,1.33,0,0,1,.46.09l-.07.42a.8.8,0,0,0-.35-.07c-.46,0-.58.41-.58.86v.16h.72v.41H243v2.57Z"/><path class="cls-3" d="M246.83,700.9a1.45,1.45,0,0,1-1.48,1.58,1.41,1.41,0,0,1-1.43-1.53,1.46,1.46,0,0,1,1.48-1.59A1.41,1.41,0,0,1,246.83,700.9Zm-2.36,0c0,.65.38,1.14.91,1.14s.9-.48.9-1.15c0-.51-.25-1.15-.89-1.15S244.47,700.36,244.47,700.93Z"/><path class="cls-3" d="M247.52,700.36c0-.35,0-.65,0-.93H248l0,.59h0a.91.91,0,0,1,.83-.66l.15,0v.51l-.19,0a.75.75,0,0,0-.72.7,1.71,1.71,0,0,0,0,.25v1.59h-.53Z"/><path class="cls-3" d="M252.49,702.41l-.05-.37h0a1.1,1.1,0,0,1-.91.44.85.85,0,0,1-.91-.86c0-.72.64-1.11,1.79-1.1v-.07a.61.61,0,0,0-.67-.69,1.46,1.46,0,0,0-.78.23l-.12-.36a1.83,1.83,0,0,1,1-.27c.91,0,1.13.63,1.13,1.22v1.12a3.82,3.82,0,0,0,0,.71Zm-.08-1.52c-.59,0-1.27.09-1.27.67a.48.48,0,0,0,.51.52.76.76,0,0,0,.73-.5,1.22,1.22,0,0,0,0-.17Z"/><path class="cls-3" d="M254.43,698.58v.85h.78v.41h-.78v1.61c0,.37.11.58.41.58a1.11,1.11,0,0,0,.31,0l0,.41a1.43,1.43,0,0,1-.48.07.78.78,0,0,1-.59-.22,1.15,1.15,0,0,1-.21-.78v-1.63h-.46v-.41h.46v-.71Z"/><path class="cls-3" d="M257.12,698h.54v4.37h-.54Z"/><path class="cls-3" d="M260.22,702.41l0-.37h0a1.1,1.1,0,0,1-.91.44.85.85,0,0,1-.91-.86c0-.72.64-1.11,1.79-1.1v-.07a.62.62,0,0,0-.68-.69,1.45,1.45,0,0,0-.77.23l-.13-.36a1.88,1.88,0,0,1,1-.27,1.07,1.07,0,0,1,1.14,1.22v1.12a3.82,3.82,0,0,0,.05.71Zm-.08-1.52c-.59,0-1.26.09-1.26.67a.48.48,0,0,0,.51.52.74.74,0,0,0,.72-.5.55.55,0,0,0,0-.17ZM259,698.54a.58.58,0,0,1,.63-.58.57.57,0,0,1,.61.58.59.59,0,0,1-.62.57A.58.58,0,0,1,259,698.54Zm.94,0a.33.33,0,0,0-.32-.34.32.32,0,0,0-.31.35.34.34,0,0,0,.31.34A.33.33,0,0,0,259.92,698.53Z"/><path class="cls-3" d="M261.47,701.86a1.45,1.45,0,0,0,.71.21c.4,0,.58-.19.58-.44s-.15-.4-.55-.55-.79-.49-.79-.84a.92.92,0,0,1,1-.88,1.47,1.47,0,0,1,.73.19l-.14.39a1.17,1.17,0,0,0-.61-.17c-.32,0-.5.18-.5.41s.18.35.57.5.78.46.78.9-.4.89-1.11.89a1.74,1.74,0,0,1-.84-.2Z"/><path class="cls-3" d="M264.28,701a1,1,0,0,0,1,1,2,2,0,0,0,.83-.15l.09.39a2.55,2.55,0,0,1-1,.18,1.38,1.38,0,0,1-1.47-1.5,1.45,1.45,0,0,1,1.4-1.61,1.27,1.27,0,0,1,1.23,1.41,1.47,1.47,0,0,1,0,.25Zm1.59-.39a.78.78,0,0,0-.75-.88.9.9,0,0,0-.83.88Z"/><path class="cls-3" d="M271.06,700.9a1.45,1.45,0,0,1-1.48,1.58,1.41,1.41,0,0,1-1.43-1.53,1.46,1.46,0,0,1,1.48-1.59A1.42,1.42,0,0,1,271.06,700.9Zm-2.36,0c0,.65.37,1.14.9,1.14s.91-.48.91-1.15c0-.51-.25-1.15-.89-1.15S268.7,700.36,268.7,700.93Z"/><path class="cls-3" d="M271.75,700.4c0-.38,0-.69,0-1h.49l0,.51h0a1.17,1.17,0,0,1,1.05-.58,1.35,1.35,0,0,1,1.27,1.52,1.42,1.42,0,0,1-1.36,1.6,1,1,0,0,1-.92-.47h0v1.62h-.53Zm.53.8a.78.78,0,0,0,0,.22.82.82,0,0,0,.81.63c.57,0,.91-.46.91-1.15s-.32-1.11-.89-1.11a.87.87,0,0,0-.82.68.72.72,0,0,0,0,.22Z"/><g id="Group_62-2" data-name="Group 62" class="cls-4"><path id="Path_67-2" data-name="Path 67" class="cls-7" d="M179.93,721.82h74.81l69.38-287.57H259.33Q219.63,578,179.93,721.82Z"/></g></svg>