<svg id="Layer_1" data-name="Layer 1" xmlns="http://www.w3.org/2000/svg" xmlns:xlink="http://www.w3.org/1999/xlink" width="516" height="838" viewBox="0 0 516 838"><defs><style>.cls-1,.cls-23{fill:#1d1d1b;}.cls-1,.cls-26,.cls-27{isolation:isolate;}.cls-1{opacity:0.3;}.cls-2{fill:#466c98;}.cls-3{fill:url(#radial-gradient);}.cls-4{fill:#365472;}.cls-5{fill:#85c7e8;}.cls-6{fill:url(#radial-gradient-2);}.cls-7{fill:url(#radial-gradient-3);}.cls-8{fill:url(#radial-gradient-4);}.cls-9{fill:url(#linear-gradient);}.cls-10{fill:url(#radial-gradient-5);}.cls-11{fill:url(#linear-gradient-2);}.cls-12{fill:url(#linear-gradient-3);}.cls-13{fill:#b36f8d;}.cls-14{fill:#010102;}.cls-15{fill:#ce91b1;}.cls-16{fill:url(#linear-gradient-4);}.cls-17{fill:url(#radial-gradient-6);}.cls-18{fill:url(#radial-gradient-7);}.cls-19{fill:url(#radial-gradient-8);}.cls-20{fill:url(#radial-gradient-9);}.cls-21{fill:#6394b2;}.cls-22{fill:url(#radial-gradient-10);}.cls-24{fill:url(#radial-gradient-11);}.cls-25{fill:#eaa0c3;}.cls-26,.cls-27{opacity:0.7;}.cls-26{fill:url(#radial-gradient-12);}.cls-27{fill:#f2e4ed;}.cls-28{fill:url(#radial-gradient-13);}.cls-29{fill:url(#radial-gradient-14);}.cls-30{fill:url(#radial-gradient-15);}.cls-31{fill:url(#radial-gradient-16);}.cls-32{fill:#c4769a;}.cls-33{fill:url(#radial-gradient-17);}.cls-34{fill:url(#radial-gradient-18);}.cls-35{fill:url(#radial-gradient-19);}.cls-36{fill:url(#radial-gradient-20);}.cls-37{fill:#f4d494;}.cls-38{opacity:0.4;}.cls-39{fill:#1d1e1c;}.cls-40{fill:url(#linear-gradient-5);}.cls-41{fill:#694751;}.cls-42{fill:url(#radial-gradient-21);}.cls-43{fill:#d2a87d;}.cls-44{fill:url(#radial-gradient-22);}.cls-45{fill:#77624e;}.cls-46{fill:#010101;}.cls-47{fill:#fff;}.cls-48{fill:url(#radial-gradient-23);}.cls-49{fill:url(#radial-gradient-24);}.cls-50{fill:#d4989b;}.cls-51{fill:#d3989b;}.cls-52{fill:url(#radial-gradient-25);}.cls-53{fill:#914a62;}.cls-54{fill:url(#radial-gradient-26);}.cls-55{fill:url(#radial-gradient-27);}.cls-56{fill:url(#radial-gradient-28);}.cls-57{fill:#efdae2;}.cls-58{fill:url(#radial-gradient-29);}.cls-59{fill:url(#radial-gradient-30);}.cls-60{fill:url(#radial-gradient-31);}.cls-61{fill:#d7b5c5;}.cls-62{fill:#885a71;}.cls-63{fill:url(#linear-gradient-6);}.cls-64{fill:url(#linear-gradient-7);}.cls-65{fill:url(#linear-gradient-8);}.cls-66{fill:url(#linear-gradient-9);}.cls-67{fill:url(#linear-gradient-10);}.cls-68{stroke:#fff;stroke-miterlimit:10;opacity:0.45;fill:url(#linear-gradient-11);}.cls-69{fill:#f9e9f1;}.cls-70{fill:url(#radial-gradient-32);}.cls-71{fill:#2f454f;}.cls-72{fill:url(#radial-gradient-33);}.cls-73{fill:#5a839b;}.cls-74{fill:url(#radial-gradient-34);}.cls-75{fill:url(#radial-gradient-35);}</style><radialGradient id="radial-gradient" cx="258.07" cy="-4907.75" r="48.14" gradientTransform="matrix(1, 0, 0, -1, 0, -4654.3)" gradientUnits="userSpaceOnUse"><stop offset="0" stop-color="#9ec9ed"/><stop offset="0.19" stop-color="#81a8ca"/><stop offset="0.43" stop-color="#6084a4"/><stop offset="0.65" stop-color="#496989"/><stop offset="0.85" stop-color="#3b5a78"/><stop offset="1" stop-color="#365472"/></radialGradient><radialGradient id="radial-gradient-2" cx="213.01" cy="-4911.56" r="40.86" gradientTransform="matrix(1, 0, 0, -1, 0, -4654.3)" gradientUnits="userSpaceOnUse"><stop offset="0" stop-color="#605f5f"/><stop offset="0.23" stop-color="#575656"/><stop offset="0.6" stop-color="#3e3e3d"/><stop offset="1" stop-color="#1d1d1b"/></radialGradient><radialGradient id="radial-gradient-3" cx="300.01" cy="-4911.4" r="42.45" xlink:href="#radial-gradient-2"/><radialGradient id="radial-gradient-4" cx="1148.95" cy="-4085.14" fx="1163.437984171939" fy="-4063.858820255441" r="25.75" gradientTransform="matrix(0.91, 0.34, 0.35, -0.94, 635.8, -3991.38)" gradientUnits="userSpaceOnUse"><stop offset="0" stop-color="#edc95c"/><stop offset="0.38" stop-color="#dbb140"/><stop offset="1" stop-color="#c08d15"/></radialGradient><linearGradient id="linear-gradient" x1="116.57" y1="-4782.67" x2="203.01" y2="-4782.67" gradientTransform="matrix(1, 0, 0, -1, 0, -4654.3)" gradientUnits="userSpaceOnUse"><stop offset="0" stop-color="#6ea7db"/><stop offset="0.69" stop-color="#4b7192"/><stop offset="0.99" stop-color="#355166"/></linearGradient><radialGradient id="radial-gradient-5" cx="473.34" cy="-4811.05" r="69.79" gradientTransform="matrix(0.9, 0, 0, -1, -166.82, -4654.3)" gradientUnits="userSpaceOnUse"><stop offset="0" stop-color="#fff"/><stop offset="0.38" stop-color="#becfea"/><stop offset="0.68" stop-color="#8eabda"/></radialGradient><linearGradient id="linear-gradient-2" x1="182.78" y1="-4874.9" x2="259.79" y2="-4805.73" xlink:href="#linear-gradient"/><linearGradient id="linear-gradient-3" x1="308.69" y1="-4855.44" x2="267.86" y2="-4754.91" gradientTransform="matrix(1, 0, 0, -1, 0, -4654.3)" gradientUnits="userSpaceOnUse"><stop offset="0" stop-color="#6ea7db"/><stop offset="0.71" stop-color="#4b7192"/><stop offset="1" stop-color="#354f63"/></linearGradient><linearGradient id="linear-gradient-4" x1="413.13" y1="-4767.89" x2="328.96" y2="-4787.61" xlink:href="#linear-gradient-3"/><radialGradient id="radial-gradient-6" cx="291.07" cy="-4807.3" r="1.4" gradientTransform="matrix(1, 0, 0, -1, 0, -4654.3)" gradientUnits="userSpaceOnUse"><stop offset="0" stop-color="#fff"/><stop offset="1" stop-color="#fff"/></radialGradient><radialGradient id="radial-gradient-7" cx="-391.78" cy="-4380.5" r="2.45" gradientTransform="matrix(1.35, 0, 0, -1.26, 823.19, -5371.85)" xlink:href="#radial-gradient-6"/><radialGradient id="radial-gradient-8" cx="222.28" cy="-4807.24" r="1.53" xlink:href="#radial-gradient-6"/><radialGradient id="radial-gradient-9" cx="-218.86" cy="-4326.41" r="2.64" gradientTransform="matrix(1.28, 0, 0, -1.22, 507.26, -5131.99)" xlink:href="#radial-gradient-6"/><radialGradient id="radial-gradient-10" cx="553.59" cy="-4571.78" r="6.45" gradientTransform="matrix(0.99, 0.1, 0.1, -0.99, 215.58, -4462.22)" gradientUnits="userSpaceOnUse"><stop offset="0" stop-color="#fff"/><stop offset="0.11" stop-color="#d9e5f3"/><stop offset="0.24" stop-color="#b3cbe7"/><stop offset="0.37" stop-color="#93b5dd"/><stop offset="0.51" stop-color="#7aa4d5"/><stop offset="0.66" stop-color="#6998cf"/><stop offset="0.81" stop-color="#5e91cc"/><stop offset="1" stop-color="#5b8fcb"/></radialGradient><radialGradient id="radial-gradient-11" cx="-3408.52" cy="-4992.04" r="6.53" gradientTransform="translate(-3648.78 -4461.27) rotate(174.23)" xlink:href="#radial-gradient-10"/><radialGradient id="radial-gradient-12" cx="257.54" cy="-4822.44" r="23.61" gradientTransform="matrix(1, 0, 0, -1, 0, -4654.3)" gradientUnits="userSpaceOnUse"><stop offset="0" stop-color="#f2e4ed"/><stop offset="0.41" stop-color="#e3c0d3"/><stop offset="1" stop-color="#ce91b1"/></radialGradient><radialGradient id="radial-gradient-13" cx="32.61" cy="-4297.99" r="5.09" gradientTransform="matrix(1.14, 0, 0, -1.36, 239.28, -5516.85)" xlink:href="#radial-gradient-12"/><radialGradient id="radial-gradient-14" cx="664.96" cy="-4996.44" r="11.96" gradientTransform="matrix(0.84, 0, 0, -1, -283.79, -4654.3)" xlink:href="#radial-gradient-12"/><radialGradient id="radial-gradient-15" cx="275.56" cy="-4992.85" r="5.09" gradientTransform="matrix(1, 0, 0, -1, 0, -4654.3)" gradientUnits="userSpaceOnUse"><stop offset="0" stop-color="#fef8fb"/><stop offset="0.37" stop-color="#f3ebf0"/><stop offset="1" stop-color="#e4d7e1"/></radialGradient><radialGradient id="radial-gradient-16" cx="32.79" cy="-4296.35" r="3.45" gradientTransform="matrix(1.14, 0, 0, -1.36, 239.28, -5516.85)" xlink:href="#radial-gradient-15"/><radialGradient id="radial-gradient-17" cx="2.11" cy="-4297.31" r="5.09" gradientTransform="matrix(1.14, 0, 0, -1.36, 239.28, -5516.85)" xlink:href="#radial-gradient-12"/><radialGradient id="radial-gradient-18" cx="623.84" cy="-4995.51" r="11.96" gradientTransform="matrix(0.84, 0, 0, -1, -283.79, -4654.3)" xlink:href="#radial-gradient-12"/><radialGradient id="radial-gradient-19" cx="240.9" cy="-4991.92" r="5.09" xlink:href="#radial-gradient-15"/><radialGradient id="radial-gradient-20" cx="2.29" cy="-4295.68" r="3.45" gradientTransform="matrix(1.14, 0, 0, -1.36, 239.28, -5516.85)" xlink:href="#radial-gradient-15"/><linearGradient id="linear-gradient-5" x1="307.49" y1="-5318.82" x2="404.16" y2="-5166.83" gradientTransform="matrix(1, 0, 0, -1, -117.78, -4656.19)" gradientUnits="userSpaceOnUse"><stop offset="0" stop-color="#e7caa8"/><stop offset="0.06" stop-color="#bfa47f"/><stop offset="0.18" stop-color="#e7caa8"/><stop offset="0.33" stop-color="#e3c6a3"/><stop offset="0.49" stop-color="#a0865f"/></linearGradient><radialGradient id="radial-gradient-21" cx="256.39" cy="644.26" r="100.65" gradientUnits="userSpaceOnUse"><stop offset="0" stop-color="#a3cde1"/><stop offset="1" stop-color="#374e5b"/></radialGradient><radialGradient id="radial-gradient-22" cx="256.58" cy="-5179.66" r="62.18" gradientTransform="matrix(1, 0, 0, -1, 0, -4656.19)" gradientUnits="userSpaceOnUse"><stop offset="0" stop-color="#fdebd9"/><stop offset="0.15" stop-color="#f6dfc8"/><stop offset="0.67" stop-color="#e0ba94"/><stop offset="0.92" stop-color="#d8ab80"/></radialGradient><radialGradient id="radial-gradient-23" cx="590.31" cy="-5214.3" r="6.63" gradientTransform="matrix(0.99, 0.1, 0.1, -0.99, 247.01, -4732.04)" gradientUnits="userSpaceOnUse"><stop offset="0" stop-color="#fff"/><stop offset="0.11" stop-color="#d8e4f2"/><stop offset="0.24" stop-color="#b2cae6"/><stop offset="0.37" stop-color="#92b4dc"/><stop offset="0.51" stop-color="#79a3d4"/><stop offset="0.66" stop-color="#6997ce"/><stop offset="0.81" stop-color="#5c90cb"/><stop offset="1" stop-color="#5a8eca"/></radialGradient><radialGradient id="radial-gradient-24" cx="-2284.94" cy="-5525.74" r="6.62" gradientTransform="translate(-2594.43 -4729.77) rotate(174.23)" xlink:href="#radial-gradient-23"/><radialGradient id="radial-gradient-25" cx="255.49" cy="705.26" r="43.55" gradientUnits="userSpaceOnUse"><stop offset="0" stop-color="#e2c3cf"/><stop offset="0.42" stop-color="#d3989b"/><stop offset="1" stop-color="#78464f"/></radialGradient><radialGradient id="radial-gradient-26" cx="238.35" cy="714.58" r="10.83" xlink:href="#radial-gradient-25"/><radialGradient id="radial-gradient-27" cx="274.45" cy="714.58" r="10.83" xlink:href="#radial-gradient-25"/><radialGradient id="radial-gradient-28" cx="254.76" cy="636.43" r="67.85" xlink:href="#radial-gradient-25"/><radialGradient id="radial-gradient-29" cx="399.69" cy="1298.48" r="13.61" gradientTransform="translate(-111.95 -394.32) scale(0.92 0.82)" xlink:href="#radial-gradient-25"/><radialGradient id="radial-gradient-30" cx="209.57" cy="601.08" r="15.81" xlink:href="#radial-gradient-25"/><radialGradient id="radial-gradient-31" cx="-2951.4" cy="601.38" r="15.81" gradientTransform="matrix(-1, 0, 0, 1, -2648.68, 0)" xlink:href="#radial-gradient-25"/><linearGradient id="linear-gradient-6" x1="142.33" y1="662.93" x2="185.84" y2="662.93" gradientUnits="userSpaceOnUse"><stop offset="0" stop-color="#e2c3cf"/><stop offset="0.1" stop-color="#cfadb8"/><stop offset="0.28" stop-color="#b08893"/><stop offset="0.47" stop-color="#986b75"/><stop offset="0.65" stop-color="#865760"/><stop offset="0.83" stop-color="#7c4a53"/><stop offset="1" stop-color="#78464f"/></linearGradient><linearGradient id="linear-gradient-7" x1="-2859.47" y1="665.73" x2="-2815.95" y2="665.73" gradientTransform="matrix(-1, 0, 0, 1, -2493.39, 0)" xlink:href="#linear-gradient-6"/><linearGradient id="linear-gradient-8" x1="-2974.38" y1="530.88" x2="-2954.96" y2="471.68" gradientTransform="matrix(-1, 0, 0, 1, -2744.82, 0)" gradientUnits="userSpaceOnUse"><stop offset="0" stop-color="#e7caa8"/><stop offset="0.27" stop-color="#e7caa8"/><stop offset="0.41" stop-color="#e3c6a3"/><stop offset="0.58" stop-color="#d6b995"/><stop offset="0.75" stop-color="#bfa47f"/><stop offset="0.93" stop-color="#a0865f"/><stop offset="1" stop-color="#927a51"/></linearGradient><linearGradient id="linear-gradient-9" x1="108.12" y1="525.23" x2="115.18" y2="459.93" gradientTransform="translate(180.65)" gradientUnits="userSpaceOnUse"><stop offset="0" stop-color="#e7caa8"/><stop offset="1" stop-color="#927a51"/></linearGradient><linearGradient id="linear-gradient-10" x1="166.29" y1="578.43" x2="315.52" y2="578.43" gradientTransform="translate(12.87 -48.23) scale(1.01 0.98)" gradientUnits="userSpaceOnUse"><stop offset="0" stop-color="#78464f"/><stop offset="0.09" stop-color="#7c4a52"/><stop offset="0.18" stop-color="#88555d"/><stop offset="0.27" stop-color="#9d676e"/><stop offset="0.36" stop-color="#ba8186"/><stop offset="0.42" stop-color="#d3989b"/><stop offset="0.49" stop-color="#e2c3cf"/><stop offset="0.58" stop-color="#c2878c"/><stop offset="0.67" stop-color="#a97177"/><stop offset="0.79" stop-color="#8e5961"/><stop offset="0.9" stop-color="#7e4b54"/><stop offset="0.98" stop-color="#78464f"/></linearGradient><linearGradient id="linear-gradient-11" x1="188.59" y1="520.14" x2="324.56" y2="520.14" gradientUnits="userSpaceOnUse"><stop offset="0" stop-color="#c68e94"/><stop offset="0.53" stop-color="#fff"/><stop offset="1" stop-color="#c2878c"/></linearGradient><radialGradient id="radial-gradient-32" cx="-21.59" cy="-5396.53" r="11.64" gradientTransform="matrix(1.29, 0, 0, -1, 305.43, -4656.19)" gradientUnits="userSpaceOnUse"><stop offset="0" stop-color="#5a839b"/><stop offset="0.51" stop-color="#486679"/><stop offset="1" stop-color="#374e5b"/></radialGradient><radialGradient id="radial-gradient-33" cx="288.38" cy="-5413.42" r="10.72" gradientTransform="matrix(1, 0, 0, -1, 0, -4656.19)" xlink:href="#radial-gradient-32"/><radialGradient id="radial-gradient-34" cx="-50.6" cy="-5396.84" r="11.64" xlink:href="#radial-gradient-32"/><radialGradient id="radial-gradient-35" cx="250.96" cy="-5413.72" r="10.72" gradientTransform="matrix(1, 0, 0, -1, 0, -4656.19)" xlink:href="#radial-gradient-32"/></defs><g id="Layer_4" data-name="Layer 4"><ellipse class="cls-1" cx="258.08" cy="350.93" rx="61.33" ry="5.19"/></g><g id="Layer_3" data-name="Layer 3"><path class="cls-2" d="M237.41,346.62,225,301.05a3.76,3.76,0,0,1,2.55-4.66,3.39,3.39,0,0,1,.89-.15l23.39-.91a4,4,0,0,1,4.14,3.9,4.19,4.19,0,0,1-.1,1l-11,46.5C244,350.62,238.48,350.54,237.41,346.62Z"/><path class="cls-2" d="M279,345.58l12.36-45.32a3.71,3.71,0,0,0-2.51-4.62,3.31,3.31,0,0,0-.88-.15l-23.26-.93a4,4,0,0,0-4.12,3.88,4.28,4.28,0,0,0,.1,1l10.9,46.24C272.47,349.55,278,349.49,279,345.58Z"/><rect class="cls-3" x="211.09" y="204.19" width="93.97" height="98.52" rx="27.4"/><path class="cls-4" d="M179.91,271.33l18.41-45.12a3.73,3.73,0,0,1,4.8-2.19,3.64,3.64,0,0,1,.91.49l19.08,14.19a4.24,4.24,0,0,1,.75,6,4.06,4.06,0,0,1-.6.64l-37.5,30.92C182.62,278.78,178.33,275.21,179.91,271.33Z"/><path class="cls-4" d="M333.06,271.33l-18.42-45.12a3.72,3.72,0,0,0-4.79-2.19,3.64,3.64,0,0,0-.91.49l-19.1,14.17a4.25,4.25,0,0,0-.76,6,4.47,4.47,0,0,0,.6.63l37.5,30.93C330.35,278.78,334.64,275.21,333.06,271.33Z"/><rect class="cls-5" x="282.83" y="240.32" width="2.73" height="8.94" rx="1.37" transform="translate(-57.61 90.32) rotate(-16.42)"/><rect class="cls-5" x="281.18" y="235.36" width="3.11" height="3.11" rx="1.55" transform="translate(-85.14 209.77) rotate(-35.74)"/><rect class="cls-5" x="225.56" y="244.97" width="8.94" height="2.73" rx="1.37" transform="translate(-71.28 397.35) rotate(-73.58)"/><rect class="cls-5" x="229.94" y="236.94" width="3.11" height="3.11" rx="1.55" transform="translate(-97.3 287.09) rotate(-54.26)"/><rect class="cls-5" x="374.29" y="146.76" width="3.11" height="3.11" rx="1.55" transform="translate(35.92 366.75) rotate(-54.26)"/><path class="cls-6" d="M248.67,244.85a22.8,22.8,0,0,0-3.58-12.48,12.17,12.17,0,0,0-11.61-15.82,8.18,8.18,0,0,0-1.23.06,16.83,16.83,0,0,0-11.77-4.8A17,17,0,0,0,204.54,223,17.22,17.22,0,0,0,189.69,238a17.38,17.38,0,0,0,4.72,34,7.18,7.18,0,0,0,1-.05,19.93,19.93,0,0,0,.73,1.86,23.37,23.37,0,0,0-2,9.65c0,10.6,6.68,19.28,14.85,19.28h24.81c8.18,0,14.86-8.68,14.86-19.28a23.69,23.69,0,0,0-2-9.65,23.76,23.76,0,0,0,2-9.65h0a23.68,23.68,0,0,0-2-9.64A23.59,23.59,0,0,0,248.67,244.85Z"/><path class="cls-7" d="M329.93,242.77a17.22,17.22,0,0,0-12.88-16.68,17.45,17.45,0,0,0-30.24-8.77,12.13,12.13,0,0,0-15.62,7.06,11.57,11.57,0,0,0-.64,2.46c-5.59,2.77-9.58,9.82-9.58,18a23.76,23.76,0,0,0,2,9.65,23.51,23.51,0,0,0-2,9.64h0a23.6,23.6,0,0,0,2,9.65,23.53,23.53,0,0,0-2,9.65c0,10.6,6.68,19.28,14.85,19.28h24.79c8.17,0,14.85-8.68,14.85-19.28a23.69,23.69,0,0,0-2-9.65c.13-.29.24-.58.36-.85a17.46,17.46,0,0,0,5.64,1.75,17,17,0,0,0,10.48-31.9Z"/><path class="cls-8" d="M222,208.22a18.85,18.85,0,0,1,12.4,14.58,11,11,0,0,1,8.19,4,11.69,11.69,0,0,1,2.29,8.53,14.26,14.26,0,0,1,8.92.32,14.07,14.07,0,0,1,5.86,4.18,11.06,11.06,0,0,1,4.75-7.58A10.81,10.81,0,0,1,272,230.8a10.56,10.56,0,0,1,3.18-6.79,9.92,9.92,0,0,1,7.13-2.69,15.87,15.87,0,0,1,11.82-13.42c1.63,5,.45,10.19-3,13a10.56,10.56,0,0,1-6.34,2.3,12,12,0,0,1-3.4,6.43,11.41,11.41,0,0,1-6.67,3.19,16,16,0,0,1-7,8.67,15.71,15.71,0,0,1-8.28,2.11,13.52,13.52,0,0,1-7.89-.2,13.71,13.71,0,0,1-7.45-6.26,11.18,11.18,0,0,1-8.57-2.47,12,12,0,0,1-4-9.05,13.08,13.08,0,0,1-7.64-4.15C219.4,216,221.87,208.61,222,208.22Z"/></g><g id="Layer_5" data-name="Layer 5"><path class="cls-9" d="M203,93.41a28,28,0,0,0-5.19-17.11c-8.09-10.87-23.58-12.95-34.27-8.86-2.19.84-8.4,3.21-12,9.19-3.31,5.5-.92,8.26-3.85,14.08C143.53,99,137,96.79,132.87,104.34c-4.24,7.82.85,13.74-3.64,20.63-3.11,4.79-8.68,6.67-12.66,7.53,3,3,7,6.06,11,5.34,4.25-.74,6.79-5.18,7.64-4.61s-2.16,4.62-3.05,10c-.92,5.66.85,10.31,1.84,12.91,4.53,11.93,14.15,14.43,13,20.75a8.39,8.39,0,0,1-3.91,5.16c-3.91,2.54-9.7,1.81-14.79-1.76,1.58,2.08,8.49,10.67,18.67,10.92,14.43.36,22.86-16.12,24.61-19.45a44.83,44.83,0,0,0,4.64-21.74c-.65-21.83-15.4-29.94-10.57-44,.55-1.62,2.55-7.16,7.75-9.51,7.92-3.57,16.9,3.08,17.69,3.69Z"/><rect class="cls-10" x="188.72" y="97.48" width="142.59" height="118.54" rx="30.85"/><path class="cls-11" d="M257.54,92.91c-1.2,22.82-8.68,32.09-15.13,36.38-10.35,6.88-19.39,1.76-31.44,10-8,5.42-17.17,16.61-16.33,28.16,1.24,17.22,23.43,17.09,34.47,41.07,1.11,2.42,11.7,26.31,1.21,45.19-5.94,10.71-15.48,14.13-15.12,22.91.29,7.08,6.85,12.67,12.73,16.43-3.52,1.33-11.79,3.88-20,.59-12.22-4.94-16.72-20-16.93-29.93-.32-14.35,8.22-18.44,5.45-28.77-2.63-9.76-10.9-8.64-19.35-19.37-13-16.45-13.42-44.29-4.24-62.8,3.39-6.79,6.79-9.87,9.22-19,3.54-13.35-1.08-17.2,2.27-25,6.79-15.94,34-18.93,40.1-19.6A76.53,76.53,0,0,1,257.54,92.91Z"/><path class="cls-12" d="M254.89,92.2c1.24,22.82,9,32.1,15.71,36.38,10.76,6.88,20.14,1.77,32.66,10,8.29,5.43,17.83,16.61,17,28.16-1.29,17.22-24.34,17.1-35.81,41.08-1.15,2.41-12.15,26.31-1.25,45.18,6.17,10.71,16.08,14.13,15.7,22.92-.3,7.09-7.12,12.68-13.19,16.43,3.65,1.33,12.24,3.89,20.73.58C319.15,288,323.79,273,324,263c.31-14.31-8.56-18.41-5.66-28.75,2.74-9.75,11.32-8.63,20.11-19.36,13.46-16.45,13.94-44.29,4.39-62.8-3.48-6.79-7.07-9.87-9.58-19-3.67-13.34,1.13-17.2-2.35-25-7.08-15.94-35.35-18.94-41.65-19.61A82.46,82.46,0,0,0,254.89,92.2Z"/><rect class="cls-13" x="187.52" y="91.63" width="24.06" height="9.49" rx="4.74" transform="translate(-21.45 112.69) rotate(-30)"/><path class="cls-14" d="M224.2,139.18h0a9.12,9.12,0,0,1,9.12,9.13h0a9.12,9.12,0,0,1-9.12,9.12h0a9.12,9.12,0,0,1-9.12-9.12h0A9.12,9.12,0,0,1,224.2,139.18Z"/><rect class="cls-15" x="213.65" y="160.79" width="17.26" height="9.77" rx="4.88"/><path class="cls-16" d="M308.87,93.41a28,28,0,0,1,5.19-17.11c8.1-10.87,23.58-12.95,34.27-8.86,2.19.84,8.4,3.21,12,9.19,3.31,5.5.92,8.26,3.85,14.08C368.35,99,374.9,96.79,379,104.34c4.24,7.82-.85,13.74,3.64,20.63,3.11,4.79,8.68,6.67,12.66,7.53-3,3-7,6.06-11,5.34-4.24-.74-6.79-5.18-7.64-4.61s2.16,4.62,3.05,10c.92,5.66-.85,10.31-1.84,12.91-4.53,11.93-14.15,14.43-13,20.75a8.35,8.35,0,0,0,3.9,5.16c3.91,2.54,9.7,1.81,14.79-1.76C382,182.4,375.1,191,364.92,191.24c-14.38.36-22.86-16.12-24.61-19.45a44.83,44.83,0,0,1-4.64-21.74c.64-21.83,15.39-29.94,10.56-44-.56-1.62-2.54-7.16-7.75-9.51-7.91-3.57-16.9,3.08-17.69,3.69Z"/><rect class="cls-13" x="307.58" y="84.35" width="9.49" height="24.06" rx="4.74" transform="translate(72.7 318.67) rotate(-60)"/><path class="cls-14" d="M291.2,157.44h0a9.13,9.13,0,0,1-9.13-9.12h0a9.13,9.13,0,0,1,9.13-9.13h0a9.13,9.13,0,0,1,9.12,9.13h0A9.13,9.13,0,0,1,291.2,157.44Z"/><rect class="cls-15" x="284.15" y="160.79" width="17.26" height="9.77" rx="4.88"/><circle class="cls-17" cx="291.07" cy="153" r="1.4"/><ellipse class="cls-18" cx="294.37" cy="147.13" rx="3.31" ry="3.08" transform="translate(-10.87 24.14) rotate(-4.61)"/><circle class="cls-19" cx="222.28" cy="152.94" r="1.53"/><ellipse class="cls-20" cx="226.58" cy="146.98" rx="3.38" ry="3.23"/><rect class="cls-21" x="228.1" y="91.09" width="15.17" height="4.64" rx="2.32"/><path class="cls-21" d="M219.7,94h0a2.65,2.65,0,0,1,3.37-1.62h0a2.64,2.64,0,0,1,1.62,3.36h0a2.65,2.65,0,0,1-3.37,1.62h0A2.64,2.64,0,0,1,219.7,94Z"/><rect class="cls-21" x="270.06" y="91.09" width="15.17" height="4.64" rx="2.32"/><path class="cls-21" d="M288.64,95.7h0a2.63,2.63,0,0,1,1.61-3.36h0A2.64,2.64,0,0,1,293.62,94h0A2.64,2.64,0,0,1,292,97.32h0A2.63,2.63,0,0,1,288.64,95.7Z"/><path class="cls-21" d="M195.05,78.31l4.68,7.38a1.93,1.93,0,0,1-.6,2.66h0a1.93,1.93,0,0,1-2.66-.6l-4.68-7.38a1.93,1.93,0,0,1,.6-2.66h0A1.93,1.93,0,0,1,195.05,78.31Z"/><rect class="cls-21" x="186.56" y="72.03" width="4.39" height="4.39" rx="2.19" transform="translate(-11.89 44.57) rotate(-13.06)"/><path class="cls-21" d="M319.68,80.41,315,87.79a1.92,1.92,0,0,1-2.66.59h0a1.92,1.92,0,0,1-.59-2.66l4.68-7.38a1.92,1.92,0,0,1,2.66-.59h0A1.92,1.92,0,0,1,319.68,80.41Z"/><rect class="cls-21" x="320.51" y="72.08" width="4.39" height="4.39" rx="2.19" transform="translate(177.43 371.84) rotate(-76.94)"/><path class="cls-5" d="M177,202l3.87,7c.47.85-.09,1.82-1.25,2.16h0a2.59,2.59,0,0,1-2.94-.9l-3.87-7c-.47-.85.09-1.81,1.24-2.16h0A2.59,2.59,0,0,1,177,202Z"/><path class="cls-5" d="M182.9,212.78h0c1.42-.05,2.63.76,2.7,1.8h0c.08,1-1,1.93-2.44,2h0c-1.41.05-2.62-.76-2.69-1.79h0C180.42,213.7,181.52,212.85,182.9,212.78Z"/><path class="cls-5" d="M337.86,203.57l-3.89,7c-.47.85.09,1.83,1.25,2.17h0a2.61,2.61,0,0,0,2.94-.91l3.87-7c.47-.85-.09-1.81-1.24-2.16h0A2.58,2.58,0,0,0,337.86,203.57Z"/><path class="cls-5" d="M331.92,214.34h0c-1.42-.05-2.64.76-2.7,1.8h0c-.08,1,1,1.93,2.44,2h0c1.41,0,2.62-.76,2.69-1.79h0C334.43,215.29,333.32,214.39,331.92,214.34Z"/><path class="cls-5" d="M376,153.06,374.27,159a1.36,1.36,0,0,1-1.69.93h0a1.37,1.37,0,0,1-.93-1.7l1.76-6a1.35,1.35,0,0,1,1.69-.92h0A1.36,1.36,0,0,1,376,153.06Z"/><rect class="cls-5" x="373.74" y="146.24" width="3.11" height="3.11" rx="1.55" transform="translate(36.12 366.09) rotate(-54.26)"/><path class="cls-5" d="M137,149.64l1.75,6a1.36,1.36,0,0,1-.92,1.7h0a1.38,1.38,0,0,1-1.7-.92l-1.75-6a1.37,1.37,0,0,1,.92-1.7h0A1.37,1.37,0,0,1,137,149.64Z"/><rect class="cls-5" x="133.57" y="143.58" width="3.11" height="3.11" rx="1.55" transform="translate(-59.33 106.26) rotate(-35.74)"/><path class="cls-22" d="M282.68,144.85a9.55,9.55,0,0,1,5.19-5.41c4.24-1.64,9.08.65,11,3.78a7.3,7.3,0,0,1,.77,1.62Z"/><path class="cls-23" d="M282.68,144.82c5.32-2.67,9.1-2.63,11.58-2.07s5.5,2.14,8.9,1a8.56,8.56,0,0,0,2.68-1.43,7,7,0,0,1-2.45,3.19c-2.55,1.7-5.55.72-10.54,0A70.68,70.68,0,0,0,282.68,144.82Z"/><path class="cls-24" d="M232.72,144.71a9.33,9.33,0,0,0-16.51-1.45,6.91,6.91,0,0,0-.78,1.62Z"/><path class="cls-23" d="M232.45,144.82c-5.32-2.67-9.09-2.63-11.58-2.07s-5.49,2.14-8.9,1a8.51,8.51,0,0,1-2.67-1.43,6.89,6.89,0,0,0,2.45,3.19c2.55,1.7,5.55.72,10.54,0A70.44,70.44,0,0,1,232.45,144.82Z"/><circle class="cls-15" cx="322.16" cy="97.73" r="5.75"/><circle class="cls-25" cx="316.42" cy="101.27" r="5.75"/><circle class="cls-15" cx="189.14" cy="98.84" r="5.75"/><circle class="cls-25" cx="194.89" cy="102.39" r="5.75"/><circle class="cls-26" cx="257.54" cy="168.14" r="23.61"/><path class="cls-27" d="M271.41,154.91a15.14,15.14,0,0,0-6.46-4.24,1.55,1.55,0,0,1-.92-2l0,0a1.44,1.44,0,0,1,1.39-.56,16.35,16.35,0,0,1,8.25,5.57,1.43,1.43,0,0,1-.13,1.14A1.61,1.61,0,0,1,271.41,154.91Z"/><rect class="cls-27" x="258.8" y="146.51" width="3.11" height="3.11" rx="1.55" transform="translate(-36.09 190.85) rotate(-37.84)"/><path class="cls-28" d="M267.36,324.57c.88,3.64,1.77,7.29,2.66,10.92h11.21l2.49-10.89a16.88,16.88,0,0,0-16.36,0Z"/><ellipse class="cls-29" cx="275.54" cy="342.14" rx="12.38" ry="8.39"/><path class="cls-30" d="M268.36,335.31q1.17,4,2.35,8h9.86l2.19-8a17.46,17.46,0,0,0-14.43,0Z"/><path class="cls-31" d="M270.12,323.36q1,3.81,2,7.64h7.36c.63-2.51,1.25-5,1.88-7.51a16.45,16.45,0,0,0-5.64-1.06A16.7,16.7,0,0,0,270.12,323.36Z"/><circle class="cls-32" cx="270.5" cy="336.1" r="0.38"/><circle class="cls-32" cx="280.97" cy="336.1" r="0.38"/><circle class="cls-32" cx="270.89" cy="338.16" r="0.38"/><circle class="cls-32" cx="280.59" cy="338.16" r="0.38"/><circle class="cls-32" cx="271.48" cy="340.21" r="0.38"/><circle class="cls-32" cx="280.02" cy="340.21" r="0.38"/><path class="cls-33" d="M232.7,323.65l2.67,10.92h11.18l2.55-10.89a16.79,16.79,0,0,0-16.37,0Z"/><ellipse class="cls-34" cx="240.88" cy="341.21" rx="12.38" ry="8.39"/><path class="cls-35" d="M233.71,334.38l2.34,8h9.86l2.19-8a17.31,17.31,0,0,0-14.43,0Z"/><path class="cls-36" d="M235.47,322.43c.66,2.57,1.33,5.11,2,7.64h7.4c.62-2.55,1.24-5,1.86-7.5a16.34,16.34,0,0,0-5.62-1.07A16.59,16.59,0,0,0,235.47,322.43Z"/><circle class="cls-32" cx="235.85" cy="335.18" r="0.38"/><circle class="cls-32" cx="246.32" cy="335.18" r="0.38"/><circle class="cls-32" cx="236.23" cy="337.23" r="0.38"/><circle class="cls-32" cx="245.93" cy="337.23" r="0.38"/><circle class="cls-32" cx="236.83" cy="339.29" r="0.38"/><circle class="cls-32" cx="245.37" cy="339.29" r="0.38"/><path class="cls-37" d="M270.6,233.05a10.6,10.6,0,0,0-4.92,2.19,1.09,1.09,0,0,1-1.52-.22l0,0a1,1,0,0,1,.2-1,11.22,11.22,0,0,1,6.38-2.72.9.9,0,0,1,.62.5A1.11,1.11,0,0,1,270.6,233.05Z"/><path class="cls-37" d="M261.33,237h0a1.1,1.1,0,0,1,1-1.18h0a1.09,1.09,0,0,1,1.18,1h0a1.08,1.08,0,0,1-1,1.17h0A1.09,1.09,0,0,1,261.33,237Z"/><path class="cls-37" d="M242.06,232.49a10.55,10.55,0,0,0-1.34-2.66,11.28,11.28,0,0,0-1.63-1.82,1.08,1.08,0,0,1,0-1.54l0,0a1,1,0,0,1,1,0,11.32,11.32,0,0,1,3.75,5.84,1,1,0,0,1-.39.7A1.13,1.13,0,0,1,242.06,232.49Z"/><path class="cls-37" d="M236.59,224h0a1.08,1.08,0,0,1,1.32.77h0a1.09,1.09,0,0,1-.78,1.33h0a1.08,1.08,0,0,1-1.32-.78h0A1.08,1.08,0,0,1,236.59,224Z"/></g><g id="Layer_2" data-name="Layer 2"><g class="cls-38"><ellipse class="cls-39" cx="255.94" cy="764.41" rx="64.11" ry="5.43"/></g></g><g id="Layer_3-2" data-name="Layer 3"><path class="cls-40" d="M260.53,494.15c1.21,9.42,1.4,20.82-3.72,27-6.81,8.19-16.81-.4-25.92,8-7.27,6.7-10.54,21.06-9,32.25,2.25,16,12.71,15.42,19.25,35.26,1.21,3.67,7.67,24,.83,40.06-4.26,10-11.07,13.07-10.3,20.29.67,6.42,6.39,6.37,8.65,14.57,3.06,11.08-2.94,22.35-3.9,23.94-7.71,12.77-26.1,18.68-45.41,13.74,6.56-2.52,14.79-7,17.53-15.16,3.15-9.39-.36-17.7-1.39-19.89-2.89-6.18-5.32-5.3-7.48-10.31-4.33-10,4.71-15.3,2.34-28.2-1.27-6.91-4-6.27-7.77-18.33-1.62-5.22-3.09-10-3.08-15.16,0-11.4,7.1-20.56,12.4-25.9.25-2.69,3.47-37.44,4.14-40.46.07-.28.13-.54.13-.54.19-.85.6-2.53,1.26-4.74l0-.16a75.62,75.62,0,0,1,11.73-22.78c6.73-9.1,10.54-14.26,17.12-16.8C247.82,487,256.77,491.76,260.53,494.15Z"/></g><rect class="cls-41" x="235.38" y="584.82" width="47.83" height="11.62"/><rect class="cls-42" x="207.27" y="592.76" width="98.24" height="103" rx="20.28"/><path class="cls-43" d="M174.67,663l19.25-47.17a3.89,3.89,0,0,1,5-2.32,3.63,3.63,0,0,1,1,.52l20,14.83a4.46,4.46,0,0,1,.8,6.25,4.92,4.92,0,0,1-.63.66l-39.21,32.31C177.52,670.75,173,667,174.67,663Z"/><path class="cls-43" d="M337.22,662.78,317,614.15a4.13,4.13,0,0,0-5.33-2.4,4.64,4.64,0,0,0-.95.52l-21,15.32a4.52,4.52,0,0,0-.89,6.34,4.38,4.38,0,0,0,.73.76L330.75,668C334.23,670.81,339,667,337.22,662.78Z"/><path class="cls-43" d="M253.33,573h10.16a7.06,7.06,0,0,1,6.85,7.25v9.66a7.07,7.07,0,0,1-6.85,7.26H253.33a7.07,7.07,0,0,1-6.85-7.26v-9.66A7.06,7.06,0,0,1,253.33,573Z"/><path class="cls-44" d="M278,581.9c-10.83.45-31.74.05-42.93-.48-25-1.19-48.65-20.29-43.27-46.61a148.28,148.28,0,0,0,2.33-25.22c-.25-26,15.84-44.54,42.65-44.73,12-.09,29.92.4,43.06.39,29.31,0,45.64,20.79,41,49.2-1.21,7.44-.4,16.1.73,22.68C326,562.23,302.19,580.89,278,581.9Z"/><path class="cls-45" d="M205.54,511.48a2.08,2.08,0,0,1-.63-1.52c.12-.25.24-.5.38-.74.33-.58.77-1.1,1.14-1.67l.41-.44c6.46-7.29,19.25-4.63,27.69-2.51,2.12.54,2.87,1.26,2.84,3.09s-1.89,2.44-3.44,2.12c-5.69-1.17-20.23-3.88-25.79.08A22.32,22.32,0,0,0,205.54,511.48Z"/><path class="cls-45" d="M307.62,511.48a2.11,2.11,0,0,0,.62-1.52c-.12-.25-.24-.5-.37-.74-.34-.58-.78-1.1-1.15-1.67-.12-.12-.25-.27-.4-.44-6.46-7.29-19.26-4.63-27.69-2.51-2.13.54-2.87,1.26-2.85,3.09s1.89,2.44,3.44,2.12c5.69-1.17,20.24-3.88,25.8.08A24.12,24.12,0,0,1,307.62,511.48Z"/><rect class="cls-46" x="249.39" y="528.46" width="14.39" height="3.89" rx="1.32"/><circle class="cls-39" cx="292.44" cy="521.28" r="9.22"/><ellipse class="cls-47" cx="295.08" cy="519.84" rx="3.33" ry="2.88"/><ellipse class="cls-47" cx="290.55" cy="525.52" rx="2.32" ry="2"/><path class="cls-48" d="M283.7,518a9.76,9.76,0,0,1,5.33-5.55c4.39-1.68,9.31.67,11.34,3.87a7.33,7.33,0,0,1,.8,1.67Z"/><path class="cls-39" d="M283.7,518c5.46-2.75,9.33-2.7,11.88-2.13s5.65,2.19,9.13,1.06a8.69,8.69,0,0,0,2.75-1.47,7.18,7.18,0,0,1-2.51,3.27c-2.62,1.76-5.7.74-10.82,0A71.33,71.33,0,0,0,283.7,518Z"/><circle class="cls-39" cx="220.34" cy="521.18" r="9.22"/><ellipse class="cls-47" cx="223.23" cy="519.56" rx="3.33" ry="2.88"/><ellipse class="cls-47" cx="218.02" cy="525.42" rx="2.32" ry="2"/><path class="cls-49" d="M229.07,517.88a9.78,9.78,0,0,0-5.32-5.56c-4.4-1.68-9.32.68-11.35,3.88a7.23,7.23,0,0,0-.79,1.66Z"/><path class="cls-39" d="M229.07,517.84c-5.46-2.75-9.33-2.7-11.88-2.12s-5.65,2.19-9.14,1.06a8.7,8.7,0,0,1-2.73-1.47,7,7,0,0,0,2.51,3.27c2.62,1.76,5.69.74,10.81,0A74.33,74.33,0,0,1,229.07,517.84Z"/><ellipse class="cls-50" cx="216.03" cy="538.78" rx="10.68" ry="6.43"/><ellipse class="cls-51" cx="297.16" cy="538.78" rx="10.02" ry="6.43"/><path class="cls-52" d="M302.71,682.47A16.74,16.74,0,0,0,286,665.73H225a16.75,16.75,0,0,0-1.83,33.39l11.62,42.55c1.12,4.1,6.86,4.18,7.79.12l10-42.57h8.09l9.77,41.47c1,4,6.67,4,7.78-.11l11.39-41.78A16.74,16.74,0,0,0,302.71,682.47Z"/><rect class="cls-53" x="273.14" y="687.2" width="2.62" height="42.49" transform="translate(36.4 -13.05) rotate(2.92)"/><rect class="cls-53" x="237.48" y="687.35" width="2.62" height="43.81" transform="translate(513.35 1405.43) rotate(177.08)"/><circle class="cls-54" cx="238.35" cy="714.58" r="10.83"/><circle class="cls-55" cx="274.45" cy="714.58" r="10.83"/><path class="cls-56" d="M173.86,650.14l18.27,15.79,13.38-17.27a96,96,0,0,1-3.07,36.83l47.38,2.56,6.78-6.62,6.71,5.81,48.19-.32a97.33,97.33,0,0,1-2.86-36.21l12.48,17.8,14.53-15.14q-13.5-30.2-27-60.37l-20.74-2.06-4.69-6.12-26.14,22.51-21.69-22.51-5.37,7-23.48,1.56Z"/><rect class="cls-57" x="255.42" y="606.8" width="1.94" height="74.93"/><path class="cls-57" d="M175.78,652.13l-1-1.18q15.91-27.32,31.84-54.64l.86.5Q191.63,624.47,175.78,652.13Z"/><rect class="cls-57" x="207.08" y="593.29" width="1.94" height="21.74" transform="translate(-30.46 11.37) rotate(-2.92)"/><path class="cls-57" d="M334.1,655.12l1-1.07q-13.5-27.75-27-55.51l-.88.42Q320.68,627,334.1,655.12Z"/><rect class="cls-57" x="306.06" y="592.82" width="1.94" height="21.74" transform="translate(582.95 1222.21) rotate(-177.08)"/><rect class="cls-57" x="207.63" y="614.42" width="0.97" height="71.38"/><rect class="cls-57" x="305.51" y="614.07" width="0.97" height="72.88"/><rect class="cls-58" x="239.21" y="668.97" width="34.37" height="7.87"/><path class="cls-59" d="M227,610.15c-2.37,9.73-37.61,1.16-35.25-8.57A18.14,18.14,0,0,1,227,610.15Z"/><path class="cls-60" d="M285.29,610.45c2.37,9.73,37.61,1.17,35.25-8.57a18.14,18.14,0,1,0-35.25,8.57Z"/><path class="cls-61" d="M313.54,596.31a13.34,13.34,0,0,0-2.75-2.13,12.59,12.59,0,0,0-2.58-1.14,1.36,1.36,0,0,1-.87-1.62,1,1,0,0,1,1-.45,14,14,0,0,1,6.82,4.32,1.15,1.15,0,0,1,0,.91A1.2,1.2,0,0,1,313.54,596.31Z"/><path class="cls-61" d="M304.28,589.72h0a1,1,0,0,1,1.52.21h0a1.26,1.26,0,0,1-.23,1.67h0a1,1,0,0,1-1.52-.21h0A1.27,1.27,0,0,1,304.28,589.72Z"/><path class="cls-61" d="M197.22,596a1.07,1.07,0,0,1,0-.9,14,14,0,0,1,6.82-4.32,1,1,0,0,1,1,.45,1.35,1.35,0,0,1-.86,1.62,12.59,12.59,0,0,0-2.58,1.14,13.37,13.37,0,0,0-2.75,2.12A1.2,1.2,0,0,1,197.22,596Z"/><path class="cls-61" d="M208.37,591.15h0a1,1,0,0,1-1.53.21h0a1.27,1.27,0,0,1-.22-1.67h0a1,1,0,0,1,1.52-.21h0A1.29,1.29,0,0,1,208.37,591.15Z"/><polygon class="cls-53" points="299.67 632.64 298.44 631.42 282.05 647.81 282.16 647.92 280.16 687.07 281.83 687.16 283.8 648.51 299.67 632.64"/><polygon class="cls-53" points="214.63 632.64 215.86 631.42 232.25 647.81 232.15 647.92 234.14 687.07 232.47 687.16 230.5 648.51 214.63 632.64"/><rect class="cls-53" x="288.23" y="649.01" width="2.62" height="37.94"/><rect class="cls-53" x="224.39" y="648.62" width="2.62" height="37.94"/><polygon class="cls-62" points="248.18 609.52 252.38 613.93 256.57 606.8 248.18 609.52"/><polygon class="cls-57" points="247.54 609.34 251.74 613.44 255.94 606.8 247.54 609.34"/><path class="cls-63" d="M169.74,655.21l-14.49,8.07a3.69,3.69,0,0,0-2.18,3.38,3.86,3.86,0,0,0,4.27,3.28l6.64-2.82-6.9,9.57a3.9,3.9,0,0,0-.22,4,4.16,4.16,0,0,0,5.69.93l8.2-8.39q-1.26,5.37-2.51,10.74a3.43,3.43,0,0,0,2.85,3.74,3.39,3.39,0,0,0,3.45-2.08l5.68-11.22,2.7,9.35a3.69,3.69,0,0,0,2.83,1.79,3.58,3.58,0,0,0,3.4-3.14l-2-12.95,16.83-10.91-26.66-20.46Z"/><path class="cls-64" d="M343.9,658l14.49,8.07a3.69,3.69,0,0,1,2.18,3.38,3.86,3.86,0,0,1-4.27,3.28l-6.64-2.82,6.9,9.57a3.9,3.9,0,0,1,.21,4,4.16,4.16,0,0,1-5.69.93l-8.19-8.39q1.25,5.37,2.5,10.74a3.42,3.42,0,0,1-2.84,3.74,3.38,3.38,0,0,1-3.45-2.08q-2.85-5.61-5.68-11.22l-2.7,9.35a3.71,3.71,0,0,1-2.84,1.79,3.57,3.57,0,0,1-3.39-3.14l2-13-16.84-10.91,26.67-20.46Q340.13,649.46,343.9,658Z"/><path class="cls-61" d="M341.08,654.89l-2.9-5.18a1.24,1.24,0,0,0-1.48-.72h0c-.45.23-.54.93-.18,1.57l2.9,5.18c.35.63,1,1,1.47.72h0C341.35,656.22,341.44,655.52,341.08,654.89Z"/><path class="cls-61" d="M335.87,647.19h0a1.32,1.32,0,0,0-.25-1.69h0a1,1,0,0,0-1.54,0h0a1.31,1.31,0,0,0,.25,1.69h0A1,1,0,0,0,335.87,647.19Z"/><path class="cls-61" d="M172.42,654.24h0a1.24,1.24,0,0,0,1.48-.72l2.9-5.18c.36-.63.27-1.34-.19-1.57h0a1.23,1.23,0,0,0-1.47.72l-2.91,5.18C171.88,653.3,172,654,172.42,654.24Z"/><path class="cls-61" d="M179,645h0a1.32,1.32,0,0,0,.25-1.69h0a1,1,0,0,0-1.55,0h0a1.34,1.34,0,0,0-.25,1.7h0A1,1,0,0,0,179,645Z"/><path class="cls-65" d="M253.9,477.33c-3-.73-25.51-5.84-39.47,7.46-13.21,12.59-11.56,34.76-7.52,47.12,4.55,13.91,13.32,20.25,20.55,44.33,1.09,3.61,1.84,6.62,2.3,8.6-8.54-1.85-22.24-6.4-33-18.4-23.55-26.28-11.25-64-9.33-69.52,2.73-7.91,7.59-22,21.46-30.79,18.18-11.52,45.19-8.82,48.64,0C258.88,469.6,256.53,473.88,253.9,477.33Z"/><path class="cls-66" d="M252.94,477.24a56.08,56.08,0,0,1,11.87-1.95c3.49-.2,23-1.29,34.5,9.42,12.5,11.61,11.92,33.65,7.52,47.12-4.72,14.45-13.89,20.51-20.55,44.32-1,3.62-1.68,6.64-2.09,8.63a66.22,66.22,0,0,0,29.88-18.9c25-28.16,13-66.74,12.24-69-2.33-7.09-7.2-21.76-21.46-30.79-15.47-9.81-40.08-11.6-48.63,0A18.68,18.68,0,0,0,252.94,477.24Z"/><path class="cls-67" d="M315.46,473.6c-19.31-21.15-47.12-22.49-54.75-22.85-7.46-.36-40.66-1.95-63.12,22.57-24.28,26.51-18.13,64-6.73,84.37a57.79,57.79,0,0,0,12.2,15.71,14.06,14.06,0,0,0,14.05,11.84h60.43a39.88,39.88,0,0,0,17,0h4.88a14,14,0,0,0,14.13-12.45,73.15,73.15,0,0,0,6.28-9.9C330.7,543.26,341.47,502.11,315.46,473.6Zm.49,45.31c-5.64,16.63-25.62,23.74-44.37,30.41a133.76,133.76,0,0,1-17.67,4.93,90.36,90.36,0,0,1-23.42-7c-11.7-5.32-31.76-14.46-35.75-33.28-2.13-10.08-.13-25.21,9.45-31.64,11.75-7.87,22.51,5.61,50.13,5.76,28.43.15,38.9-14,51.36-6.17C316.45,488.71,320.15,506.53,316,518.91Z"/><path class="cls-61" d="M296.6,466.52a30.11,30.11,0,0,0-6.28-3.9,30.91,30.91,0,0,0-5.78-2c-1.71-.58-2.51-2.12-2.08-3.05a2.2,2.2,0,0,1,2.19-.95,32.79,32.79,0,0,1,15.43,7.84,1.92,1.92,0,0,1,.11,1.74C299.69,467,298.13,467.3,296.6,466.52Z"/><path class="cls-61" d="M275.55,454.51h0a2.44,2.44,0,0,1,3.35.29h0a2.24,2.24,0,0,1-.29,3.24h0a2.44,2.44,0,0,1-3.35-.29h0A2.25,2.25,0,0,1,275.55,454.51Z"/><path class="cls-68" d="M315.91,476.93c12.39,9.55,10.75,37.75-.29,54.69-8.76,13.45-23.64,20.08-39.44,27.12a149.57,149.57,0,0,1-20.54,7.39,128.52,128.52,0,0,1-19.73-7c-12.28-5.52-27.66-12.41-37-25.89C187,516,184.3,487,196.55,477.24c11.26-9,24.69,6.71,59.09,6.72C290.52,484,304.13,467.85,315.91,476.93Z"/><path class="cls-69" d="M297.1,486a22.18,22.18,0,0,0-9.62,1c-1.27.3-2.34-.34-2.43-1.07a1.58,1.58,0,0,1,1-1.41,23.48,23.48,0,0,1,12.41-1.07c.11.07.73.45.73,1S298.33,485.91,297.1,486Z"/><path class="cls-69" d="M279.66,486.66h0a1.77,1.77,0,0,1,2.16-1.1h0a1.62,1.62,0,0,1,1.06,2.09h0a1.77,1.77,0,0,1-2.16,1.1h0A1.62,1.62,0,0,1,279.66,486.66Z"/><path class="cls-70" d="M288.24,737.34a5,5,0,0,0,1.69-3.6c0-3.1-3.26-5.65-7.25-5.65H268.87c-4,0-7.25,2.51-7.25,5.65a4.91,4.91,0,0,0,1.68,3.6,4.91,4.91,0,0,0-1.68,3.59,4.56,4.56,0,0,1,0,6c0,3.1,3.26,5.65,7.24,5.65h13.82c4,0,7.24-2.51,7.24-5.65a4.56,4.56,0,0,1,0-6A4.91,4.91,0,0,0,288.24,737.34Z"/><rect class="cls-71" x="259.61" y="747.19" width="32.35" height="16.91" rx="5.44"/><rect class="cls-72" x="259.61" y="748.78" width="32.35" height="16.91" rx="5.44"/><path class="cls-73" d="M279.5,750.05h4.85a1.07,1.07,0,0,1,1.08,1.07h0a1.07,1.07,0,0,1-1.08,1.07H279.5a1.06,1.06,0,0,1-1.07-1.07h0A1.07,1.07,0,0,1,279.5,750.05Z"/><path class="cls-73" d="M276.81,750.65h0a1.22,1.22,0,0,1-.65,1.6h0a1.21,1.21,0,0,1-1.59-.65h0a1.22,1.22,0,0,1,.65-1.6h0A1.21,1.21,0,0,1,276.81,750.65Z"/><path class="cls-74" d="M250.82,737.65a5,5,0,0,0,1.69-3.6c0-3.1-3.26-5.65-7.24-5.65H231.45c-4,0-7.24,2.51-7.24,5.65a4.94,4.94,0,0,0,1.67,3.6,4.89,4.89,0,0,0-1.68,3.59,4.75,4.75,0,0,0,1.13,3,4.65,4.65,0,0,0-1.13,3c0,3.09,3.26,5.65,7.25,5.65h13.81c4,0,7.24-2.51,7.24-5.65a4.65,4.65,0,0,0-1.13-3,4.81,4.81,0,0,0,1.13-3A4.91,4.91,0,0,0,250.82,737.65Z"/><rect class="cls-71" x="222.19" y="747.5" width="32.35" height="16.91" rx="5.44"/><rect class="cls-75" x="222.19" y="749.08" width="32.35" height="16.91" rx="5.44"/><path class="cls-73" d="M242.08,750.36h4.86a1.07,1.07,0,0,1,1.07,1.07h0a1.07,1.07,0,0,1-1.07,1.07h-4.86a1.07,1.07,0,0,1-1.07-1.07h0A1.07,1.07,0,0,1,242.08,750.36Z"/><path class="cls-73" d="M239.39,751h0a1.21,1.21,0,0,1-.65,1.59h0a1.21,1.21,0,0,1-1.59-.65h0a1.21,1.21,0,0,1,.65-1.59h0A1.21,1.21,0,0,1,239.39,751Z"/></svg>