<svg id="Layer_1" data-name="Layer 1" xmlns="http://www.w3.org/2000/svg" xmlns:xlink="http://www.w3.org/1999/xlink" width="516" height="838" viewBox="0 0 516 838"><defs><style>.cls-1{opacity:0.4;}.cls-2{fill:#1d1d1b;}.cls-3{fill:url(#radial-gradient);}.cls-4{fill:#d3a97d;}.cls-5{fill:url(#radial-gradient-2);}.cls-6{fill:#76614d;}.cls-7{fill:#010101;}.cls-8{fill:#fff;}.cls-9{fill:url(#radial-gradient-3);}.cls-10{fill:url(#radial-gradient-4);}.cls-11{fill:#d6999c;}.cls-12{fill:#d5999c;}.cls-13{fill:url(#radial-gradient-5);}.cls-14,.cls-17{fill:#25373f;}.cls-14{isolation:isolate;opacity:0.8;}.cls-15{fill:url(#linear-gradient);}.cls-16{fill:url(#linear-gradient-2);}.cls-18{fill:#364e5b;}.cls-19{fill:url(#radial-gradient-6);}.cls-20{fill:#59839c;}.cls-21{fill:url(#radial-gradient-7);}.cls-22{fill:#2f454f;}.cls-23{fill:url(#radial-gradient-8);}.cls-24{fill:url(#radial-gradient-9);}.cls-25{fill:url(#radial-gradient-10);}.cls-26{fill:url(#radial-gradient-11);}.cls-27{fill:#f4d494;}.cls-28{fill:url(#linear-gradient-3);}.cls-29{fill:url(#linear-gradient-4);}.cls-30{fill:#1d1e1c;}.cls-31{fill:url(#radial-gradient-12);}.cls-32{fill:#d2a87d;}.cls-33{fill:url(#radial-gradient-13);}.cls-34{fill:#351e1e;}.cls-35{fill:url(#radial-gradient-14);}.cls-36{fill:url(#radial-gradient-15);}.cls-37{fill:#d4989b;}.cls-38{fill:#d3989b;}.cls-39{fill:url(#radial-gradient-16);}.cls-40{fill:url(#radial-gradient-17);}.cls-41{fill:url(#radial-gradient-18);}.cls-42{fill:url(#radial-gradient-19);}.cls-43{fill:#d9e5ec;}.cls-44{fill:url(#radial-gradient-20);}.cls-45{fill:url(#radial-gradient-21);}.cls-46{fill:url(#radial-gradient-22);}.cls-47{fill:#5a839b;}.cls-48{fill:#597a86;}.cls-49{fill:url(#linear-gradient-5);}.cls-50{fill:url(#linear-gradient-6);}.cls-51{fill:url(#linear-gradient-7);}.cls-52{fill:url(#linear-gradient-8);}.cls-53{fill:url(#linear-gradient-9);}.cls-54{stroke:#fff;stroke-miterlimit:10;opacity:0.4;fill:url(#linear-gradient-10);}.cls-55{fill:#c6d5e1;}.cls-56{fill:url(#radial-gradient-23);}.cls-57{fill:url(#radial-gradient-24);}.cls-58{fill:url(#radial-gradient-25);}.cls-59{fill:url(#radial-gradient-26);}</style><radialGradient id="radial-gradient" cx="255.12" cy="-4907.47" r="55.08" gradientTransform="matrix(0.91, 0, 0, -0.9, 15.22, -4164.88)" gradientUnits="userSpaceOnUse"><stop offset="0" stop-color="#9ec9ed"/><stop offset="0.19" stop-color="#81a8ca"/><stop offset="0.43" stop-color="#6084a4"/><stop offset="0.65" stop-color="#496989"/><stop offset="0.85" stop-color="#3b5a78"/><stop offset="1" stop-color="#365472"/></radialGradient><radialGradient id="radial-gradient-2" cx="255.32" cy="-4775.23" r="68.06" gradientTransform="matrix(0.91, 0, 0, -0.9, 15.22, -4164.88)" gradientUnits="userSpaceOnUse"><stop offset="0" stop-color="#feecda"/><stop offset="0.15" stop-color="#f7e0c9"/><stop offset="0.67" stop-color="#e1bb94"/><stop offset="0.92" stop-color="#d9ac80"/></radialGradient><radialGradient id="radial-gradient-3" cx="546.84" cy="-4820.99" r="7.26" gradientTransform="matrix(0.91, 0.09, 0.09, -0.9, 244.14, -4247.36)" gradientUnits="userSpaceOnUse"><stop offset="0" stop-color="#fff"/><stop offset="0.11" stop-color="#d9e5f3"/><stop offset="0.24" stop-color="#b3cbe7"/><stop offset="0.37" stop-color="#93b5dd"/><stop offset="0.51" stop-color="#7aa4d5"/><stop offset="0.66" stop-color="#6998cf"/><stop offset="0.81" stop-color="#5e91cc"/><stop offset="1" stop-color="#5b8fcb"/></radialGradient><radialGradient id="radial-gradient-4" cx="-2023.46" cy="-5098.57" r="7.24" gradientTransform="matrix(-0.9, 0.09, -0.09, -0.89, -2075.52, -4244.64)" xlink:href="#radial-gradient-3"/><radialGradient id="radial-gradient-5" cx="253.38" cy="-4908.94" r="79.62" gradientTransform="matrix(0.91, 0, 0, -0.9, 15.22, -4164.88)" gradientUnits="userSpaceOnUse"><stop offset="0" stop-color="#59839c"/><stop offset="0.23" stop-color="#4b6e83"/><stop offset="0.5" stop-color="#405c6d"/><stop offset="0.76" stop-color="#385260"/><stop offset="1" stop-color="#364e5b"/></radialGradient><linearGradient id="linear-gradient" x1="-2107.67" y1="-4837.52" x2="-2058.63" y2="-4732.62" gradientTransform="translate(-1824.27 -4654.3) rotate(180)" gradientUnits="userSpaceOnUse"><stop offset="0" stop-color="#e9cba9"/><stop offset="1" stop-color="#937a51"/></linearGradient><linearGradient id="linear-gradient-2" x1="291.55" y1="-4890.91" x2="379.66" y2="-4752.37" gradientTransform="matrix(1, 0, 0, -1, -117.78, -4654.3)" gradientUnits="userSpaceOnUse"><stop offset="0" stop-color="#e9cba9"/><stop offset="0.27" stop-color="#e9cba9"/><stop offset="0.41" stop-color="#e4c7a4"/><stop offset="0.58" stop-color="#d7ba96"/><stop offset="0.75" stop-color="#c0a57f"/><stop offset="0.93" stop-color="#a1875f"/><stop offset="1" stop-color="#937a51"/></linearGradient><radialGradient id="radial-gradient-6" cx="257.35" cy="-4773.93" r="91.37" gradientTransform="matrix(0.91, 0, 0, -0.9, 15.22, -4164.88)" gradientUnits="userSpaceOnUse"><stop offset="0" stop-color="#59839c"/><stop offset="0.22" stop-color="#567e96"/><stop offset="0.52" stop-color="#4c7084"/><stop offset="0.87" stop-color="#3d5867"/><stop offset="1" stop-color="#364e5b"/></radialGradient><radialGradient id="radial-gradient-7" cx="12.39" cy="-4990.85" r="12.74" gradientTransform="matrix(1.17, 0, 0, -0.9, 253.31, -4164.88)" gradientUnits="userSpaceOnUse"><stop offset="0" stop-color="#59839c"/><stop offset="0.51" stop-color="#466679"/><stop offset="1" stop-color="#364e5b"/></radialGradient><radialGradient id="radial-gradient-8" cx="289.45" cy="-5009.34" r="11.74" gradientTransform="matrix(0.91, 0, 0, -0.9, 15.22, -4164.88)" xlink:href="#radial-gradient-7"/><radialGradient id="radial-gradient-9" cx="258.35" cy="-4990.85" r="12.74" gradientTransform="matrix(0.91, 0, 0, -0.9, 15.22, -4164.88)" xlink:href="#radial-gradient-7"/><radialGradient id="radial-gradient-10" cx="258.35" cy="-5009.34" r="11.74" gradientTransform="matrix(0.91, 0, 0, -0.9, 15.22, -4164.88)" xlink:href="#radial-gradient-7"/><radialGradient id="radial-gradient-11" cx="1162.93" cy="-5063.83" fx="1175.3733606888302" fy="-5045.553973324335" r="22.1" gradientTransform="matrix(0.83, 0.31, 0.32, -0.85, 890.89, -4388.93)" gradientUnits="userSpaceOnUse"><stop offset="0" stop-color="#edc95c"/><stop offset="0.38" stop-color="#dbb140"/><stop offset="1" stop-color="#c08d15"/></radialGradient><linearGradient id="linear-gradient-3" x1="-589.76" y1="315.57" x2="-547.53" y2="315.57" gradientTransform="matrix(0.91, -0.26, 0.3, 1.06, 700.29, -39.25)" gradientUnits="userSpaceOnUse"><stop offset="0" stop-color="#010202"/><stop offset="1" stop-color="#3f4b56"/></linearGradient><linearGradient id="linear-gradient-4" x1="-2973.98" y1="-263.34" x2="-2931.76" y2="-263.34" gradientTransform="matrix(-0.91, -0.26, -0.3, 1.06, -2529.57, -39.25)" gradientUnits="userSpaceOnUse"><stop offset="0" stop-color="#010202"/><stop offset="1" stop-color="#2c323c"/></linearGradient><radialGradient id="radial-gradient-12" cx="252.96" cy="644.43" r="103.83" gradientUnits="userSpaceOnUse"><stop offset="0" stop-color="#a3cde1"/><stop offset="1" stop-color="#374e5b"/></radialGradient><radialGradient id="radial-gradient-13" cx="253.15" cy="-5176.01" r="64.14" gradientTransform="matrix(1, 0, 0, -1, 0, -4656.19)" gradientUnits="userSpaceOnUse"><stop offset="0" stop-color="#fdebd9"/><stop offset="0.15" stop-color="#f6dfc8"/><stop offset="0.67" stop-color="#e0ba94"/><stop offset="0.92" stop-color="#d8ab80"/></radialGradient><radialGradient id="radial-gradient-14" cx="290.14" cy="511" r="6.75" gradientUnits="userSpaceOnUse"><stop offset="0" stop-color="#fff"/><stop offset="1"/></radialGradient><radialGradient id="radial-gradient-15" cx="215.77" cy="510.9" r="6.75" xlink:href="#radial-gradient-14"/><radialGradient id="radial-gradient-16" cx="252.03" cy="707.36" r="44.93" gradientUnits="userSpaceOnUse"><stop offset="0" stop-color="#c4d5e1"/><stop offset="0.49" stop-color="#3f4b56"/><stop offset="1" stop-color="#010202"/></radialGradient><radialGradient id="radial-gradient-17" cx="234.35" cy="716.98" r="11.17" xlink:href="#radial-gradient-16"/><radialGradient id="radial-gradient-18" cx="271.59" cy="716.98" r="11.17" xlink:href="#radial-gradient-16"/><radialGradient id="radial-gradient-19" cx="251.27" cy="636.35" r="70" xlink:href="#radial-gradient-16"/><radialGradient id="radial-gradient-20" cx="350.35" cy="1299.79" r="14.04" gradientTransform="translate(-69.92 -394.32) scale(0.92 0.82)" xlink:href="#radial-gradient-16"/><radialGradient id="radial-gradient-21" cx="204.66" cy="599.88" r="16.31" xlink:href="#radial-gradient-16"/><radialGradient id="radial-gradient-22" cx="-1877.43" cy="600.2" r="16.31" gradientTransform="matrix(-1, 0, 0, 1, -1576.68, 0)" xlink:href="#radial-gradient-16"/><linearGradient id="linear-gradient-5" x1="135.29" y1="663.69" x2="180.18" y2="663.69" xlink:href="#radial-gradient-16"/><linearGradient id="linear-gradient-6" x1="-1781.83" y1="666.58" x2="-1729.34" y2="666.58" gradientTransform="matrix(-1, 0, 0, 1, -1421.39, 0)" xlink:href="#radial-gradient-16"/><linearGradient id="linear-gradient-7" x1="-1888.92" y1="566.62" x2="-1888.21" y2="451.6" gradientTransform="matrix(-1, 0, 0, 1, -1672.82, 0)" gradientUnits="userSpaceOnUse"><stop offset="0.01" stop-color="#570005"/><stop offset="0.02" stop-color="#680005"/><stop offset="0.04" stop-color="#8e0005"/><stop offset="0.06" stop-color="#ab0005"/><stop offset="0.08" stop-color="#c00005"/><stop offset="0.09" stop-color="#cd0005"/><stop offset="0.11" stop-color="#d10005"/><stop offset="0.26" stop-color="#bc0005"/><stop offset="0.58" stop-color="#850005"/><stop offset="1" stop-color="#330106"/></linearGradient><linearGradient id="linear-gradient-8" x1="101.44" y1="561.23" x2="113.54" y2="449.26" gradientTransform="translate(180.65)" xlink:href="#linear-gradient-7"/><linearGradient id="linear-gradient-9" x1="165.88" y1="574.54" x2="319.83" y2="574.54" gradientTransform="translate(7.47 -48.23) scale(1.01 0.98)" gradientUnits="userSpaceOnUse"><stop offset="0" stop-color="#080c0f"/><stop offset="0.33" stop-color="#38434d"/><stop offset="0.49" stop-color="#bccdd9"/><stop offset="0.69" stop-color="#3f4b56"/><stop offset="1" stop-color="#010202"/></linearGradient><linearGradient id="linear-gradient-10" x1="188.44" y1="516.77" x2="331.41" y2="513.46" gradientTransform="matrix(1, 0, 0, 1, 0, 0)" xlink:href="#linear-gradient-9"/><radialGradient id="radial-gradient-23" cx="96.77" cy="-5399.74" r="12.01" gradientTransform="matrix(1.29, 0, 0, -1, 149.99, -4656.19)" gradientUnits="userSpaceOnUse"><stop offset="0" stop-color="#5a839b"/><stop offset="0.51" stop-color="#486679"/><stop offset="1" stop-color="#374e5b"/></radialGradient><radialGradient id="radial-gradient-24" cx="285.96" cy="-5417.16" r="11.06" gradientTransform="matrix(1, 0, 0, -1, 0, -4656.19)" xlink:href="#radial-gradient-23"/><radialGradient id="radial-gradient-25" cx="66.84" cy="-5400.05" r="12.01" xlink:href="#radial-gradient-23"/><radialGradient id="radial-gradient-26" cx="247.36" cy="-5417.48" r="11.06" gradientTransform="matrix(1, 0, 0, -1, 0, -4656.19)" xlink:href="#radial-gradient-23"/></defs><g id="Layer_2" data-name="Layer 2"><g class="cls-1"><ellipse class="cls-2" cx="252.38" cy="367.23" rx="63.85" ry="5.36"/></g></g><g id="Layer_5" data-name="Layer 5"><path d="M200.9,125.67h93a7.47,7.47,0,0,1,7.51,7.44v86.26a7.48,7.48,0,0,1-7.51,7.45h-93a7.48,7.48,0,0,1-7.51-7.45V133.11A7.47,7.47,0,0,1,200.9,125.67Z"/></g><g id="Layer_1-2" data-name="Layer 1"><path d="M225.86,363.15l-13-47.09a3.88,3.88,0,0,1,2.64-4.82,3.76,3.76,0,0,1,.94-.15l24.35-.95a4.18,4.18,0,0,1,4.31,4.05,3.88,3.88,0,0,1-.1,1l-11.42,48.05C232.69,367.28,227,367.2,225.86,363.15Z"/><path d="M269.16,362.07,282,315.23a3.85,3.85,0,0,0-2.6-4.8,4,4,0,0,0-1-.17l-24.21-.92a4.16,4.16,0,0,0-4.29,4,4,4,0,0,0,.1,1l11.35,47.79C262.39,366.17,268.06,366.09,269.16,362.07Z"/><path class="cls-3" d="M218.65,216H276.1A20.13,20.13,0,0,1,296.3,236v61.72a20.13,20.13,0,0,1-20.2,20.05H218.65a20.13,20.13,0,0,1-20.2-20.05V236A20.13,20.13,0,0,1,218.65,216Z"/><path class="cls-4" d="M166,285.35l19.17-46.63a3.88,3.88,0,0,1,5-2.29,3.79,3.79,0,0,1,1,.52L211,251.61a4.37,4.37,0,0,1,.79,6.17,4.92,4.92,0,0,1-.63.66l-39.05,31.94C168.81,293.05,164.33,289.35,166,285.35Z"/><path class="cls-4" d="M327.88,285.16,307.71,237.1a4.13,4.13,0,0,0-5.31-2.37,3.75,3.75,0,0,0-.95.5l-20.92,15.15a4.45,4.45,0,0,0-.89,6.27,4.7,4.7,0,0,0,.73.75l41.07,33C324.9,293.1,329.61,289.3,327.88,285.16Z"/><path class="cls-4" d="M244.32,195.59h10.13a6.8,6.8,0,0,1,6.82,6.77v9a6.8,6.8,0,0,1-6.82,6.77H244.32a6.8,6.8,0,0,1-6.82-6.77v-9A6.8,6.8,0,0,1,244.32,195.59Z"/><path class="cls-5" d="M268.91,205.22c-10.79.44-31.62.05-42.76-.48-24.87-1.18-48.46-20.06-43.11-46.07a143,143,0,0,0,2.32-24.93c-.24-25.71,15.79-44,42.49-44.22,12-.08,29.8.4,42.88.39,29.2,0,45.46,20.55,40.86,48.64-1.21,7.35-.41,15.91.73,22.41C316.66,185.77,293,204.22,268.91,205.22Z"/><path class="cls-6" d="M196.72,130.19a2,2,0,0,1-.63-1.49c.12-.25.25-.5.38-.74.33-.57.77-1.09,1.14-1.65l.4-.43c6.44-7.22,19.18-4.58,27.58-2.49,2.12.54,2.86,1.25,2.83,3.06s-1.87,2.41-3.42,2.1c-5.67-1.16-20.15-3.85-25.69.07A22.58,22.58,0,0,0,196.72,130.19Z"/><path class="cls-6" d="M298.39,130.19a2,2,0,0,0,.63-1.49c-.12-.25-.24-.5-.38-.74-.33-.57-.77-1.09-1.14-1.65l-.4-.43c-6.43-7.22-19.18-4.58-27.58-2.49-2.12.54-2.86,1.25-2.83,3.06s1.87,2.41,3.42,2.1c5.67-1.16,20.16-3.85,25.69.07A23.48,23.48,0,0,1,298.39,130.19Z"/><path class="cls-7" d="M241.71,147H253.4a1.32,1.32,0,0,1,1.32,1.31v1.22a1.31,1.31,0,0,1-1.32,1.31H241.71a1.31,1.31,0,0,1-1.32-1.31v-1.22A1.32,1.32,0,0,1,241.71,147Z"/><ellipse class="cls-2" cx="283.28" cy="139.88" rx="9.19" ry="9.12"/><ellipse class="cls-8" cx="285.91" cy="138.45" rx="3.32" ry="2.84"/><ellipse class="cls-8" cx="281.4" cy="144.07" rx="2.31" ry="1.97"/><path class="cls-9" d="M274.58,136.61a9.66,9.66,0,0,1,5.3-5.49c4.38-1.66,9.27.67,11.3,3.83a7.36,7.36,0,0,1,.79,1.65Z"/><path class="cls-2" d="M274.58,136.58c5.43-2.71,9.29-2.66,11.82-2.1,2.7.62,5.63,2.17,9.1,1.05a8.91,8.91,0,0,0,2.74-1.45,7.07,7.07,0,0,1-2.51,3.23c-2.6,1.74-5.67.73-10.77,0A73.62,73.62,0,0,0,274.58,136.58Z"/><ellipse class="cls-2" cx="211.46" cy="139.78" rx="9.19" ry="9.12"/><ellipse class="cls-8" cx="214.34" cy="138.18" rx="3.32" ry="2.84"/><ellipse class="cls-8" cx="209.15" cy="143.97" rx="2.31" ry="1.97"/><path class="cls-10" d="M220.16,136.52a9.71,9.71,0,0,0-5.3-5.5c-4.38-1.66-9.28.67-11.31,3.84a7.05,7.05,0,0,0-.78,1.64Z"/><path class="cls-2" d="M220.16,136.48c-5.44-2.71-9.29-2.66-11.83-2.09-2.69.62-5.63,2.16-9.1,1.05A9.1,9.1,0,0,1,196.5,134a6.93,6.93,0,0,0,2.5,3.23c2.61,1.75,5.67.73,10.77,0A73.65,73.65,0,0,1,220.16,136.48Z"/><ellipse class="cls-11" cx="206.84" cy="156.59" rx="10.63" ry="6.36"/><ellipse class="cls-12" cx="287.65" cy="156.59" rx="9.98" ry="6.36"/></g><g id="Layer_6" data-name="Layer 6"><path class="cls-13" d="M164.06,275.74c-2.59-7.6,2.42-15.21,2.7-15.64,3.4-5,6.93-4.59,8.55-8.93,2.14-5.71-3.23-8.45-1.8-14.27,1.29-5.24,6.13-5.2,17.1-15.19,5.8-5.28,4.54-5.38,7.66-7.59,7.5-5.36,20.77-9,28.35-3.58,7.31,5.25,3.6,14.84,11.26,19.21,5.81,3.32,13.13.75,15.3,0,12.85-4.5,12.09-16.27,22.95-19.21,9.48-2.56,19.22,3.92,22.06,5.81a29.37,29.37,0,0,1,10.35,10.71c3.88,7.32,1.37,11.51,5.85,16.53,3.76,4.22,6.55,2.42,9.45,6.7,1.88,2.75,1.38,4.26,2.7,14.28,1.37,10.38,2.25,10.92,1.35,13.4-2,5.59-9.2,10.23-15.3,9.38-9.58-1.36-14.18-15.92-15.75-15.19-1.42.66,4.51,11.6,4.5,26.8,0,8.07,0,12.07-2.25,15.63-6.08,9.66-20.51,5.22-51.76,8.93-26.16,3.11-33.51,8.3-41.86,2.24-9-6.52-10.54-19.87-11.25-25.91-1.54-13.16,4.4-24.56,3.12-25-1.07-.38-2.76,8.65-9.45,11.61C180.38,289.8,167.25,285.09,164.06,275.74Z"/><path class="cls-14" d="M264.33,258.84a40.66,40.66,0,0,1-2.67,15c-1,2.42-4,9.81-10.87,14-10.22,6.21-21,.55-22.72-.37,5,1.12,12.46,1.59,19.12-3,5-3.44,8.13-8.69,11.82-15A88.53,88.53,0,0,0,264.33,258.84Z"/></g><g id="Layer_3" data-name="Layer 3"><path class="cls-15" d="M247.24,75.33c-1.76,10.55-2.06,23.32,5.47,30.2,10,9.17,24.7-.45,38.09,9,10.66,7.51,15.47,23.58,13.17,36.12-3.31,18-18.67,17.26-28.29,39.48-1.77,4.11-11.26,26.92-1.2,44.87,6.83,12.24,15.14,13.65,15.12,22.72,0,10.64-12.47,12.26-18.14,29.49-1.53,4.64-4.94,15,.53,23.7,4.46,7.06,12.42,9.27,15.39,9.93-5.15-6.83-10.26-15.7-7.19-22.14,2-4.14,6.11-4.67,10.92-7.28,15.14-8.22,23.76-29.91,22.69-46.51-.91-13.88-7.76-17.38-5.44-28.56,1.82-8.79,7.5-9,14.18-18.77,17.93-26.16,5.42-65.68,2.3-75.55-1-3-2.11-6.09-2.11-6.09-1-2.72-5.55-14.46-11.26-22.52-2.18-3.11-12.27-17.46-31.16-21.81C264.89,68,252.08,73.11,247.24,75.33Z"/><path class="cls-16" d="M247.74,75.33c1.77,10.55,2.06,23.32-5.46,30.2-10,9.17-24.7-.45-38.09,9C193.52,122,188.72,138.09,191,150.63c3.29,18,18.67,17.26,28.27,39.48,1.78,4.11,11.26,26.92,1.22,44.87-6.26,11.17-16.27,14.64-15.13,22.72,1,7.19,9.38,7.14,12.71,16.32,3.59,9.85-2.21,20.4-5.73,26.81a55.56,55.56,0,0,1-18.52,19.69,46.75,46.75,0,0,0,9.81-21.18c.88-5,2.18-12.41-1.38-19.71-3-6.2-6.46-6-11.88-12.81-.51-.62-7.77-9.93-9.19-21.94-1.51-12.73,5.48-16.28,5.44-28.55,0-10.62-4.24-12.16-10.69-29.39-1-2.56-13.76-37.83-5.78-64.93.89-3,2-5.93,2.11-6.09,1.38-3.46,5.8-13.73,17.23-25.51,9.89-10.19,15.49-16,25.15-18.82C229.07,67.34,242.22,72.66,247.74,75.33Z"/></g><g id="Layer_4" data-name="Layer 4"><path class="cls-17" d="M188.85,221.44H300.44a5.21,5.21,0,0,1,5.23,5.19v6.26a5.21,5.21,0,0,1-5.23,5.19H188.85a5.21,5.21,0,0,1-5.22-5.19v-6.26A5.2,5.2,0,0,1,188.85,221.44Z"/><path class="cls-18" d="M188.85,219.88H300.44a5.21,5.21,0,0,1,5.23,5.19v6.25a5.21,5.21,0,0,1-5.23,5.19H188.85a5.2,5.2,0,0,1-5.22-5.19v-6.25A5.2,5.2,0,0,1,188.85,219.88Z"/><path class="cls-19" d="M255.79,228.19a143.21,143.21,0,0,0,40.1-35.53c8.76-11.45,20.7-27.45,20.15-48.06,0-.87-.06-1.55-.08-1.86a68.47,68.47,0,0,0-20.33-41.05C275.18,81.94,233,75.23,205.12,97.83c-24,19.45-23.73,49.54-23.68,51.7.63,25.06,16.5,41.3,26.6,51.64a108.86,108.86,0,0,0,43.62,27h-28c-7.87.8-19.73.67-30.79-5.69-27.12-15.63-26.89-55.83-26.81-70.14.09-16.61.25-44.75,20-65.25,33-34.3,103.24-29,131.57,6.83,14,17.67,14.56,38.72,15.08,57.46.5,17.55,1.46,51.26-21.47,67.81-9.74,7-20.64,8.69-28.14,8.95Z"/><path class="cls-17" d="M187.72,209.35l113.94,12.23a4.87,4.87,0,0,1,4.35,5.36l-.63,5.84a4.9,4.9,0,0,1-5.41,4.31L186,224.87a4.87,4.87,0,0,1-4.35-5.36l.63-5.84A4.91,4.91,0,0,1,187.72,209.35Z"/><path class="cls-18" d="M188.92,205.24l121,13a5.62,5.62,0,0,1,5,6.19l-.73,6.73a5.66,5.66,0,0,1-6.24,5l-121-13a5.63,5.63,0,0,1-5-6.19l.74-6.74A5.65,5.65,0,0,1,188.92,205.24Z"/><path class="cls-17" d="M233.53,216.69,318,201.11a4.39,4.39,0,0,1,5.12,3.5l1,5.16a4.36,4.36,0,0,1-3.52,5.09l-84.45,15.58A4.4,4.4,0,0,1,231,227l-1-5.17A4.38,4.38,0,0,1,233.53,216.69Z"/><path class="cls-18" d="M317,213.75l-80.55,14.86a7.06,7.06,0,0,1-8.26-5.59l-1.31-7c-.71-3.81,28.69-6.76,44-9.25A144.19,144.19,0,0,0,313.05,193a7.31,7.31,0,0,1,5.31,1.11,7,7,0,0,1,2.95,4.5l1.31,7A7,7,0,0,1,317,213.75Z"/><path class="cls-14" d="M322.36,164.48a62.55,62.55,0,0,1-4.1,23.08c-1.46,3.73-6.08,15.05-16.69,21.47-15.68,9.49-32.25.85-34.86-.57,7.72,1.73,19.12,2.44,29.34-4.54,7.72-5.27,12.47-13.37,18.14-23A137.5,137.5,0,0,0,322.36,164.48Z"/><path class="cls-14" d="M178.34,166.9a62.55,62.55,0,0,0,4.1,23.08c1.46,3.73,6.08,15.06,16.69,21.47,15.68,9.49,32.25.85,34.86-.57-7.71,1.73-19.12,2.44-29.34-4.53-7.72-5.28-12.47-13.37-18.14-23.06A136,136,0,0,1,178.34,166.9Z"/><path class="cls-20" d="M322,251.69c2,.29,2.43,6.17,2.5,6.92.45,3.92.05,7.19-.89,7.29-.46.05-.57-1.29-2.5-6.91-1.1-3.19-1.78-4.81-.92-6.15C320.56,252.28,321.29,251.56,322,251.69Z"/><ellipse class="cls-20" cx="324.09" cy="269.25" rx="0.81" ry="1.23" transform="translate(-28.7 38.88) rotate(-6.58)"/><path class="cls-20" d="M171.45,257.76c-2,0-3.39,5.7-3.6,6.42-1.08,3.8-1.25,7.09-.3,7.35.45.12.77-1.19,3.6-6.42,1.61-3,2.54-4.47,1.91-5.92C172.81,258.6,172.2,257.78,171.45,257.76Z"/><ellipse class="cls-20" cx="166.57" cy="274.81" rx="1.23" ry="0.81" transform="translate(-143.58 358.89) rotate(-73.95)"/><path class="cls-21" d="M278.48,339.21a4.87,4.87,0,0,0,1.67-3.55c0-3.07-3.24-5.59-7.21-5.59H259.18c-4,0-7.22,2.48-7.22,5.59a4.9,4.9,0,0,0,1.67,3.55,4.87,4.87,0,0,0-1.67,3.55,4.66,4.66,0,0,0,1.12,3,4.63,4.63,0,0,0-1.12,3c0,3.06,3.24,5.59,7.22,5.59h13.76c4,0,7.21-2.48,7.21-5.59a4.7,4.7,0,0,0-1.13-3,4.73,4.73,0,0,0,1.13-3A4.87,4.87,0,0,0,278.48,339.21Z"/><path class="cls-22" d="M255.37,349h21.39a5.4,5.4,0,0,1,5.42,5.38v6a5.4,5.4,0,0,1-5.42,5.38H255.37a5.39,5.39,0,0,1-5.41-5.38v-6A5.39,5.39,0,0,1,255.37,349Z"/><path class="cls-23" d="M255.37,350.52h21.39a5.39,5.39,0,0,1,5.42,5.37v6a5.39,5.39,0,0,1-5.42,5.37H255.37a5.39,5.39,0,0,1-5.41-5.37v-6A5.39,5.39,0,0,1,255.37,350.52Z"/><path class="cls-24" d="M242.11,339.21a4.87,4.87,0,0,0,1.67-3.55c0-3.07-3.24-5.59-7.21-5.59H222.81c-4,0-7.22,2.48-7.22,5.59a4.88,4.88,0,0,0,1.68,3.55,4.84,4.84,0,0,0-1.68,3.55,4.73,4.73,0,0,0,1.13,3,4.7,4.7,0,0,0-1.13,3c0,3.06,3.25,5.59,7.22,5.59h13.76c4,0,7.21-2.48,7.21-5.59a4.63,4.63,0,0,0-1.12-3,4.66,4.66,0,0,0,1.12-3A4.87,4.87,0,0,0,242.11,339.21Z"/><path class="cls-22" d="M219,349h21.39a5.4,5.4,0,0,1,5.42,5.38v6a5.4,5.4,0,0,1-5.42,5.38H219a5.39,5.39,0,0,1-5.41-5.38v-6A5.39,5.39,0,0,1,219,349Z"/><path class="cls-25" d="M219,350.52h21.39a5.39,5.39,0,0,1,5.42,5.37v6a5.39,5.39,0,0,1-5.42,5.37H219a5.39,5.39,0,0,1-5.41-5.37v-6A5.39,5.39,0,0,1,219,350.52Z"/><path class="cls-26" d="M219.39,238.08a15.64,15.64,0,0,1,9.69,11.55,8.59,8.59,0,0,1,6.37,3.1,9,9,0,0,1,1.81,6.61,11.27,11.27,0,0,1,7,.24,11.07,11.07,0,0,1,4.57,3.24,8.22,8.22,0,0,1,9.68-7,8.1,8.1,0,0,1,2.5-5.28,7.76,7.76,0,0,1,5.56-2.08,12.28,12.28,0,0,1,9.22-10.39c1.25,3.89.35,7.89-2.31,10.09a8.33,8.33,0,0,1-4.95,1.8,9.27,9.27,0,0,1-2.62,5,9,9,0,0,1-5.21,2.49,12.42,12.42,0,0,1-5.44,6.72,12.28,12.28,0,0,1-6.46,1.62,10.65,10.65,0,0,1-6.15-.14,10.76,10.76,0,0,1-5.82-4.85,8.87,8.87,0,0,1-6.69-1.91,9.24,9.24,0,0,1-3.09-7,10.21,10.21,0,0,1-5.9-3.22C217.26,244.25,219.3,238.32,219.39,238.08Z"/><path class="cls-27" d="M257.32,257.57a7.88,7.88,0,0,0-2.21.69,8,8,0,0,0-1.62,1,.85.85,0,0,1-1.18-.17l0,0a.74.74,0,0,1,.15-.79,8.8,8.8,0,0,1,5-2.1.73.73,0,0,1,.49.38A.86.86,0,0,1,257.32,257.57Z"/><path class="cls-27" d="M249.92,257.8v-.09a.79.79,0,0,1,.73-.86h.1a.8.8,0,0,1,.87.72v.09a.81.81,0,0,1-.73.87h-.09A.81.81,0,0,1,249.92,257.8Z"/><path class="cls-27" d="M235.06,257.14a8.18,8.18,0,0,0-1.05-2.06,8.43,8.43,0,0,0-1.25-1.42.82.82,0,0,1,0-1.17l0,0a.8.8,0,0,1,.82,0A8.86,8.86,0,0,1,236.5,257a.76.76,0,0,1-.3.54A.89.89,0,0,1,235.06,257.14Z"/><path class="cls-27" d="M230.74,250.59l.1,0a.8.8,0,0,1,1,.57l0,.09a.79.79,0,0,1-.57,1l-.09,0a.8.8,0,0,1-1-.57l0-.09A.8.8,0,0,1,230.74,250.59Z"/><path class="cls-20" d="M265.81,351.63h4.83a1.06,1.06,0,0,1,1.07,1.06h0a1.06,1.06,0,0,1-1.07,1.05h-4.83a1.06,1.06,0,0,1-1.07-1.05h0A1.06,1.06,0,0,1,265.81,351.63Z"/><path class="cls-20" d="M263.13,352.22h0a1.2,1.2,0,0,1-.65,1.58h0a1.22,1.22,0,0,1-1.59-.65h0a1.19,1.19,0,0,1,.65-1.57h0A1.22,1.22,0,0,1,263.13,352.22Z"/><path class="cls-20" d="M228.51,351.63h4.83a1.06,1.06,0,0,1,1.07,1.06h0a1.05,1.05,0,0,1-1.07,1.05h-4.83a1.06,1.06,0,0,1-1.07-1.05h0A1.06,1.06,0,0,1,228.51,351.63Z"/><path class="cls-20" d="M225.83,352.22h0a1.2,1.2,0,0,1-.65,1.58h0a1.22,1.22,0,0,1-1.59-.65h0a1.21,1.21,0,0,1,.65-1.57h0A1.22,1.22,0,0,1,225.83,352.22Z"/><path class="cls-20" d="M286.27,82.58a34.54,34.54,0,0,0-14.3-6c-2-.55-3-2.29-2.62-3.42a2.49,2.49,0,0,1,2.44-1.3,37.09,37.09,0,0,1,18.32,8,2.37,2.37,0,0,1,.26,2C289.86,82.91,288.09,83.37,286.27,82.58Z"/><path class="cls-20" d="M261.18,70.08h0a2.75,2.75,0,0,1,3.87.08h0A2.7,2.7,0,0,1,265,74h0a2.75,2.75,0,0,1-3.87-.08h0A2.71,2.71,0,0,1,261.18,70.08Z"/><path class="cls-20" d="M306.51,220.6,295.9,222c-1.28.16-2.27,1-2.19,2h0c.08.91,1.2,1.52,2.51,1.36l10.58-1.36c1.29-.16,2.28-1,2.19-2h0C308.91,221,307.79,220.43,306.51,220.6Z"/><path class="cls-20" d="M290.16,224.1h0a2.39,2.39,0,0,0-3-.71h0a1.82,1.82,0,0,0-1.08,2.54h0a2.39,2.39,0,0,0,3,.72h0A1.83,1.83,0,0,0,290.16,224.1Z"/></g><path class="cls-28" d="M262.84,450,289.28,411c.88-1.31,2.77-.79,3.25.88l14.61,51.29c.44,1.56-.7,3-2.08,2.55l-41-12.23A2.35,2.35,0,0,1,262.84,450Z"/><path class="cls-29" d="M243.11,450,216.68,411c-.89-1.31-2.78-.79-3.26.88l-14.61,51.29c-.44,1.56.7,3,2.08,2.55l41-12.23A2.35,2.35,0,0,0,243.11,450Z"/><g id="Layer_2-2" data-name="Layer 2"><g class="cls-1"><ellipse class="cls-30" cx="252.5" cy="768.38" rx="66.13" ry="5.6"/></g></g><rect x="231.29" y="583.11" width="49.34" height="11.98"/><rect class="cls-31" x="202.29" y="591.31" width="101.34" height="106.26" rx="20.92"/><path class="cls-32" d="M168.66,663.73l19.86-48.66a4,4,0,0,1,5.14-2.4,4.27,4.27,0,0,1,1,.54l20.58,15.3a4.61,4.61,0,0,1,.82,6.45,4.66,4.66,0,0,1-.65.68L175,669C171.59,671.76,167,667.91,168.66,663.73Z"/><path class="cls-32" d="M336.34,663.53l-20.89-50.16a4.26,4.26,0,0,0-5.5-2.47,4.38,4.38,0,0,0-1,.52L287.3,627.23a4.68,4.68,0,0,0-.17,7.33l42.55,34.38C333.26,671.82,338.14,667.85,336.34,663.53Z"/><path class="cls-32" d="M249.8,570.9h10.49a7.28,7.28,0,0,1,7.06,7.48v10a7.28,7.28,0,0,1-7.06,7.49H249.8a7.28,7.28,0,0,1-7.06-7.49v-10A7.28,7.28,0,0,1,249.8,570.9Z"/><path class="cls-33" d="M275.27,580.1c-11.18.46-32.75,0-44.29-.5-25.76-1.23-50.19-20.93-44.64-48.08a152.66,152.66,0,0,0,2.4-26c-.25-26.83,16.34-45.95,44-46.15,12.4-.09,30.87.42,44.42.41,30.24,0,47.08,21.45,42.31,50.76-1.25,7.67-.42,16.61.75,23.39C324.72,559.8,300.21,579.05,275.27,580.1Z"/><path class="cls-34" d="M200.5,507.45a2.15,2.15,0,0,1-.65-1.56,8,8,0,0,1,.4-.77c.34-.6.79-1.14,1.17-1.72l.42-.45c6.67-7.53,19.86-4.78,28.57-2.59,2.19.55,3,1.29,2.93,3.18s-2,2.52-3.55,2.19c-5.87-1.21-20.87-4-26.61.08A23.72,23.72,0,0,0,200.5,507.45Z"/><path class="cls-34" d="M305.81,507.45a2.14,2.14,0,0,0,.64-1.56,7.94,7.94,0,0,0-.39-.77c-.35-.6-.79-1.14-1.17-1.72l-.42-.45c-6.66-7.53-19.87-4.78-28.57-2.59-2.19.55-3,1.29-2.93,3.18s1.94,2.52,3.54,2.19c5.87-1.21,20.88-4,26.61.08A25.4,25.4,0,0,1,305.81,507.45Z"/><rect class="cls-7" x="245.73" y="524.97" width="14.84" height="4.01" rx="1.37"/><circle class="cls-30" cx="290.15" cy="517.56" r="9.52"/><ellipse class="cls-8" cx="292.88" cy="516.07" rx="3.44" ry="2.97"/><ellipse class="cls-8" cx="288.2" cy="521.93" rx="2.39" ry="2.06"/><path class="cls-35" d="M281.14,514.15a10.1,10.1,0,0,1,5.49-5.73c4.54-1.74,9.61.69,11.71,4a7.66,7.66,0,0,1,.81,1.71Z"/><path class="cls-30" d="M281.14,514.12c5.63-2.84,9.62-2.78,12.25-2.19,2.79.64,5.83,2.26,9.42,1.09a8.91,8.91,0,0,0,2.83-1.52,7.29,7.29,0,0,1-2.59,3.38c-2.7,1.82-5.87.76-11.15,0A74.57,74.57,0,0,0,281.14,514.12Z"/><circle class="cls-30" cx="215.77" cy="517.46" r="9.52"/><ellipse class="cls-8" cx="218.75" cy="515.79" rx="3.44" ry="2.97"/><ellipse class="cls-8" cx="213.38" cy="521.83" rx="2.39" ry="2.06"/><path class="cls-36" d="M224.78,514.05a10.09,10.09,0,0,0-5.5-5.73c-4.53-1.74-9.6.7-11.7,4a7.69,7.69,0,0,0-.82,1.71Z"/><path class="cls-30" d="M224.78,514c-5.64-2.84-9.63-2.79-12.26-2.19-2.78.65-5.83,2.26-9.42,1.09a9.41,9.41,0,0,1-2.83-1.51,7.31,7.31,0,0,0,2.59,3.37c2.7,1.82,5.88.76,11.16,0A74.47,74.47,0,0,1,224.78,514Z"/><ellipse class="cls-37" cx="211.33" cy="535.62" rx="11.01" ry="6.63"/><ellipse class="cls-38" cx="295.02" cy="535.62" rx="10.34" ry="6.63"/><path class="cls-39" d="M300.75,683.85a17.27,17.27,0,0,0-17.27-17.27h-62.9A17.27,17.27,0,0,0,218.69,701l12,43.9c1.15,4.23,7.08,4.31,8,.12l10.36-43.92h8.35l10.08,42.79c1,4.17,6.88,4.08,8-.11l11.76-43.1A17.29,17.29,0,0,0,300.75,683.85Z"/><rect x="270.24" y="688.72" width="2.7" height="43.83" transform="translate(36.51 -12.9) rotate(2.92)"/><rect x="233.45" y="688.88" width="2.7" height="45.19" transform="translate(505.5 1410.08) rotate(177.08)"/><circle class="cls-40" cx="234.35" cy="716.98" r="11.17"/><circle class="cls-41" cx="271.59" cy="716.98" r="11.17"/><path class="cls-42" d="M167.82,650.49l18.85,16.29L200.47,649a98.85,98.85,0,0,1-3.17,38l48.89,2.63,7-6.83,6.92,6,49.72-.33a100.24,100.24,0,0,1-3-37.36q6.45,9.18,12.88,18.37l15-15.63-27.87-62.27-21.39-2.13-4.84-6.31-27,23.22-22.38-23.22q-2.78,3.61-5.54,7.25L201.53,592Q184.67,621.24,167.82,650.49Z"/><rect class="cls-43" x="251.96" y="605.79" width="2" height="77.3"/><path class="cls-43" d="M169.8,652.55l-1-1.22q16.43-28.17,32.84-56.36l.89.51Z"/><rect class="cls-43" x="202.1" y="591.85" width="2" height="22.43" transform="translate(-30.41 11.11) rotate(-2.92)"/><path class="cls-43" d="M333.13,655.63l1.06-1.1q-13.92-28.63-27.85-57.26l-.9.43Z"/><rect class="cls-43" x="304.2" y="591.36" width="2" height="22.43" transform="translate(579.36 1219.89) rotate(-177.08)"/><rect class="cls-43" x="202.66" y="613.65" width="1" height="73.64"/><rect class="cls-43" x="303.63" y="613.29" width="1" height="75.19"/><rect class="cls-44" x="235.24" y="669.92" width="35.45" height="8.12"/><path class="cls-45" d="M222.63,609.24c-2.44,10-38.8,1.2-36.36-8.84a18.71,18.71,0,1,1,36.36,8.84Z"/><path class="cls-46" d="M282.78,609.55c2.44,10,38.8,1.2,36.36-8.84a18.71,18.71,0,1,0-36.36,8.84Z"/><path class="cls-47" d="M311.92,595a14,14,0,0,0-2.84-2.2,13.36,13.36,0,0,0-2.66-1.17,1.39,1.39,0,0,1-.89-1.67,1,1,0,0,1,1.05-.47,14.49,14.49,0,0,1,7,4.47,1.11,1.11,0,0,1,0,.93A1.22,1.22,0,0,1,311.92,595Z"/><path class="cls-47" d="M302.36,588.17h0a1.05,1.05,0,0,1,1.57.21h0a1.32,1.32,0,0,1-.23,1.73h0a1.05,1.05,0,0,1-1.57-.22h0A1.31,1.31,0,0,1,302.36,588.17Z"/><path class="cls-47" d="M191.92,594.6a1.13,1.13,0,0,1,0-.93,14.47,14.47,0,0,1,7-4.47,1,1,0,0,1,1.06.47,1.39,1.39,0,0,1-.89,1.67,13.36,13.36,0,0,0-2.66,1.17,14,14,0,0,0-2.84,2.2A1.24,1.24,0,0,1,191.92,594.6Z"/><path class="cls-47" d="M203.42,589.64h0a1.05,1.05,0,0,1-1.57.22h0a1.32,1.32,0,0,1-.23-1.73h0a1.05,1.05,0,0,1,1.57-.21h0A1.32,1.32,0,0,1,203.42,589.64Z"/><polygon points="297.61 632.44 296.35 631.18 279.43 648.1 279.54 648.21 277.49 688.6 279.21 688.68 281.24 648.81 297.61 632.44"/><polygon points="209.89 632.44 211.15 631.18 228.06 648.1 227.95 648.21 230.01 688.6 228.28 688.68 226.25 648.81 209.89 632.44"/><rect x="285.81" y="649.33" width="2.7" height="39.14"/><rect x="219.95" y="648.93" width="2.7" height="39.14"/><polygon class="cls-48" points="244.49 608.59 248.82 613.15 253.15 605.79 244.49 608.59"/><polygon class="cls-43" points="243.83 608.4 248.16 612.64 252.5 605.79 243.83 608.4"/><path class="cls-49" d="M163.57,655.72l-14.95,8.33a3.81,3.81,0,0,0-2.25,3.48,4,4,0,0,0,4.41,3.39l6.84-2.9-7.11,9.87a4,4,0,0,0-.22,4.14c1,1.68,3.66,2.32,5.87,1q4.22-4.34,8.45-8.66L162,685.41a3.38,3.38,0,0,0,6.49,1.72l5.86-11.57,2.79,9.64a3.75,3.75,0,0,0,2.92,1.84,3.67,3.67,0,0,0,3.5-3.23l-2.1-13.36,17.37-11.25-27.51-21.12Z"/><path class="cls-50" d="M343.23,658.61l15,8.33a3.78,3.78,0,0,1,2.24,3.48,4,4,0,0,1-4.4,3.39l-6.85-2.9,7.12,9.87a4,4,0,0,1,.22,4.14,4.29,4.29,0,0,1-5.87,1l-8.46-8.66q1.31,5.53,2.59,11.07a3.55,3.55,0,0,1-2.94,3.87,3.51,3.51,0,0,1-3.56-2.15q-2.92-5.79-5.86-11.57-1.4,4.81-2.78,9.64a3.79,3.79,0,0,1-2.92,1.84,3.69,3.69,0,0,1-3.51-3.24l2.1-13.35L308,662.08,335.45,641Q339.35,649.79,343.23,658.61Z"/><path class="cls-47" d="M340.33,655.4l-3-5.35a1.28,1.28,0,0,0-1.53-.74h0c-.47.23-.56,1-.19,1.62l3,5.34c.37.65,1.05,1,1.53.75h0C340.61,656.77,340.7,656.05,340.33,655.4Z"/><path class="cls-47" d="M335,647.46h0a1.37,1.37,0,0,0-.26-1.75h0a1.06,1.06,0,0,0-1.59,0h0a1.36,1.36,0,0,0,.25,1.75h0A1.07,1.07,0,0,0,335,647.46Z"/><path class="cls-47" d="M166.34,654.73h0c.47.24,1.16-.1,1.52-.75l3-5.34c.37-.66.28-1.38-.19-1.62h0c-.47-.24-1.16.1-1.52.74l-3,5.35A1.16,1.16,0,0,0,166.34,654.73Z"/><path class="cls-47" d="M173.11,645.15h0a1.37,1.37,0,0,0,.26-1.75h0a1,1,0,0,0-1.59,0h0a1.35,1.35,0,0,0-.26,1.75h0A1.06,1.06,0,0,0,173.11,645.15Z"/><path class="cls-51" d="M250.39,472.22c-3.1-.75-26.31-6-40.72,7.7-13.62,13-11.92,35.86-7.75,48.61,4.69,14.35,13.74,20.89,21.2,45.72,1.12,3.74,1.89,6.84,2.37,8.88-8.81-1.9-22.94-6.6-34-19-24.3-27.11-11.61-66-9.63-71.71,2.82-8.17,7.83-22.7,22.14-31.77,18.75-11.89,46.62-9.1,50.17,0C255.53,464.25,253.11,468.66,250.39,472.22Z"/><path class="cls-52" d="M249.4,472.13a59,59,0,0,1,12.25-2c3.59-.2,23.72-1.32,35.59,9.72,12.89,12,12.3,34.72,7.76,48.61-4.87,14.91-14.33,21.16-21.2,45.72-1.05,3.74-1.74,6.85-2.16,8.91a68.35,68.35,0,0,0,30.83-19.5c25.81-29.05,13.41-68.85,12.63-71.22-2.41-7.32-7.43-22.45-22.14-31.77-16-10.12-41.36-12-50.18,0A19.34,19.34,0,0,0,249.4,472.13Z"/><path class="cls-53" d="M313.9,468.37c-19.92-21.82-48.62-23.19-56.48-23.57-7.7-.37-42-2-65.12,23.29-25.05,27.34-18.7,66-6.94,87a59.56,59.56,0,0,0,12.58,16.21,14.51,14.51,0,0,0,14.5,12.21h62.34a41.11,41.11,0,0,0,17.53,0h5a14.49,14.49,0,0,0,14.58-12.84,75.81,75.81,0,0,0,6.48-10.21C329.62,540.24,340.73,497.78,313.9,468.37Zm.5,46.75c-5.81,17.15-26.42,24.48-45.77,31.36a136.5,136.5,0,0,1-18.23,5.09,92.6,92.6,0,0,1-24.16-7.21c-12.06-5.49-32.76-14.91-36.87-34.33-2.21-10.4-.14-26,9.74-32.64,12.12-8.12,23.22,5.78,51.71,5.94,29.33.16,40.13-14.45,53-6.36C314.92,484,318.73,502.35,314.4,515.12Z"/><path class="cls-47" d="M294.44,461.07A31.45,31.45,0,0,0,282,455c-1.77-.6-2.58-2.18-2.14-3.14a2.24,2.24,0,0,1,2.25-1A33.73,33.73,0,0,1,298,458.93a2,2,0,0,1,.12,1.8C297.63,461.58,296,461.87,294.44,461.07Z"/><path class="cls-47" d="M272.72,448.68h0a2.52,2.52,0,0,1,3.46.3h0a2.31,2.31,0,0,1-.29,3.34h0a2.52,2.52,0,0,1-3.46-.3h0A2.32,2.32,0,0,1,272.72,448.68Z"/><path class="cls-54" d="M314.36,471.16c12.78,9.86,11.09,38.95-.29,56.42-9.05,13.88-24.39,20.71-40.69,28a152.87,152.87,0,0,1-21.2,7.63,132.43,132.43,0,0,1-20.34-7.2c-12.68-5.7-28.54-12.8-38.15-26.71-12.27-17.76-15.1-47.73-2.46-57.79,11.61-9.24,25.47,6.93,61,6.93C288.17,478.42,302.21,461.79,314.36,471.16Z"/><path class="cls-55" d="M295,481.18a22.92,22.92,0,0,0-5.49,0,22.61,22.61,0,0,0-4.44,1c-1.31.3-2.41-.35-2.5-1.11a1.6,1.6,0,0,1,1-1.45,24.16,24.16,0,0,1,12.81-1.1,1.42,1.42,0,0,1,.76,1.05C297.1,480.28,296.23,481.07,295,481.18Z"/><path class="cls-55" d="M277,481.84h0a1.82,1.82,0,0,1,2.23-1.13h0a1.68,1.68,0,0,1,1.09,2.16h0a1.82,1.82,0,0,1-2.23,1.13h0A1.67,1.67,0,0,1,277,481.84Z"/><path class="cls-56" d="M285.82,740.46a5.14,5.14,0,0,0,1.74-3.72c0-3.2-3.37-5.83-7.47-5.83H265.84c-4.12,0-7.48,2.59-7.48,5.83a5.11,5.11,0,0,0,1.73,3.72,5.1,5.1,0,0,0-1.74,3.7,4.69,4.69,0,0,1,0,6.2c0,3.19,3.37,5.83,7.48,5.83h14.25c4.11,0,7.47-2.59,7.47-5.83a4.69,4.69,0,0,1,0-6.2A5.05,5.05,0,0,0,285.82,740.46Z"/><rect class="cls-22" x="256.28" y="750.62" width="33.37" height="17.45" rx="5.61"/><rect class="cls-57" x="256.28" y="752.25" width="33.37" height="17.45" rx="5.61"/><path class="cls-47" d="M276.8,753.57h5a1.11,1.11,0,0,1,1.11,1.1h0a1.11,1.11,0,0,1-1.11,1.11h-5a1.11,1.11,0,0,1-1.11-1.11h0A1.11,1.11,0,0,1,276.8,753.57Z"/><path class="cls-47" d="M274,754.19h0a1.25,1.25,0,0,1-.67,1.64h0a1.26,1.26,0,0,1-1.65-.67h0a1.25,1.25,0,0,1,.67-1.64h0A1.26,1.26,0,0,1,274,754.19Z"/><path class="cls-58" d="M247.22,740.77a5.09,5.09,0,0,0,1.73-3.71c0-3.2-3.36-5.83-7.46-5.83H227.23c-4.11,0-7.47,2.59-7.47,5.83a5.09,5.09,0,0,0,1.73,3.71,5,5,0,0,0-1.74,3.71,4.68,4.68,0,0,1,0,6.19c0,3.2,3.36,5.84,7.48,5.84h14.25c4.11,0,7.47-2.6,7.47-5.84a4.68,4.68,0,0,1,0-6.19A5.07,5.07,0,0,0,247.22,740.77Z"/><rect class="cls-22" x="217.68" y="750.93" width="33.37" height="17.45" rx="5.61"/><rect class="cls-59" x="217.68" y="752.57" width="33.37" height="17.45" rx="5.61"/><path class="cls-47" d="M238.2,753.88h5a1.11,1.11,0,0,1,1.11,1.11h0a1.11,1.11,0,0,1-1.11,1.1h-5a1.11,1.11,0,0,1-1.11-1.1h0A1.11,1.11,0,0,1,238.2,753.88Z"/><path class="cls-47" d="M235.43,754.5h0a1.26,1.26,0,0,1-.68,1.65h0a1.25,1.25,0,0,1-1.64-.68h0a1.25,1.25,0,0,1,.67-1.64h0A1.26,1.26,0,0,1,235.43,754.5Z"/></svg>