<svg id="Layer_1" data-name="Layer 1" xmlns="http://www.w3.org/2000/svg" width="516" height="838" viewBox="0 0 516 838"><defs><style>.cls-1{fill:#c6d3db;}.cls-2{isolation:isolate;}.cls-3{fill:#3e3e3e;}.cls-10,.cls-11,.cls-4,.cls-5,.cls-6,.cls-7,.cls-8,.cls-9{fill:none;stroke:#3e3e3e;}.cls-4{stroke-miterlimit:4;}.cls-5{stroke-miterlimit:4;}.cls-6{stroke-miterlimit:4;}.cls-7{stroke-miterlimit:4;}.cls-10,.cls-11{stroke-miterlimit:10;}.cls-10{stroke-width:0.75px;}.cls-11{stroke-width:2px;}</style></defs><ellipse id="Ellipse_24" data-name="Ellipse 24" class="cls-1" cx="153.58" cy="231.25" rx="75.99" ry="62.55"/><g id="Positiv_foarndring" data-name="Positiv foarndring" class="cls-2"><g class="cls-2"><path class="cls-3" d="M105.85,186.85c0-3.3-2.55-4.12-6.29-4.12H97.14v14.78s0,.51-.66.51-.66-.51-.66-.51V182a.42.42,0,0,1,.44-.44h3.3c4.49,0,7.61,1.37,7.61,5.37,0,4.55-4.11,6.31-8.31,6.31-.6,0-.77-.22-.77-.57s.17-.6.75-.6C102.29,192,105.85,190.82,105.85,186.85Z"/><path class="cls-3" d="M110.36,191.05a7,7,0,1,1,13.92,0,7,7,0,1,1-13.92,0Zm12.69,0a5.73,5.73,0,1,0-5.72,6A5.78,5.78,0,0,0,123.05,191.05Z"/><path class="cls-3" d="M132.53,197.11c2.5,0,4.17-1.14,4.17-2.83,0-3.74-8.75-2.22-8.75-6.69,0-2.26,2-3.82,4.93-3.82,2.44,0,4.11,1.23,4.11,2.68a1.47,1.47,0,0,1-1.12,1.47c-.33,0-.44-.15-.44-.31s.33-.35.33-1.09c0-1-1.1-1.68-2.88-1.68s-3.7.82-3.7,2.53c0,3.68,8.75,2.14,8.75,6.73,0,2.24-1.89,4.13-5.36,4.13-3.06,0-5.1-1-5.1-3,0-1.25.81-1.8,1.16-1.8a.39.39,0,0,1,.42.37c0,.27-.39.62-.39,1.21C128.66,196.32,130.13,197.11,132.53,197.11Z"/><path class="cls-3" d="M142.71,197.64c0,.18-.13.38-.64.38s-.62-.2-.62-.38V184.36c0-.2.16-.35.62-.35s.64.13.64.35Z"/><path class="cls-3" d="M151.22,185.13v12.51c0,.2-.16.38-.64.38s-.61-.18-.61-.38V185.13h-4.25a.54.54,0,0,1-.37-.57.53.53,0,0,1,.37-.55h9.72a.53.53,0,0,1,.37.55.54.54,0,0,1-.37.57Z"/><path class="cls-3" d="M159.71,197.64c0,.18-.13.38-.64.38s-.62-.2-.62-.38V184.36c0-.2.16-.35.62-.35s.64.13.64.35Z"/><path class="cls-3" d="M163.73,184.43l5.59,11.87,5.58-11.94a.58.58,0,0,1,.57-.35c.36,0,.55.18.55.42a.63.63,0,0,1-.06.28L169.71,198c-.06.13-.2.19-.44.19s-.35-.06-.42-.19l-6.24-13.31a.53.53,0,0,1-.07-.31c0-.17.16-.39.58-.39A.58.58,0,0,1,163.73,184.43Z"/></g><g class="cls-2"><path class="cls-3" d="M69.35,238.2c0,.18-.14.38-.64.38s-.62-.2-.62-.38V224.94a.35.35,0,0,1,.38-.37h8.18a.53.53,0,0,1,.37.55.54.54,0,0,1-.37.57h-7.3v7h5.8a.53.53,0,0,1,.37.57.54.54,0,0,1-.37.57h-5.8Z"/><path class="cls-3" d="M79.15,231.61a7,7,0,1,1,13.92,0,7,7,0,1,1-13.92,0Zm12.69,0a5.78,5.78,0,0,0-5.72-6.14c-3.1,0-5.71,2.42-5.71,6.14a5.72,5.72,0,1,0,11.43,0Z"/><path class="cls-3" d="M97.8,235.39,96.59,238c-.17.39-.33.55-.77.55a.48.48,0,0,1-.52-.44.65.65,0,0,1,.06-.29l6.09-13c.11-.22.24-.48.57-.48s.44.26.55.5l6.18,13a.58.58,0,0,1,.07.29.49.49,0,0,1-.53.44.69.69,0,0,1-.66-.42l-1.3-2.77Zm.55-1.17h7.43l-3.73-8Z"/><path class="cls-3" d="M122.12,237.43c.16,0,.22.29.22.42,0,.48-.75.73-1.23.73-2.18,0-3-3.54-5.67-4.69A10.45,10.45,0,0,1,114,234c-.51,0-.64-.28-.64-.57s.13-.48.39-.48c3.24,0,6.12-1.21,6.12-4.12,0-2.66-2-3.12-4.8-3.12h-2.11V238.2c0,.22-.13.38-.64.38s-.61-.14-.61-.38V224.94a.34.34,0,0,1,.37-.37h3c3.3,0,6,1,6,4.2,0,2.51-1.8,4.09-4.13,4.79,2.11,1.3,2.79,3.94,4.59,3.94A2.57,2.57,0,0,0,122.12,237.43Z"/><path class="cls-3" d="M126.21,224.81l9.26,11.59V224.92c0-.15.16-.35.55-.35s.55.2.55.35v13.33c0,.22-.18.33-.46.33a.7.7,0,0,1-.6-.35l-9.43-11.62V238.2c0,.18-.13.38-.55.38s-.55-.18-.55-.38V224.94c0-.17.18-.37.62-.37A.77.77,0,0,1,126.21,224.81Z"/><path class="cls-3" d="M140.9,238.58a.36.36,0,0,1-.37-.38V224.94a.34.34,0,0,1,.37-.37h3.61c4.79,0,8.33,1.76,8.33,6.84,0,3.89-2,7.17-7.87,7.17Zm4.07-1.12c5.1,0,6.6-2.69,6.6-6.05,0-4.33-2.77-5.72-7.06-5.72h-2.73v11.77Z"/><path class="cls-3" d="M166.92,237.43c.15,0,.22.29.22.42,0,.48-.75.73-1.23.73-2.18,0-3-3.54-5.68-4.69a10.36,10.36,0,0,1-1.47.09c-.5,0-.64-.28-.64-.57s.14-.48.4-.48c3.23,0,6.11-1.21,6.11-4.12,0-2.66-2-3.12-4.79-3.12h-2.11V238.2c0,.22-.13.38-.64.38s-.62-.14-.62-.38V224.94a.35.35,0,0,1,.38-.37h3c3.3,0,6.05,1,6.05,4.2,0,2.51-1.8,4.09-4.13,4.79,2.11,1.3,2.79,3.94,4.59,3.94A2.7,2.7,0,0,0,166.92,237.43Z"/><path class="cls-3" d="M171,238.2c0,.18-.13.38-.64.38s-.61-.2-.61-.38V224.92c0-.2.15-.35.61-.35s.64.13.64.35Z"/><path class="cls-3" d="M176.22,224.81l9.26,11.59V224.92c0-.15.15-.35.55-.35s.55.2.55.35v13.33c0,.22-.18.33-.46.33a.69.69,0,0,1-.6-.35l-9.43-11.62V238.2c0,.18-.13.38-.55.38s-.55-.18-.55-.38V224.94c0-.17.18-.37.62-.37A.77.77,0,0,1,176.22,224.81Z"/><path class="cls-3" d="M191.51,231.87c0,4,2.55,5.81,5.87,5.81,2.5,0,4.13-1.59,4.13-2.38v-1.91h-2.77a.54.54,0,0,1-.37-.57.55.55,0,0,1,.37-.58h3.63a.36.36,0,0,1,.37.38v2.81c0,1.32-2.42,3.37-5.43,3.37-3.76,0-7.1-2.4-7.1-6.93,0-5.28,3.71-7.54,7.23-7.54,2.88,0,4.75,1.67,4.75,3.65,0,.94-.37,1.45-.83,1.45s-.58-.13-.58-.4.2-.37.2-.92c0-1.56-1.25-2.64-3.54-2.64C194.41,225.47,191.51,227.1,191.51,231.87Z"/></g></g><ellipse id="Ellipse_25" data-name="Ellipse 25" class="cls-1" cx="403.03" cy="250.83" rx="75.95" ry="62.54"/><g id="Selv-_Udvikling" data-name="Selv- Udvikling" class="cls-2"><g class="cls-2"><path class="cls-3" d="M356.44,216.63c2.88,0,5-1.36,5-3.45,0-2.36-2.39-2.86-4.88-3.68s-5.3-1.4-5.3-4.44c0-2.42,1.94-4.15,5.52-4.15,3.17,0,4.77,1.56,4.77,3.27,0,1-.59,1.67-1.16,1.67-.24,0-.46-.11-.46-.39s.44-.62.44-1.26c0-1.12-1.21-2.08-3.59-2.08-2.61,0-4.31.88-4.31,2.66,0,2,1.45,2.55,4.55,3.49,2.73.84,5.65,1.59,5.65,4.71,0,2.94-2.57,4.86-6.17,4.86-3.43,0-5.85-1.26-5.85-4,0-1.29.63-1.82,1.16-1.82.33,0,.51.13.51.35s-.46.46-.46,1.47C351.85,215.64,353.65,216.63,356.44,216.63Z"/><path class="cls-3" d="M375.68,216.47a.58.58,0,0,1,.38.58.55.55,0,0,1-.38.57H367a.37.37,0,0,1-.38-.38V204a.35.35,0,0,1,.38-.37h8.16a.53.53,0,0,1,.37.55.57.57,0,0,1-.37.59h-7.28v6.76H374a.57.57,0,0,1,.38.59.55.55,0,0,1-.38.57h-6.13v3.8Z"/><path class="cls-3" d="M388.2,216.47a.57.57,0,0,1,.37.58.54.54,0,0,1-.37.57h-8.69a.36.36,0,0,1-.37-.38V204c0-.19.15-.35.61-.35s.64.13.64.35v12.51Z"/><path class="cls-3" d="M389.63,204l5.58,11.87L400.8,204a.59.59,0,0,1,.57-.35c.35,0,.55.18.55.42a.63.63,0,0,1-.07.29l-6.24,13.3c-.07.13-.2.2-.44.2s-.35-.07-.42-.2l-6.24-13.3a.53.53,0,0,1-.07-.31c0-.18.15-.4.57-.4A.58.58,0,0,1,389.63,204Z"/><path class="cls-3" d="M407.13,210.54a.56.56,0,0,1,.51.59.58.58,0,0,1-.51.62h-4.2a.62.62,0,0,1,0-1.21Z"/></g><g class="cls-2"><path class="cls-3" d="M334.6,242.41c0-.33,0-.72.6-.72s.61.33.61.72v10.45c0,2.92-2.52,5.54-6.81,5.54s-6.77-2.62-6.77-5.54V242.41a.65.65,0,0,1,.63-.72c.51,0,.69.24.69.72v10.45c0,2.35,1.71,4.33,5.45,4.33,3.49,0,5.6-2,5.6-4.33Z"/><path class="cls-3" d="M340.37,258.18a.36.36,0,0,1-.38-.37V244.55a.36.36,0,0,1,.38-.38H344c4.8,0,8.34,1.76,8.34,6.84,0,3.89-2.05,7.17-7.87,7.17Zm4.07-1.12c5.1,0,6.59-2.68,6.59-6.05,0-4.33-2.77-5.72-7.06-5.72h-2.72v11.77Z"/><path class="cls-3" d="M355.7,244.59l5.58,11.87,5.59-11.93a.57.57,0,0,1,.57-.36c.35,0,.55.18.55.42a.58.58,0,0,1-.07.29l-6.24,13.3c-.07.13-.2.2-.44.2s-.35-.07-.42-.2l-6.25-13.3a.6.6,0,0,1-.06-.31c0-.18.15-.4.57-.4A.58.58,0,0,1,355.7,244.59Z"/><path class="cls-3" d="M372.08,257.81c0,.17-.13.37-.64.37s-.61-.2-.61-.37V244.53c0-.2.15-.36.61-.36s.64.14.64.36Z"/><path class="cls-3" d="M377.29,251l6.69-6.64a.55.55,0,0,1,.39-.18.61.61,0,0,1,.64.57.64.64,0,0,1-.18.38l-5.52,5.43c2.51,1.65,5.52,6.42,7,6.42a2.66,2.66,0,0,0,.6-.07c.28,0,.39.27.39.53,0,.42-.46.75-1.14.75-2.07,0-5.61-5.5-7.7-6.75l-1.14,1.12v5.26c0,.17-.13.37-.64.37s-.61-.2-.61-.37V244.53c0-.2.15-.36.61-.36s.64.14.64.36Z"/><path class="cls-3" d="M398.75,257a.57.57,0,0,1,.38.57.55.55,0,0,1-.38.57h-8.68a.36.36,0,0,1-.38-.37V244.53c0-.2.16-.36.62-.36s.64.14.64.36V257Z"/><path class="cls-3" d="M403.46,257.81c0,.17-.13.37-.64.37s-.61-.2-.61-.37V244.53c0-.2.15-.36.61-.36s.64.14.64.36Z"/><path class="cls-3" d="M408.65,244.41,417.91,256V244.53c0-.16.15-.36.55-.36s.55.2.55.36v13.32c0,.22-.18.33-.47.33a.69.69,0,0,1-.59-.35l-9.43-11.61v11.59c0,.17-.13.37-.55.37s-.55-.18-.55-.37V244.55c0-.18.17-.38.61-.38A.77.77,0,0,1,408.65,244.41Z"/><path class="cls-3" d="M423.93,251.47c0,4,2.55,5.81,5.87,5.81,2.51,0,4.14-1.59,4.14-2.38V253h-2.77a.62.62,0,0,1,0-1.14h3.63a.36.36,0,0,1,.37.37V255c0,1.32-2.42,3.37-5.43,3.37-3.76,0-7.1-2.4-7.1-6.93,0-5.27,3.71-7.54,7.23-7.54,2.88,0,4.75,1.67,4.75,3.65,0,.95-.37,1.45-.84,1.45s-.57-.13-.57-.39.2-.38.2-.93c0-1.56-1.25-2.64-3.54-2.64C426.84,245.07,423.93,246.7,423.93,251.47Z"/></g></g><ellipse id="Ellipse_26" data-name="Ellipse 26" class="cls-1" cx="128.63" cy="494.32" rx="75.99" ry="62.55"/><g id="Find_din_balance" data-name="Find din balance" class="cls-2"><g class="cls-2"><path class="cls-3" d="M53.86,445a.41.41,0,0,1,.44-.44h9.5a.61.61,0,0,1,0,1.21H55.18v8.37h6.88a.58.58,0,0,1,.51.6.61.61,0,0,1-.51.64H55.18v5.16c0,.31-.09.51-.72.51-.44,0-.6-.2-.6-.51Z"/><path class="cls-3" d="M68.4,460.71c0,.18-.13.38-.64.38s-.62-.2-.62-.38V447.43c0-.19.16-.35.62-.35s.64.13.64.35Z"/><path class="cls-3" d="M73.59,447.32l9.25,11.59V447.43c0-.15.16-.35.55-.35s.55.2.55.35v13.33c0,.22-.17.33-.46.33a.67.67,0,0,1-.59-.35l-9.43-11.61v11.58c0,.18-.14.38-.55.38s-.55-.18-.55-.38V447.46c0-.18.17-.38.61-.38A.77.77,0,0,1,73.59,447.32Z"/><path class="cls-3" d="M88.28,461.09a.37.37,0,0,1-.38-.38V447.46a.35.35,0,0,1,.38-.38h3.6c4.8,0,8.34,1.76,8.34,6.84,0,3.89-2,7.17-7.87,7.17ZM92.35,460c5.1,0,6.59-2.69,6.59-6.05,0-4.33-2.77-5.72-7.06-5.72H89.16V460Z"/><path class="cls-3" d="M110.16,461.09a.37.37,0,0,1-.38-.38V447.46a.35.35,0,0,1,.38-.38h3.6c4.8,0,8.34,1.76,8.34,6.84,0,3.89-2,7.17-7.87,7.17Zm4.07-1.12c5.1,0,6.59-2.69,6.59-6.05,0-4.33-2.77-5.72-7.06-5.72H111V460Z"/><path class="cls-3" d="M127,460.71c0,.18-.13.38-.64.38s-.61-.2-.61-.38V447.43c0-.19.15-.35.61-.35s.64.13.64.35Z"/><path class="cls-3" d="M132.17,447.32l9.26,11.59V447.43c0-.15.15-.35.55-.35s.55.2.55.35v13.33c0,.22-.18.33-.46.33a.69.69,0,0,1-.6-.35L132,449.13v11.58c0,.18-.13.38-.55.38s-.55-.18-.55-.38V447.46c0-.18.18-.38.62-.38A.77.77,0,0,1,132.17,447.32Z"/></g><g class="cls-2"><path class="cls-3" d="M57.69,494.28a3.28,3.28,0,0,1,2.86,3.24c0,2.37-1.59,4.13-4.64,4.13H50.3a.36.36,0,0,1-.37-.37V488a.35.35,0,0,1,.37-.38h4.11c3.28,0,5.23.88,5.23,3.56A2.93,2.93,0,0,1,57.69,494.28Zm-6.51-.19h4.26c2.25,0,2.86-1.3,2.86-2.93,0-1.93-1.27-2.4-3.89-2.4H51.18ZM56,495.18H51.18v5.35H55.6c2.7,0,3.63-1.15,3.63-2.93C59.23,496,58.15,495.18,56,495.18Z"/><path class="cls-3" d="M65.08,498.46l-1.21,2.64c-.18.39-.33.55-.77.55a.48.48,0,0,1-.53-.44.58.58,0,0,1,.07-.29l6.09-13c.11-.22.24-.48.57-.48s.44.26.55.51l6.18,13a.65.65,0,0,1,.06.29.48.48,0,0,1-.53.44.68.68,0,0,1-.65-.42l-1.3-2.77Zm.55-1.16h7.43l-3.74-8Z"/><path class="cls-3" d="M88,500.51a.57.57,0,0,1,.38.57.55.55,0,0,1-.38.57H79.33a.37.37,0,0,1-.38-.37V488c0-.19.16-.35.62-.35s.64.14.64.35v12.52Z"/><path class="cls-3" d="M92.87,498.46l-1.21,2.64c-.17.39-.33.55-.77.55a.48.48,0,0,1-.52-.44.65.65,0,0,1,.06-.29l6.09-13c.11-.22.25-.48.57-.48s.45.26.55.51l6.18,13a.58.58,0,0,1,.07.29.48.48,0,0,1-.53.44.69.69,0,0,1-.66-.42l-1.3-2.77Zm.55-1.16h7.44l-3.74-8Z"/><path class="cls-3" d="M108,487.88l9.26,11.59V488c0-.15.15-.35.55-.35s.55.2.55.35v13.33c0,.22-.18.33-.46.33a.69.69,0,0,1-.6-.35l-9.43-11.61v11.59c0,.17-.13.37-.55.37s-.55-.18-.55-.37V488c0-.18.18-.38.62-.38A.77.77,0,0,1,108,487.88Z"/><path class="cls-3" d="M128.76,488.54c-2.88,0-5.54,1.63-5.54,6.27,0,4.11,2.71,5.92,5.7,5.92a5.66,5.66,0,0,0,4.33-1.83.56.56,0,0,1,.44-.2.43.43,0,0,1,.44.49.82.82,0,0,1-.24.57,6.88,6.88,0,0,1-5,2.11c-3.76,0-6.95-2.4-6.95-7.1,0-5.1,3.27-7.37,6.79-7.37,2.88,0,4.75,1.67,4.75,3.65,0,.95-.44,1.5-.92,1.5-.22,0-.57-.07-.57-.44a4.9,4.9,0,0,0,.22-.93C132.24,489.62,130.92,488.54,128.76,488.54Z"/><path class="cls-3" d="M146.75,500.51a.57.57,0,0,1,.37.57.54.54,0,0,1-.37.57h-8.69a.36.36,0,0,1-.37-.37V488a.35.35,0,0,1,.37-.38h8.16a.54.54,0,0,1,.38.55.59.59,0,0,1-.38.6h-7.28v6.75h6.14a.58.58,0,0,1,.37.59.54.54,0,0,1-.37.57h-6.14v3.81Z"/></g></g><ellipse id="Ellipse_27" data-name="Ellipse 27" class="cls-1" cx="390.55" cy="567.05" rx="75.95" ry="62.54"/><g id="Opn책_dine_M책l" data-name="Opn책 dine M책l" class="cls-2"><g class="cls-2"><path class="cls-3" d="M322.61,518.83a8.11,8.11,0,1,1,16.19,0,8.1,8.1,0,1,1-16.19,0Zm14.87,0c0-4.35-3-7.3-6.77-7.3s-6.78,3-6.78,7.3a6.85,6.85,0,0,0,6.78,7.22C334.4,526.05,337.48,523.12,337.48,518.83Z"/><path class="cls-3" d="M344,526.68c0,.18-.13.38-.64.38s-.61-.2-.61-.38V513.4a.34.34,0,0,1,.37-.37h2.55c4.09,0,6.91,1.14,6.91,4.55,0,3.67-3.54,5.36-7.13,5.36-.5,0-.63-.26-.63-.54s.13-.58.61-.58c2.9,0,5.89-1.1,5.89-4.28,0-2.64-2.31-3.37-5.65-3.37H344Z"/><path class="cls-3" d="M357.12,513.27l9.26,11.59V513.38c0-.15.15-.35.55-.35s.54.2.54.35V526.7c0,.22-.17.33-.46.33a.65.65,0,0,1-.59-.35L357,515.07v11.59c0,.18-.14.37-.55.37s-.55-.17-.55-.37V513.4c0-.17.17-.37.61-.37A.77.77,0,0,1,357.12,513.27Z"/><path class="cls-3" d="M372.84,523.85l-1.21,2.63c-.17.4-.33.55-.77.55a.47.47,0,0,1-.52-.43.65.65,0,0,1,.06-.29l6.09-13c.11-.22.24-.48.57-.48s.44.26.55.5l6.18,13a.58.58,0,0,1,.07.29.48.48,0,0,1-.53.43.68.68,0,0,1-.66-.41l-1.3-2.77Zm.55-1.17h7.43l-3.73-8ZM375.22,510a1.89,1.89,0,0,0,1.93,1.83,1.93,1.93,0,0,0,1.91-1.83,1.93,1.93,0,0,0-3.84,0Zm1.12,0a.86.86,0,0,1,.81-.81.83.83,0,0,1,.79.81.88.88,0,0,1-.79.88A.84.84,0,0,1,376.34,510Z"/></g><g class="cls-2"><path class="cls-3" d="M305,567.6a.36.36,0,0,1-.37-.38V554a.34.34,0,0,1,.37-.37h3.61c4.79,0,8.33,1.76,8.33,6.84,0,3.89-2.05,7.17-7.87,7.17Zm4.07-1.12c5.1,0,6.59-2.69,6.59-6.05,0-4.33-2.77-5.72-7.05-5.72h-2.73v11.77Z"/><path class="cls-3" d="M321.82,567.22c0,.18-.13.38-.64.38s-.61-.2-.61-.38V553.94c0-.2.15-.35.61-.35s.64.13.64.35Z"/><path class="cls-3" d="M327,553.83l9.26,11.59V553.94c0-.15.15-.35.55-.35s.55.2.55.35v13.33c0,.22-.18.33-.46.33a.68.68,0,0,1-.6-.36l-9.43-11.6v11.58c0,.18-.13.38-.55.38s-.55-.18-.55-.38V554c0-.17.18-.37.62-.37A.77.77,0,0,1,327,553.83Z"/><path class="cls-3" d="M350.39,566.45a.57.57,0,0,1,.37.58.54.54,0,0,1-.37.57H341.7a.36.36,0,0,1-.37-.38V554a.34.34,0,0,1,.37-.37h8.16a.53.53,0,0,1,.37.55.58.58,0,0,1-.37.59h-7.28v6.75h6.14a.59.59,0,0,1,.37.6.54.54,0,0,1-.37.57h-6.14v3.8Z"/><path class="cls-3" d="M368.13,566.89l-6.9-12.82v13c0,.24-.07.51-.64.51s-.59-.27-.59-.51V551.85c0-.48.22-.74.57-.74a.66.66,0,0,1,.64.35l7.6,14.25,8.1-14.3c.13-.24.28-.3.59-.3s.48.26.48.68v15.3c0,.26-.06.51-.59.51s-.64-.25-.64-.51V554l-7.32,12.88c-.17.29-.35.49-.66.49A.73.73,0,0,1,368.13,566.89Z"/><path class="cls-3" d="M383.57,564.41l-1.21,2.64c-.17.39-.33.55-.77.55a.48.48,0,0,1-.52-.44.65.65,0,0,1,.06-.29l6.09-13c.11-.22.25-.48.57-.48s.44.26.55.5l6.18,13a.58.58,0,0,1,.07.29.49.49,0,0,1-.53.44.69.69,0,0,1-.66-.42l-1.3-2.77Zm.55-1.17h7.43l-3.73-8ZM386,550.53a1.89,1.89,0,0,0,1.93,1.83,1.94,1.94,0,0,0,1.92-1.83,1.9,1.9,0,0,0-1.92-1.78A1.88,1.88,0,0,0,386,550.53Zm1.12,0a.86.86,0,0,1,.81-.81.83.83,0,0,1,.79.81.88.88,0,0,1-.79.88A.84.84,0,0,1,387.07,550.53Z"/><path class="cls-3" d="M406.44,566.45a.58.58,0,0,1,.38.58.55.55,0,0,1-.38.57h-8.68a.37.37,0,0,1-.38-.38V553.94c0-.2.16-.35.62-.35s.64.13.64.35v12.51Z"/></g></g><g id="Group_26" data-name="Group 26"><path id="Path_30" data-name="Path 30" class="cls-4" d="M312.74,426.65c3.94-1.23,11.24-2.88,18.49-.52,7.42,2.43,13.37,9,14.75,11.84,5.17,10.75-4.32,19.89-7.44,15.4-2.67-3.83-2.24-11.78,6.92-10.53,2,.27,15.39,4.09,20.57,14.12,6.25,12.08,4.27,30.94,4.27,30.94"/><line id="Line_42" data-name="Line 42" class="cls-5" x1="363.57" y1="483.86" x2="370.36" y2="488.13"/><line id="Line_43" data-name="Line 43" class="cls-5" x1="375.2" y1="482.83" x2="370.36" y2="488.12"/></g><g id="Group_27" data-name="Group 27"><path id="Path_30-2" data-name="Path 30-2" class="cls-6" d="M305.82,345.82c-1.83-3.69-4.61-10.65-3.41-18.17,1.23-7.72,6.76-14.62,9.39-16.44,9.8-6.78,20.32,1.17,16.37,5-3.37,3.23-11.28,4.06-11.48-5.19,0-2,1.63-15.84,10.72-22.53,11-8.07,29.9-9.06,29.9-9.06"/><line id="Line_42-2" data-name="Line 42-2" class="cls-7" x1="354.37" y1="286.66" x2="357.52" y2="279.29"/><line id="Line_43-2" data-name="Line 43-2" class="cls-7" x1="351.53" y1="275.33" x2="357.52" y2="279.29"/></g><g id="Group_28" data-name="Group 28"><path id="Path_30-3" data-name="Path 30-3" class="cls-8" d="M244.22,428.46c1.23,3.93,2.88,11.23.52,18.48-2.42,7.42-9,13.37-11.83,14.75-10.75,5.17-19.88-4.32-15.39-7.44,3.82-2.67,11.77-2.24,10.52,6.92-.27,2-4.09,15.38-14.11,20.57C201.85,488,183,486,183,486"/><line id="Line_42-3" data-name="Line 42-3" class="cls-9" x1="187.04" y1="479.27" x2="182.77" y2="486.06"/><line id="Line_43-3" data-name="Line 43-3" class="cls-9" x1="188.07" y1="490.91" x2="182.77" y2="486.07"/></g><g id="Group_29" data-name="Group 29"><path id="Path_30-4" data-name="Path 30-4" class="cls-10" d="M233.65,335.77c2.77-3,7.36-9,8.28-16.53.94-7.75-2.47-15.9-4.49-18.37-7.55-9.22-19.85-4.49-17.1.24,2.35,4,9.73,7,12.46-1.83.6-1.91,2.8-15.67-4.09-24.6-8.3-10.77-26.23-16.95-26.23-16.95"/><line id="Line_42-4" data-name="Line 42-4" class="cls-10" x1="203.3" y1="265.55" x2="202.3" y2="257.59"/><line id="Line_43-4" data-name="Line 43-4" class="cls-10" x1="209.15" y1="255.44" x2="202.3" y2="257.59"/></g><circle class="cls-11" cx="267.76" cy="366.69" r="10.64"/><path class="cls-11" d="M267.59,382.37h2.71a25.8,25.8,0,0,1,25.8,25.8v0a0,0,0,0,1,0,0H241.79a0,0,0,0,1,0,0v0A25.8,25.8,0,0,1,267.59,382.37Z"/></svg>