<svg id="Layer_1" data-name="Layer 1" xmlns="http://www.w3.org/2000/svg" width="516" height="838" viewBox="0 0 516 838"><defs><style>.cls-1{fill:#c6d3db;}.cls-2{fill:#7c9bac;isolation:isolate;opacity:0.44;}.cls-3,.cls-4,.cls-6,.cls-7,.cls-8{fill:none;}.cls-4{stroke:#7c9bac;}.cls-4,.cls-8{stroke-width:4px;}.cls-5{fill:#fff;}.cls-6,.cls-7,.cls-8{stroke:#749cae;stroke-miterlimit:10;}.cls-6{stroke-width:5px;}.cls-7{stroke-width:9px;}</style></defs><ellipse id="Ellipse_44" data-name="Ellipse 44" class="cls-1" cx="250.61" cy="660.43" rx="83" ry="84.5"/><ellipse id="Ellipse_38" data-name="Ellipse 38" class="cls-1" cx="252.57" cy="159.36" rx="93.76" ry="95.46"/><rect id="Rectangle_140" data-name="Rectangle 140" class="cls-2" x="159.79" y="362.55" width="190.18" height="112.91" transform="translate(-87.72 68.08) rotate(-13)"/><g id="Ellipse_37" data-name="Ellipse 37"><circle class="cls-3" cx="223.76" cy="145.8" r="81.9"/><circle class="cls-4" cx="223.76" cy="145.8" r="79.64"/></g><g id="Ellipse_39" data-name="Ellipse 39"><circle class="cls-5" cx="163.89" cy="91.58" r="10.73"/><circle class="cls-4" cx="163.89" cy="91.58" r="8.47"/></g><g id="Ellipse_40" data-name="Ellipse 40"><circle class="cls-1" cx="263.3" cy="74.63" r="10.73"/><circle class="cls-4" cx="263.3" cy="74.63" r="8.47"/></g><g id="Ellipse_41" data-name="Ellipse 41"><circle class="cls-1" cx="302.84" cy="157.1" r="10.73"/><circle class="cls-4" cx="302.84" cy="157.1" r="8.47"/></g><g id="Ellipse_42" data-name="Ellipse 42"><circle class="cls-5" cx="152.59" cy="185.34" r="10.73"/><circle class="cls-4" cx="152.59" cy="185.34" r="8.47"/></g><g id="Ellipse_43" data-name="Ellipse 43"><circle class="cls-1" cx="246.36" cy="222.62" r="10.73"/><circle class="cls-4" cx="246.36" cy="222.62" r="8.47"/></g><g id="Group_12" data-name="Group 12"><path id="Path_14" data-name="Path 14" class="cls-6" d="M286.82,636.2v6.29c0,30-20.75,56.33-51,64.82s-62.7-2.92-79.85-28a65,65,0,0,1,5.6-80.76c20.48-22.77,54.26-30,83-17.84"/><path id="Path_15" data-name="Path 15" class="cls-6" d="M291,579,219,650.9l-19.61-19.61"/></g><circle class="cls-6" cx="153.32" cy="397.13" r="41.27"/><circle class="cls-6" cx="259.49" cy="398.61" r="41.27" transform="translate(-150.47 639.77) rotate(-87.4)"/><path class="cls-6" d="M194.59,402c.29-.64,4.47-9.52,12.25-9.67,6.72-.12,10.83,6.35,11.38,7.25"/><line class="cls-7" x1="111.58" y1="397.13" x2="105.61" y2="397.13"/><line class="cls-7" x1="306.72" y1="398.61" x2="300.76" y2="398.61"/><circle class="cls-8" cx="222.18" cy="116.58" r="14.27"/><path class="cls-8" d="M221.94,137.62h3.64a34.61,34.61,0,0,1,34.61,34.61v0a0,0,0,0,1,0,0H187.33a0,0,0,0,1,0,0v0A34.61,34.61,0,0,1,221.94,137.62Z"/></svg>