<svg id="Layer_1" data-name="Layer 1" xmlns="http://www.w3.org/2000/svg" width="516" height="838" viewBox="0 0 516 838"><defs><style>.cls-1{fill:#7c9bac;isolation:isolate;opacity:0.44;}.cls-2,.cls-3{fill:#3e3e3e;}.cls-3{fill-rule:evenodd;}</style></defs><rect id="Rectangle_91" data-name="Rectangle 91" class="cls-1" x="191.27" y="85.6" width="133.47" height="128.07" transform="translate(-8.03 284.48) rotate(-56.99)"/><g id="Group_15" data-name="Group 15"><path id="Path_17" data-name="Path 17" class="cls-2" d="M206,126.66a20.41,20.41,0,1,0-20.35-20.47h0a20.35,20.35,0,0,0,20.24,20.47Zm0-35.45a14.94,14.94,0,1,1-.11,0Z"/><path id="Path_18" data-name="Path 18" class="cls-2" d="M170.68,158.54h70.91a2.72,2.72,0,0,0,2.68-2.68,25.68,25.68,0,0,0-25.61-25.62h-25A25.67,25.67,0,0,0,168,155.85,2.71,2.71,0,0,0,170.68,158.54Zm22.93-22.93h25a20.16,20.16,0,0,1,20,17.56H173.59A20.16,20.16,0,0,1,193.61,135.61Z"/></g><g id="Group_16" data-name="Group 16"><path id="Path_17-2" data-name="Path 17-2" class="cls-2" d="M309.76,161.88a20.41,20.41,0,1,0-20.35-20.47h0a20.36,20.36,0,0,0,20.25,20.47Zm0-35.46a14.93,14.93,0,1,1-.11,0Z"/><path id="Path_18-2" data-name="Path 18-2" class="cls-2" d="M274.42,193.76h70.91a2.72,2.72,0,0,0,2.68-2.69,25.67,25.67,0,0,0-25.61-25.61h-25a25.67,25.67,0,0,0-25.61,25.61A2.71,2.71,0,0,0,274.42,193.76Zm22.93-22.94h25a20.17,20.17,0,0,1,20,17.56H277.33A20.17,20.17,0,0,1,297.35,170.82Z"/></g><rect id="Rectangle_91-2" data-name="Rectangle 91" class="cls-1" x="196.42" y="347.79" width="129.21" height="123.98" transform="translate(-224.81 405.45) rotate(-56.99)"/><path id="Path_34" data-name="Path 34" class="cls-3" d="M274.73,432.23H239.58a29.25,29.25,0,0,0,11.21,17.82h6.12a2.55,2.55,0,0,1,0,5.1h-61.1a2.55,2.55,0,0,1,0-5.1h6.12a29.19,29.19,0,0,0,11.2-17.82H178a10.18,10.18,0,0,1-10.18-10.18V363.49A10.18,10.18,0,0,1,178,353.31h96.75a10.19,10.19,0,0,1,10.19,10.18v58.56A10.19,10.19,0,0,1,274.73,432.23Zm-65.18,17.82h33.62a32.42,32.42,0,0,1-8.81-17.82h-16A32.47,32.47,0,0,1,209.55,450.05Zm70.27-86.56a5.09,5.09,0,0,0-5.09-5.09H178a5.09,5.09,0,0,0-5.09,5.09v48.37H279.82Zm0,53.47H172.89v5.09a5.09,5.09,0,0,0,5.09,5.09h96.75a5.09,5.09,0,0,0,5.09-5.09Zm-53.46,7.63A2.55,2.55,0,1,1,228.9,422h0A2.54,2.54,0,0,1,226.36,424.59Z"/><ellipse id="Ellipse_34" data-name="Ellipse 34" class="cls-1" cx="263.61" cy="668.67" rx="69.22" ry="67.49"/><g id="layer1"><path id="path8479" d="M250.91,588.87A16.46,16.46,0,0,0,239.23,617l.06,0L263,639.08a2.16,2.16,0,0,0,1.46.58h0a2.2,2.2,0,0,0,1.46-.58L289.62,617c6.72-6.25,6.49-16.91.05-23.33a2.15,2.15,0,0,0-.71-.47h0a16.47,16.47,0,0,0-22.64.47l-1.88,1.86-1.86-1.86A16.53,16.53,0,0,0,250.91,588.87Zm0,4.26h0a12.19,12.19,0,0,1,8.64,3.59l3.39,3.37a2.14,2.14,0,0,0,3,0l3.38-3.37a12.19,12.19,0,0,1,17.23-.05l.06.05h0a11.9,11.9,0,0,1,.34,16.84l-.3.3-22.24,20.7-22.18-20.64a12.06,12.06,0,0,1-.16-17l.16-.15a12.18,12.18,0,0,1,8.64-3.59Zm-74.54,35.53a2.14,2.14,0,0,0-2.15,2.14h0v43.79a2.14,2.14,0,0,0,2.15,2.14h23.52a2.14,2.14,0,0,0,2.14-2.14h0v-3.16L242.19,685l.17.05a18,18,0,0,0,14.15-2.26l41.58-22.6h0l1-.58a8,8,0,0,0-2.53-14.74v0a8.64,8.64,0,0,0-3.68.28l-.21.09L269.8,655.87c0-.28.07-.57.09-.86a8.83,8.83,0,0,0-8.85-8.76H242l-.25-.49a20.53,20.53,0,0,0-1.11-1.79,21.83,21.83,0,0,0-2.71-3.21,22.3,22.3,0,0,0-15.66-6.34H202V630.8a2.14,2.14,0,0,0-2.15-2.14H176.37Zm2.14,4.29h19.23v39.49H178.52ZM202,638.71h20.19a18,18,0,0,1,12.64,5.12A17.23,17.23,0,0,1,237,646.4c.32.47.61,1,.89,1.44s.56,1,.75,1.4l.55,1.3H261a4.47,4.47,0,0,1,4.55,4.35V655a4.38,4.38,0,0,1-2.76,4.1h0a4.93,4.93,0,0,1-1.77.34H231.13v4.3H261a9,9,0,0,0,2.57-.43,2.08,2.08,0,0,0,.73-.19l30-13.9a4.18,4.18,0,0,1,1.65-.1c.92.13,1.8.39,2.6,2.27a3.51,3.51,0,0,1-1.57,4.48l-1,.56-41.73,22.69-.17.11a14.28,14.28,0,0,1-10.68,1.67h0l-41.38-14Z"/></g></svg>