<svg id="Layer_1" data-name="Layer 1" xmlns="http://www.w3.org/2000/svg" width="516" height="838" viewBox="0 0 516 838"><defs><style>.cls-1,.cls-3{fill:#7c9bac;}.cls-1,.cls-2,.cls-3{isolation:isolate;}.cls-1{opacity:0.44;}.cls-2{fill:#c2d4dc;opacity:0.59;}.cls-3{opacity:0.41;}.cls-4{fill:#d7e2e5;}.cls-5{fill:#231f20;}.cls-6,.cls-8{fill:none;}.cls-7{fill:#424242;}.cls-8{stroke:#424242;stroke-miterlimit:10;stroke-width:3px;}</style></defs><rect id="Rectangle_49" data-name="Rectangle 49" class="cls-1" x="109.5" y="593.3" width="68.22" height="73.39" transform="translate(-501.76 661.82) rotate(-79.98)"/><ellipse id="Ellipse_5" data-name="Ellipse 5" class="cls-2" cx="359.37" cy="626.98" rx="42.37" ry="46.96"/><rect id="Rectangle_50" data-name="Rectangle 50" class="cls-1" x="226.08" y="586.59" width="39.13" height="86.8" transform="translate(-64.76 29.26) rotate(-6.02)"/><path id="Polygon_6" data-name="Polygon 6" class="cls-3" d="M268,473.66,181.91,351.42l115-24.47Z"/><ellipse id="Ellipse_35" data-name="Ellipse 35" class="cls-4" cx="267.44" cy="158.54" rx="63.64" ry="62.05"/><g id="Group_43" data-name="Group 43"><path id="Path_39" data-name="Path 39" class="cls-5" d="M236.92,96.49a52,52,0,1,0,52,52A52,52,0,0,0,236.92,96.49Zm0,100.14a48.15,48.15,0,1,1,48.14-48.15h0A48.16,48.16,0,0,1,236.92,196.63Z"/><path id="Path_40" data-name="Path 40" class="cls-5" d="M236.92,111.9a9.54,9.54,0,1,0,.19,0Zm0,15.4a5.78,5.78,0,1,1,5.78-5.77,5.67,5.67,0,0,1-5.57,5.77A.74.74,0,0,1,236.92,127.3Zm0,7.7a9.54,9.54,0,0,0-9.63,9.44v31a9.63,9.63,0,0,0,19.26,0V144.64a9.54,9.54,0,0,0-9.44-9.63h-.19Zm5.78,40.45a5.78,5.78,0,0,1-11.56,0V144.64a5.78,5.78,0,0,1,11.56,0Z"/></g><g id="Group_59" data-name="Group 59"><path id="Path_54" data-name="Path 54" d="M236.92,365.93a19.88,19.88,0,0,1,13.83,5.55,18.54,18.54,0,0,1,.59,26.2l-.59.6a20,20,0,0,1-27.66,0,18.53,18.53,0,0,1-.59-26.2l.59-.6a19.84,19.84,0,0,1,13.83-5.55Zm10.41,8.86a15.06,15.06,0,0,0-20.82,0,14,14,0,0,0-.45,19.73l.45.45a15.06,15.06,0,0,0,20.82,0,14,14,0,0,0,.45-19.73C247.63,375.08,247.48,374.94,247.33,374.79Z"/><path id="Path_55" data-name="Path 55" d="M234.78,459.12c-3.11-5.71-6.9-12.18-10.85-18.92-8.34-14.25-17.39-29.72-22.32-41.72a35.69,35.69,0,0,1-2.69-13.6,36.13,36.13,0,0,1,11.13-26,38.88,38.88,0,0,1,53.74,0,35.86,35.86,0,0,1,8.39,39.75c-5,12-13.94,27.35-22.24,41.52-3.95,6.75-7.74,13.24-10.89,19a2.45,2.45,0,0,1-3.25,1,2.41,2.41,0,0,1-1-1Zm-6.66-21.22c3.11,5.33,6.14,10.49,8.8,15.21,2.67-4.76,5.71-9.95,8.83-15.29,8.21-14.05,17.09-29.23,22-41a31,31,0,0,0,2.38-12,31.49,31.49,0,0,0-9.72-22.72,33.92,33.92,0,0,0-46.9,0,31.46,31.46,0,0,0-9.13,28.78,31,31,0,0,0,1.74,5.83c4.79,11.65,13.77,27,22,41.13Z"/><rect id="Rectangle_157" data-name="Rectangle 157" class="cls-6" x="159.63" y="326.93" width="154.58" height="154.58"/></g><g id="Group_10" data-name="Group 10"><path id="Path_13" data-name="Path 13" class="cls-7" d="M326.61,608.41a9.2,9.2,0,1,1,9.19-9.19A9.19,9.19,0,0,1,326.61,608.41Zm0-15.32a6.13,6.13,0,1,0,6.13,6.13h0a6.14,6.14,0,0,0-6.13-6.13Z"/><path id="Path_14" data-name="Path 14" class="cls-7" d="M334.27,663.58H318.94a1.53,1.53,0,0,1-1.53-1.53v-46a1.54,1.54,0,0,1,1.53-1.53h15.33a1.53,1.53,0,0,1,1.53,1.53h0v46A1.52,1.52,0,0,1,334.27,663.58Zm-13.79-3.06h12.26V617.61H320.48Z"/><path id="Path_15" data-name="Path 15" class="cls-7" d="M389.44,663.58H374.11a1.53,1.53,0,0,1-1.53-1.53h0V634.46c0-3.47-1.45-6.09-4-7.16a8,8,0,0,0-8.28,1.71v33a1.52,1.52,0,0,1-1.53,1.53H343.46a1.53,1.53,0,0,1-1.53-1.53h0v-46a1.54,1.54,0,0,1,1.53-1.53h15.33a1.54,1.54,0,0,1,1.49,1.15c4.92-3.54,13.11-5.51,19.65-3.26,4.95,1.69,10.87,6.35,11.05,19v30.67a1.53,1.53,0,0,1-1.53,1.53Zm-13.79-3.06h12.26V631.4c-.12-8.53-3.22-14.1-9-16.07-7.15-2.44-16.14,1.25-18.95,4.77a1.53,1.53,0,0,1-2.16.22,1.51,1.51,0,0,1-.57-1.18v-1.53H345v42.91h12.26V628.34a1.54,1.54,0,0,1,.45-1.1,11.24,11.24,0,0,1,12.08-2.76c3.72,1.58,5.85,5.22,5.85,10v26Z"/></g><g id="Group_8" data-name="Group 8"><path id="Path_9" data-name="Path 9" class="cls-8" d="M154.89,668.37H121.76a18.93,18.93,0,0,1-18.93-18.94h0V616.3a18.93,18.93,0,0,1,18.93-18.93h33.13a18.94,18.94,0,0,1,18.93,18.93h0v33.13a18.94,18.94,0,0,1-18.93,18.94Z"/><circle id="Ellipse_3" data-name="Ellipse 3" class="cls-8" cx="138.33" cy="632.71" r="17.18"/><circle id="Ellipse_4" data-name="Ellipse 4" class="cls-8" cx="159.62" cy="611.57" r="2.37"/></g><g id="Group_9" data-name="Group 9"><path id="Path_11" data-name="Path 11" class="cls-7" d="M262,590H251.06c-13.92-.14-15.69,8.47-15.69,17.79v6.78h-6.14a1.83,1.83,0,0,0-2,1.56,2,2,0,0,0,0,.49v12.28a1.83,1.83,0,0,0,1.56,2,2,2,0,0,0,.49,0h6.14V661.7a1.84,1.84,0,0,0,1.6,2,1.77,1.77,0,0,0,.46,0h12.51a1.58,1.58,0,0,0,1.8-2V631H262a1.83,1.83,0,0,0,2-1.56,2,2,0,0,0,0-.49V616.66a1.83,1.83,0,0,0-1.56-2,2,2,0,0,0-.49,0H251.73l0-6.14c.39-2.62.39-2.19,2.82-2.05h7.33c.57-.13,1.18-.06,1.6-.47a1.65,1.65,0,0,0,.53-1.58V592.09a1.82,1.82,0,0,0-1.55-2.05A2.09,2.09,0,0,0,262,590Zm-2.18,12.05-5.14-.19c-6.36,0-6.89,3.45-6.89,7l0,7.77a2.19,2.19,0,0,0,2.18,2.19h10v7.91H250a2.19,2.19,0,0,0-2.19,2.19v30.72h-8.3V628.94a2.06,2.06,0,0,0-1.93-2.18h-6.26v-7.92h6.16a2.14,2.14,0,0,0,1.55-.63,2.12,2.12,0,0,0,.48-1.56v-8.82c0-9.18,1.86-13.56,11.6-13.56h8.73v7.82Z"/></g></svg>