<svg id="Layer_1" data-name="Layer 1" xmlns="http://www.w3.org/2000/svg" width="516" height="839" viewBox="0 0 516 839"><defs><style>.cls-1{fill:#f2e7e4;}.cls-2{isolation:isolate;}.cls-3{fill:#55696c;}.cls-4,.cls-5{fill:none;stroke:#707070;}.cls-4{stroke-width:2px;}.cls-5{stroke-miterlimit:4;stroke-width:2px;}</style></defs><rect id="Rectangle_8" data-name="Rectangle 8" class="cls-1" x="0.28" y="-0.19" width="516" height="839"/><g id="Kreativt_indhold" data-name="Kreativt indhold" class="cls-2"><g class="cls-2"><path class="cls-3" d="M105.57,236.81c0-2.91,0-4.44-.08-5.48s-.53-1.13-3.09-1.3l0-1.48c1.18,0,3.7.13,5.83.13,2.3,0,4.83-.13,5.87-.13l.09,1.48c-2.48.17-2.87.26-3,1.21s-.18,2.83-.18,5.48v4.92c2.87-1.57,8-7.92,9.31-10.44.35-.61.22-.78-.3-.87l-2.35-.26.35-1.52c1.34,0,3,.13,4.87.13s3.56-.09,4.74-.13l0,1.48c-2.35.13-3.57.43-4.48,1.3-1.48,1.39-4.3,4.74-7.17,8,2.47,4.17,7.39,11.74,8.91,13.65.87,1.05,1.48,1.26,3.91,1.44l-.21,1.48a41,41,0,0,0-4.79,0,35.5,35.5,0,0,0-4,.31c-.78-1.66-5.61-9.31-7.26-12.14-.65-1-1-1.43-1.57-1.26v4.13c0,3.35.14,5.05.18,6.09s.43,1.13,3.26,1.35l-.09,1.48c-1.43,0-4-.13-6.39-.13-2.26,0-4.78.13-6,.13l.08-1.48c2.74-.22,3.22-.31,3.31-1.35,0-.78.17-2.65.17-5.78Z"/><path class="cls-3" d="M131.28,244.85a36.34,36.34,0,0,0-.26-5.3.8.8,0,0,0-.87-.74h-1.61l0-1.48a35.76,35.76,0,0,0,6.91-.78l.22.13c.18,1,.31,3.22.35,4.26h.13c1-2.35,2.44-4.48,5.22-4.48a2.92,2.92,0,0,1,.35,5.79,1.53,1.53,0,0,1-1.44-.61c-.35-.79-.61-1.26-1.43-1.26-1,0-1.66,1.13-2.18,2.56a6.91,6.91,0,0,0-.35,2.44c0,4.43,0,6.56,0,7.61s.43,1.26,3.65,1.39l-.13,1.48c-2-.05-4-.13-6-.13s-3.7.08-5.44.13l.17-1.48c2-.09,2.4-.31,2.48-1a52.21,52.21,0,0,0,.18-5.26Z"/><path class="cls-3" d="M154.19,256.34c-3.39,0-5.52-1.09-6.95-3a11.09,11.09,0,0,1-1.83-6.61c0-5.39,3-10.31,9.18-10.31,6.52,0,7.61,5.18,7.56,7.79,0,.91-.26,1.52-.87,1.78a17.86,17.86,0,0,1-5,.61c-1.26,0-3.26,0-5.31,0a9.93,9.93,0,0,0,1,4.92,4.07,4.07,0,0,0,3.82,2.3c2.13,0,3.74-1.09,4.92-4l1.39.78C160.67,254.73,157.89,256.34,154.19,256.34Zm.22-18.36c-2.22,0-3.3,3.31-3.39,7.09h2.44a14.88,14.88,0,0,0,3-.22c.52-.12.82-.56.82-1.73,0-1.74-.52-5.14-2.82-5.14Z"/><path class="cls-3" d="M176.07,241.51c0-2-.78-3.53-2.65-3.53s-3,1.09-3,2.79a6.58,6.58,0,0,0,.13,1.35,1.09,1.09,0,0,1-.43,1.08,3.21,3.21,0,0,1-1.87.61,2.15,2.15,0,0,1-2.4-2.26c0-2.39,3.57-5.09,8.31-5.09,3.83,0,5.61,1.61,6.22,2.61a3.92,3.92,0,0,1,.61,2.09v11c0,1.39.39,1.65.87,1.65s1.26-.83,1.65-2.52l1.35.61c-.65,3.17-2.48,4.48-5,4.48a3.44,3.44,0,0,1-3.78-3c-1.83,1.87-3.83,3-5.83,3-3.26,0-5.31-2.18-5.31-5.48a4,4,0,0,1,2.53-4.05c2.74-1.17,6.74-2.39,8.52-3.69Zm-5.7,8.43c0,1.79.83,3.44,2.61,3.44a3,3,0,0,0,2.83-2,5.32,5.32,0,0,0,.26-1.82v-4.79c-.91.57-2.61,1.31-3.87,2.05a3,3,0,0,0-1.83,3Z"/><path class="cls-3" d="M198.34,237.11l-.13,1.61-5.13.26c0,1.57-.09,3.57-.09,6.79a60,60,0,0,0,.22,6.91c.08,1,.6,1.48,1.43,1.48,1.65,0,2.65-1.52,3.09-3.26h.69l.48,1.78a6.48,6.48,0,0,1-6.26,3.66,5,5,0,0,1-4-1.53,4.22,4.22,0,0,1-.79-2.74c0-3.26.18-9.95.18-13.09l-2.66-.26.18-1.61H188c0-1.39,0-3.21,0-4.6a17,17,0,0,0,4.83-2.18l.44.13c-.09,1.09-.22,4.39-.22,6.65Z"/><path class="cls-3" d="M210.65,255.86c-1.53,0-3.13-.13-5.44-.13-2.48,0-3.78.13-5.09.13v-1.48c2.39-.09,2.66-.39,2.74-1.26s.13-2.39.13-4.7v-4.83c0-2,0-3.39-.08-4.08s-.4-.83-2.57-.74l0-1.48a60.19,60.19,0,0,0,7.83-.78c0,1-.13,3-.13,6.69v5.27c0,2.39.09,3.6.09,4.6s.43,1.18,2.52,1.31ZM205.21,228A2.58,2.58,0,0,1,208,230.9a2.74,2.74,0,0,1-3,2.78,2.62,2.62,0,0,1-2.7-2.74,2.76,2.76,0,0,1,2.83-2.91Z"/><path class="cls-3" d="M210.78,236.94c1,0,3,.13,4.74.13s4-.13,5.3-.13l.18,1.48-1.44.17c-.65.09-.74.35-.52,1,.87,2.91,2.91,8.52,3.65,10.69,1.18-3.34,2.79-7.78,3.48-10.48.22-.82.09-1.17-.61-1.26l-1.74-.17v-1.48c1.39,0,2.79.13,4.05.13,1.52,0,2.69-.13,3.61-.13v1.48c-2,.17-2.48.56-3.35,2.43-2.09,4.74-4.39,11.31-5.74,15.22a21.21,21.21,0,0,0-2.87.22c-1.57-4.61-4.87-13.52-5.87-15.91-.7-1.61-1-1.92-2.83-2Z"/><path class="cls-3" d="M245.13,237.11l-.13,1.61-5.13.26c0,1.57-.08,3.57-.08,6.79a63.3,63.3,0,0,0,.21,6.91c.09,1,.61,1.48,1.44,1.48,1.65,0,2.65-1.52,3.09-3.26h.69l.48,1.78a6.48,6.48,0,0,1-6.26,3.66,5,5,0,0,1-4.05-1.53,4.28,4.28,0,0,1-.78-2.74c0-3.26.17-9.95.17-13.09l-2.65-.26.18-1.61h2.52c0-1.39,0-3.21,0-4.6a17,17,0,0,0,4.83-2.18l.43.13c-.08,1.09-.21,4.39-.21,6.65Z"/><path class="cls-3" d="M266.7,255.86c-1.52,0-3.13-.13-5.43-.13-2.48,0-3.78.13-5.09.13v-1.48c2.39-.09,2.65-.39,2.74-1.26s.13-2.39.13-4.7v-4.83c0-2,0-3.39-.09-4.08s-.39-.83-2.56-.74l0-1.48a60.19,60.19,0,0,0,7.83-.78c0,1-.13,3-.13,6.69v5.27c0,2.39.09,3.6.09,4.6s.43,1.18,2.52,1.31ZM261.27,228a2.58,2.58,0,0,1,2.78,2.87,2.74,2.74,0,0,1-2.95,2.78,2.62,2.62,0,0,1-2.7-2.74,2.76,2.76,0,0,1,2.83-2.91Z"/><path class="cls-3" d="M268.79,254.38c2.09-.09,2.35-.26,2.44-1.35.09-1.35.13-2.87.13-4.65v-3.92c0-2.08,0-3.78-.13-5,0-.57-.26-.7-2.31-.74l.05-1.48a44,44,0,0,0,7.17-.61,24.08,24.08,0,0,1,.31,2.87c1.48-1.39,3.43-3.09,6.35-3.09a5.07,5.07,0,0,1,4.78,2.52,5.7,5.7,0,0,1,.61,2.74V253.2c0,.92.22,1,2.61,1.18l-.05,1.48c-1.6,0-3.21-.13-5.26-.13-2.22,0-3.74.13-4.74.13l.05-1.48c1.65-.09,2.08-.35,2.13-1.22s.17-2.61.17-5.74c0-5.83,0-6.3-.35-6.91a2.32,2.32,0,0,0-2.26-1.31,4.2,4.2,0,0,0-3.61,2.18,3.48,3.48,0,0,0-.43,2v5.3c0,1.61,0,3.44.08,4.52.05.83.44,1.05,2.31,1.18l0,1.48c-1.05,0-3.35-.13-5.09-.13-2,0-3.65.13-4.92.13Z"/><path class="cls-3" d="M303.54,227.55c2.09,0,6.44-.39,8.31-.61-.05,1.78-.18,4.87-.18,9l0,10.18c0,3.43,0,5.48.17,7,.09.78.31,1,.92,1h1.91l-.22,1.48a46.34,46.34,0,0,0-7.87.74c0-.87,0-2,0-2.78h-.13a8.15,8.15,0,0,1-5.78,2.74,6.66,6.66,0,0,1-5.52-2.61,11.13,11.13,0,0,1-2-6.7c0-5.65,3.13-10.57,9.74-10.57a6.6,6.6,0,0,1,3.61.87c0-3.39,0-5.56,0-7.17-.09-1.13-.35-1.22-3.13-1.18Zm-4.87,18.65a11.27,11.27,0,0,0,1.22,5.61,3.61,3.61,0,0,0,6.26,0c.3-.48.39-1.09.39-5.44,0-5.13,0-5.87-.26-6.3a3.23,3.23,0,0,0-3.09-1.87c-2.95,0-4.52,3.35-4.52,8Z"/><path class="cls-3" d="M316.42,227.46c2.52,0,6.65-.35,7.65-.52,0,1.74-.13,4.48-.13,7.74v4.74a9.88,9.88,0,0,1,6.52-3c3.05,0,4.26,1.7,4.65,2.48a6.52,6.52,0,0,1,.61,3.13c0,3.66,0,8.74,0,11.13,0,1,.18,1.05,2.53,1.18l-.05,1.48c-1.3,0-3.09-.13-5-.13-2.13,0-3.7.13-4.87.13l0-1.48c1.7,0,2.09-.35,2.13-1.18s.18-2.65.18-5.74c0-5.69-.09-6.26-.31-6.78a2.31,2.31,0,0,0-2.3-1.56,4,4,0,0,0-3.61,2.08,3.69,3.69,0,0,0-.48,2.05v4.61c0,2.08,0,4,0,5.08s.35,1.35,2.22,1.44v1.48c-1.13,0-3.22-.13-5-.13-2.3,0-3.78.13-5,.13v-1.48c2.05-.09,2.44-.31,2.48-1.35.09-1.26.13-2.57.13-6.26V234.68c0-2.91,0-4-.09-5,0-.65-.39-.78-2.34-.78Z"/><path class="cls-3" d="M350.69,236.46c5.91,0,9.39,4.13,9.39,9.83,0,5.91-3.52,10-9.74,10-6.66,0-9.57-4.4-9.57-9.74s3.35-10.14,9.87-10.14Zm-.31,1.57a3.13,3.13,0,0,0-2.83,1.78,13.42,13.42,0,0,0-1.08,5.92,17.38,17.38,0,0,0,1.13,6.87,3.45,3.45,0,0,0,3.13,2.17,2.9,2.9,0,0,0,2.82-2,15.4,15.4,0,0,0,.92-6,16.12,16.12,0,0,0-1.13-6.74,3.21,3.21,0,0,0-2.92-2Z"/><path class="cls-3" d="M362.56,227.51a67.68,67.68,0,0,0,7.83-.57c0,1.26-.14,3.56-.14,8.22v11c0,4.05,0,5.7.05,6.83s.56,1.26,2.7,1.35l-.05,1.48c-1.61,0-4-.13-5.78-.13-2.09,0-3.57.13-4.87.13v-1.48c2.26,0,2.61-.35,2.69-1.52.05-.83.18-3.35.18-6.79V235.25c0-2.92,0-4.18-.05-5.31,0-.83-.3-1-2.61-1Z"/><path class="cls-3" d="M385.91,227.55c2.09,0,6.44-.39,8.31-.61-.05,1.78-.18,4.87-.18,9l0,10.18c0,3.43,0,5.48.17,7,.09.78.31,1,.92,1H397l-.22,1.48a46.34,46.34,0,0,0-7.87.74c0-.87,0-2,0-2.78h-.13a8.17,8.17,0,0,1-5.79,2.74,6.66,6.66,0,0,1-5.52-2.61,11.13,11.13,0,0,1-2-6.7c0-5.65,3.13-10.57,9.74-10.57a6.6,6.6,0,0,1,3.61.87c0-3.39,0-5.56,0-7.17-.09-1.13-.35-1.22-3.13-1.18ZM381,246.2a11.27,11.27,0,0,0,1.22,5.61,3.61,3.61,0,0,0,6.26,0c.31-.48.39-1.09.39-5.44,0-5.13,0-5.87-.26-6.3a3.23,3.23,0,0,0-3.09-1.87c-2.95,0-4.52,3.35-4.52,8Z"/></g></g><g id="Klik_her_for_at_se-2" data-name="Klik her for at se-2" class="cls-2"><g class="cls-2"><path class="cls-3" d="M171.76,316.6a1.25,1.25,0,0,1-.41.93,1.31,1.31,0,0,1-.94.39,1.37,1.37,0,0,1-1-.45l-10-9v8a1.48,1.48,0,0,1-.37,1.07A1.44,1.44,0,0,1,158,318a1.41,1.41,0,0,1-1-.39,1.45,1.45,0,0,1-.39-1.07v-17.1a1.45,1.45,0,0,1,.39-1.05,1.35,1.35,0,0,1,1-.41,1.43,1.43,0,0,1,1.06.39,1.45,1.45,0,0,1,.39,1.07v7.67l9.55-8.71a1.29,1.29,0,0,1,1.85,0,1.23,1.23,0,0,1,.39.89,1.36,1.36,0,0,1-.47,1l-8.35,7.44,8.85,8A1.3,1.3,0,0,1,171.76,316.6Z"/><path class="cls-3" d="M174.63,317.61a1.23,1.23,0,0,1-.41-1V299.3a1.27,1.27,0,0,1,.41-1,1.52,1.52,0,0,1,1-.35,1.48,1.48,0,0,1,1,.35,1.29,1.29,0,0,1,.39,1v17.3a1.25,1.25,0,0,1-.39,1,1.47,1.47,0,0,1-1,.34A1.51,1.51,0,0,1,174.63,317.61Z"/><path class="cls-3" d="M181.14,300.67a1.53,1.53,0,0,1-.48-1.17,1.47,1.47,0,0,1,.48-1.16,1.81,1.81,0,0,1,1.28-.44,1.86,1.86,0,0,1,1.28.44,1.47,1.47,0,0,1,.49,1.16,1.53,1.53,0,0,1-.48,1.17,1.79,1.79,0,0,1-1.29.45A1.77,1.77,0,0,1,181.14,300.67Zm.26,16.94a1.23,1.23,0,0,1-.4-1V305.24a1.26,1.26,0,0,1,.4-1,1.48,1.48,0,0,1,1-.36,1.44,1.44,0,0,1,1,.36,1.29,1.29,0,0,1,.39,1V316.6a1.25,1.25,0,0,1-.39,1,1.47,1.47,0,0,1-1,.34A1.51,1.51,0,0,1,181.4,317.61Z"/><path class="cls-3" d="M199.76,316.63a1.33,1.33,0,0,1-.37.93,1.14,1.14,0,0,1-.87.39,1.37,1.37,0,0,1-1-.39l-7-6.16v5.18a1.3,1.3,0,0,1-.39,1,1.48,1.48,0,0,1-1,.35,1.52,1.52,0,0,1-1-.35,1.28,1.28,0,0,1-.41-1V299.3a1.27,1.27,0,0,1,.41-1,1.52,1.52,0,0,1,1-.35,1.48,1.48,0,0,1,1,.35,1.29,1.29,0,0,1,.39,1v11l6.38-6a1.44,1.44,0,0,1,.93-.42,1.26,1.26,0,0,1,.92.39,1.29,1.29,0,0,1,.39.93,1.32,1.32,0,0,1-.47,1l-5,4.56,5.49,4.85A1.28,1.28,0,0,1,199.76,316.63Z"/><path class="cls-3" d="M221.9,309.32v7.28a1.3,1.3,0,0,1-.39,1,1.65,1.65,0,0,1-2.06,0,1.32,1.32,0,0,1-.37-1v-7.25a3.65,3.65,0,0,0-.69-2.46,2.71,2.71,0,0,0-2.14-.79,3.67,3.67,0,0,0-2.75,1.07,3.91,3.91,0,0,0-1,2.85v6.58a1.33,1.33,0,0,1-.38,1,1.41,1.41,0,0,1-1,.36,1.48,1.48,0,0,1-1-.36,1.3,1.3,0,0,1-.39-1V299.27a1.27,1.27,0,0,1,.41-1,1.52,1.52,0,0,1,1-.36,1.41,1.41,0,0,1,1,.35,1.21,1.21,0,0,1,.38.94v7a4.6,4.6,0,0,1,1.87-1.79,5.74,5.74,0,0,1,2.69-.62Q221.91,303.81,221.9,309.32Z"/><path class="cls-3" d="M237.11,314.67a1.21,1.21,0,0,1,.25.79,1.61,1.61,0,0,1-1,1.37,9.23,9.23,0,0,1-2.14.87A9,9,0,0,1,232,318a6.86,6.86,0,0,1-5.12-1.9A7,7,0,0,1,225,311a8.09,8.09,0,0,1,.83-3.72,6,6,0,0,1,2.32-2.52,6.51,6.51,0,0,1,3.41-.9,5.59,5.59,0,0,1,4.34,1.76,6.86,6.86,0,0,1,1.59,4.76c0,.75-.33,1.12-1,1.12h-8.65c.19,2.9,1.58,4.34,4.17,4.34a5.16,5.16,0,0,0,1.8-.28,12.14,12.14,0,0,0,1.59-.73l.46-.23a1.66,1.66,0,0,1,.63-.19A.83.83,0,0,1,237.11,314.67ZM229,306.92a4.79,4.79,0,0,0-1.18,2.91H235a4.7,4.7,0,0,0-1-2.93,3.1,3.1,0,0,0-2.48-1A3.41,3.41,0,0,0,229,306.92Z"/><path class="cls-3" d="M249.09,305a1.26,1.26,0,0,1-.31.93,1.69,1.69,0,0,1-1.06.36l-.84.09a3.61,3.61,0,0,0-2.62,1.23,4,4,0,0,0-.85,2.57v6.41a1.25,1.25,0,0,1-.39,1,1.49,1.49,0,0,1-1,.34,1.51,1.51,0,0,1-1-.34,1.2,1.2,0,0,1-.41-1V305.21a1.2,1.2,0,0,1,.41-1,1.48,1.48,0,0,1,1-.36,1.33,1.33,0,0,1,.94.36,1.24,1.24,0,0,1,.37,1v1.34a4.15,4.15,0,0,1,1.63-1.87,5.52,5.52,0,0,1,2.41-.76l.39,0C248.64,303.81,249.09,304.19,249.09,305Z"/><path class="cls-3" d="M262.59,301.11a3.31,3.31,0,0,0-.67,2.25v.79h2.77a1.29,1.29,0,0,1,.91.29,1,1,0,0,1,.32.8,1,1,0,0,1-.32.79,1.3,1.3,0,0,1-.91.3h-2.77v10.25a1.28,1.28,0,0,1-.41,1,1.52,1.52,0,0,1-1,.35,1.48,1.48,0,0,1-1-.35,1.3,1.3,0,0,1-.39-1V306.33h-1.68a1.26,1.26,0,0,1-.91-.3,1,1,0,0,1-.33-.79,1,1,0,0,1,.33-.8,1.26,1.26,0,0,1,.91-.29h1.68v-.37a5.91,5.91,0,0,1,1.31-4,5.3,5.3,0,0,1,3.73-1.63l.73-.06a2.24,2.24,0,0,1,1.3.2.87.87,0,0,1,.4.81c0,.65-.39,1-1.17,1.12l-.73.06A2.89,2.89,0,0,0,262.59,301.11Z"/><path class="cls-3" d="M270.05,317.14a5.86,5.86,0,0,1-2.35-2.48,8.08,8.08,0,0,1-.83-3.74,8.18,8.18,0,0,1,.83-3.77,5.84,5.84,0,0,1,2.35-2.47,7.64,7.64,0,0,1,7.08,0,5.92,5.92,0,0,1,2.36,2.47,8.18,8.18,0,0,1,.82,3.77,8.08,8.08,0,0,1-.82,3.74,6,6,0,0,1-2.36,2.48,7.64,7.64,0,0,1-7.08,0Zm6.41-2.61a7,7,0,0,0,0-7.21,3.91,3.91,0,0,0-5.71,0,5.56,5.56,0,0,0-1,3.6,5.65,5.65,0,0,0,1,3.61,3.94,3.94,0,0,0,5.74,0Z"/><path class="cls-3" d="M292,305a1.26,1.26,0,0,1-.31.93,1.69,1.69,0,0,1-1.06.36l-.84.09a3.61,3.61,0,0,0-2.62,1.23,4,4,0,0,0-.85,2.57v6.41a1.26,1.26,0,0,1-.4,1,1.44,1.44,0,0,1-1,.34,1.52,1.52,0,0,1-1-.34,1.23,1.23,0,0,1-.4-1V305.21a1.23,1.23,0,0,1,.4-1,1.49,1.49,0,0,1,1-.36,1.29,1.29,0,0,1,.93.36,1.21,1.21,0,0,1,.38,1v1.34a4.1,4.1,0,0,1,1.63-1.87,5.47,5.47,0,0,1,2.4-.76l.4,0C291.51,303.81,292,304.19,292,305Z"/><path class="cls-3" d="M310.87,305.18a5.79,5.79,0,0,1,1.33,4.17v7.25a1.33,1.33,0,0,1-.36,1,1.41,1.41,0,0,1-1,.35,1.33,1.33,0,0,1-1-.36,1.35,1.35,0,0,1-.36-1v-1a4,4,0,0,1-1.59,1.81,4.62,4.62,0,0,1-2.44.63,5.63,5.63,0,0,1-2.47-.55,4.15,4.15,0,0,1-1.75-1.53,3.94,3.94,0,0,1-.63-2.18,3.38,3.38,0,0,1,.77-2.34,4.62,4.62,0,0,1,2.55-1.22,25.78,25.78,0,0,1,4.88-.36h.65V309a3.29,3.29,0,0,0-.65-2.27,2.68,2.68,0,0,0-2.07-.7,6.56,6.56,0,0,0-1.85.25,14.2,14.2,0,0,0-1.9.73,2.74,2.74,0,0,1-1.06.42.86.86,0,0,1-.69-.31,1.14,1.14,0,0,1-.27-.78,1.24,1.24,0,0,1,.24-.75A2.73,2.73,0,0,1,302,305a10.12,10.12,0,0,1,2.3-.85,10.92,10.92,0,0,1,2.55-.32A5.39,5.39,0,0,1,310.87,305.18Zm-2.39,9.67a3.81,3.81,0,0,0,1-2.7v-.72H309a22.21,22.21,0,0,0-3.37.19,3.22,3.22,0,0,0-1.67.66,1.7,1.7,0,0,0-.51,1.33,2.09,2.09,0,0,0,.73,1.65,2.63,2.63,0,0,0,1.82.64A3.25,3.25,0,0,0,308.48,314.85Z"/><path class="cls-3" d="M323.64,316.11a1,1,0,0,1,.27.75,1,1,0,0,1-.44.85,2,2,0,0,1-1.27.24l-.76-.06a4.92,4.92,0,0,1-3.39-1.38,5.19,5.19,0,0,1-1.12-3.6v-6.58h-1.68c-.82,0-1.23-.36-1.23-1.09a1,1,0,0,1,.32-.8,1.29,1.29,0,0,1,.91-.29h1.68v-2.89a1.36,1.36,0,0,1,.38-1,1.43,1.43,0,0,1,1-.36,1.48,1.48,0,0,1,1,.36,1.33,1.33,0,0,1,.39,1v2.89h2.78a1.25,1.25,0,0,1,.9.29,1.15,1.15,0,0,1,0,1.61,1.29,1.29,0,0,1-.9.28h-2.78v6.77a2.85,2.85,0,0,0,.55,1.94,2.37,2.37,0,0,0,1.66.7l.79.05A1.47,1.47,0,0,1,323.64,316.11Z"/><path class="cls-3" d="M333.43,316.83a2.2,2.2,0,0,1-.72-.64,1.43,1.43,0,0,1-.21-.76,1.22,1.22,0,0,1,.25-.76.83.83,0,0,1,.65-.31,3,3,0,0,1,1.15.45,12.07,12.07,0,0,0,1.63.73,6.08,6.08,0,0,0,2,.28,4,4,0,0,0,2.1-.47A1.52,1.52,0,0,0,341,314a1.37,1.37,0,0,0-.29-.9,2.63,2.63,0,0,0-1-.6,18.41,18.41,0,0,0-2.16-.57,8.48,8.48,0,0,1-3.54-1.44A3.07,3.07,0,0,1,333,308a3.58,3.58,0,0,1,.7-2.17,4.57,4.57,0,0,1,1.93-1.5,7.1,7.1,0,0,1,2.8-.53,8.44,8.44,0,0,1,2.19.29,6.06,6.06,0,0,1,1.87.86,1.73,1.73,0,0,1,.93,1.43,1.1,1.1,0,0,1-.27.75.8.8,0,0,1-.63.31,1.25,1.25,0,0,1-.5-.11,7.41,7.41,0,0,1-.68-.37,9.19,9.19,0,0,0-1.41-.7,4.56,4.56,0,0,0-1.64-.25,3.27,3.27,0,0,0-1.89.5,1.62,1.62,0,0,0-.71,1.38,1.36,1.36,0,0,0,.66,1.21,7.87,7.87,0,0,0,2.47.83,13.29,13.29,0,0,1,2.94.9,3.49,3.49,0,0,1,1.53,1.24,3.53,3.53,0,0,1,.46,1.89,3.46,3.46,0,0,1-1.52,2.93A6.8,6.8,0,0,1,338.1,318,8.49,8.49,0,0,1,333.43,316.83Z"/><path class="cls-3" d="M358.18,314.67a1.21,1.21,0,0,1,.25.79,1.61,1.61,0,0,1-1,1.37,9.23,9.23,0,0,1-2.14.87,9,9,0,0,1-2.23.31,6.86,6.86,0,0,1-5.12-1.9,7,7,0,0,1-1.88-5.16,8.09,8.09,0,0,1,.83-3.72,6,6,0,0,1,2.32-2.52,6.51,6.51,0,0,1,3.41-.9,5.59,5.59,0,0,1,4.34,1.76,6.86,6.86,0,0,1,1.59,4.76c0,.75-.33,1.12-1,1.12h-8.65c.19,2.9,1.58,4.34,4.17,4.34a5.16,5.16,0,0,0,1.8-.28,12.14,12.14,0,0,0,1.59-.73l.46-.23a1.66,1.66,0,0,1,.63-.19A.83.83,0,0,1,358.18,314.67Zm-8.12-7.75a4.79,4.79,0,0,0-1.18,2.91h7.23a4.7,4.7,0,0,0-1-2.93,3.1,3.1,0,0,0-2.48-1A3.41,3.41,0,0,0,350.06,306.92Z"/></g></g><g id="Group_61" data-name="Group 61"><path id="Path_64-2" data-name="Path 64-2" class="cls-4" d="M245.38,334.6s-3.26,25.26,28.51,49.52,40.4-4.59,30.19-6.95-25.59,26.42-10,37.87,57.44,13.68,57.44,13.68"/><path id="Path_65-2" data-name="Path 65-2" class="cls-5" d="M341.7,420.9l11,8-11,6.85"/></g></svg>