<svg id="Layer_1" data-name="Layer 1" xmlns="http://www.w3.org/2000/svg" xmlns:xlink="http://www.w3.org/1999/xlink" width="516" height="838" viewBox="0 0 516 838"><defs><style>.cls-1{fill:#a98edd;}.cls-2{fill:#a28af9;}.cls-3{fill:#c1aaff;}.cls-4{fill:url(#linear-gradient);}.cls-5{fill:#6e29ff;}.cls-6{fill:url(#linear-gradient-2);}.cls-7{fill:url(#radial-gradient);}.cls-8{fill:url(#radial-gradient-2);}.cls-9{fill:#d7dce8;}.cls-10{fill:#e0c2f9;}.cls-11{fill:url(#linear-gradient-3);}.cls-12{fill:#ccc0ff;}.cls-13,.cls-17,.cls-19,.cls-20,.cls-24,.cls-25{isolation:isolate;}.cls-13{opacity:0.1;}.cls-14{fill:url(#linear-gradient-4);}.cls-15{fill:#4000bc;}.cls-16{fill:url(#linear-gradient-5);}.cls-17{fill:#c6811c;}.cls-17,.cls-20,.cls-25{opacity:0.5;}.cls-18{fill:url(#linear-gradient-6);}.cls-19,.cls-24{opacity:0.3;}.cls-19{fill:url(#linear-gradient-7);}.cls-20{fill:url(#linear-gradient-8);}.cls-21{fill:url(#linear-gradient-9);}.cls-22{fill:url(#linear-gradient-10);}.cls-23{fill:url(#linear-gradient-11);}.cls-24{fill:url(#linear-gradient-12);}.cls-25{fill:url(#linear-gradient-13);}.cls-26{fill:url(#linear-gradient-14);}</style><linearGradient id="linear-gradient" x1="176.25" y1="265.66" x2="344.15" y2="265.66" gradientUnits="userSpaceOnUse"><stop offset="0" stop-color="#6e29ff"/><stop offset="1" stop-color="#c1aaff"/></linearGradient><linearGradient id="linear-gradient-2" x1="275.79" y1="-738.53" x2="345.2" y2="-738.53" gradientTransform="matrix(0.35, 0.94, 0.94, -0.35, 891.12, -295.66)" gradientUnits="userSpaceOnUse"><stop offset="0" stop-color="#e8e8e8"/><stop offset="0.07" stop-color="#c5c5c5"/><stop offset="0.16" stop-color="#9f9f9f"/><stop offset="0.26" stop-color="#7e7e7e"/><stop offset="0.36" stop-color="#636363"/><stop offset="0.48" stop-color="#4f4f4f"/><stop offset="0.6" stop-color="#404040"/><stop offset="0.76" stop-color="#383838"/><stop offset="1" stop-color="#353535"/></linearGradient><radialGradient id="radial-gradient" cx="351.56" cy="-643.47" r="67.47" gradientTransform="matrix(1, 0, 0, -1, 0, -482.19)" gradientUnits="userSpaceOnUse"><stop offset="0.84" stop-color="#353535"/><stop offset="1" stop-color="#e8e8e8"/></radialGradient><radialGradient id="radial-gradient-2" cx="351.56" cy="-643.47" r="57.12" gradientTransform="matrix(1, 0, 0, -1, 0, -482.19)" gradientUnits="userSpaceOnUse"><stop offset="0" stop-color="#f0f3fb"/><stop offset="0.31" stop-color="#e0e6f5"/><stop offset="0.92" stop-color="#b6c6e7"/><stop offset="1" stop-color="#b0c1e5"/></radialGradient><linearGradient id="linear-gradient-3" x1="-8527.6" y1="2261.29" x2="-8188.02" y2="2261.29" gradientTransform="matrix(-0.74, -0.67, 0.67, -0.74, -7443.71, -3348.92)" xlink:href="#linear-gradient"/><linearGradient id="linear-gradient-4" x1="-8947.61" y1="1022.68" x2="-8608.04" y2="1022.68" gradientTransform="translate(-8130.65 -2404.91) rotate(-153.43) scale(1.01)" gradientUnits="userSpaceOnUse"><stop offset="0" stop-color="#8251ff"/><stop offset="1" stop-color="#c1aaff"/></linearGradient><linearGradient id="linear-gradient-5" x1="-9135.99" y1="999.46" x2="-9082.4" y2="993.28" gradientTransform="translate(-7864.65 -2231.85) rotate(-153.43) scale(0.94 1.07)" gradientUnits="userSpaceOnUse"><stop offset="0" stop-color="#ffbd55"/><stop offset="0.2" stop-color="#d48715"/><stop offset="0.53" stop-color="#fc6"/><stop offset="1" stop-color="#c97500"/></linearGradient><linearGradient id="linear-gradient-6" x1="-8788.33" y1="1320.55" x2="-8737.76" y2="1320.55" gradientTransform="translate(-8004.32 -2623.54) rotate(-150.11)" gradientUnits="userSpaceOnUse"><stop offset="0" stop-color="#fff"/><stop offset="1" stop-color="#ccc"/></linearGradient><linearGradient id="linear-gradient-7" x1="-383.68" y1="1054.27" x2="-329.45" y2="1054.27" gradientTransform="matrix(0, 1, 1, 0, -788.24, 995.83)" gradientUnits="userSpaceOnUse"><stop offset="0" stop-color="#aef0ff"/><stop offset="1" stop-color="#0078aa"/></linearGradient><linearGradient id="linear-gradient-8" x1="-8886.96" y1="998.13" x2="-8908.42" y2="999.36" gradientTransform="matrix(-0.89, -0.45, 0.48, -0.97, -8098.42, -2380.44)" xlink:href="#linear-gradient-7"/><linearGradient id="linear-gradient-9" x1="-4194.56" y1="4341.5" x2="-4158.06" y2="4341.5" gradientTransform="translate(-2442.58 -4757.06) rotate(-70.66)" xlink:href="#linear-gradient-6"/><linearGradient id="linear-gradient-10" x1="-247.78" y1="1420.41" x2="-194.19" y2="1414.25" gradientTransform="matrix(0.78, 0.51, 0.59, -0.9, -460.45, 2019.2)" xlink:href="#linear-gradient-5"/><linearGradient id="linear-gradient-11" x1="-474.76" y1="1298.6" x2="-424.2" y2="1298.6" gradientTransform="matrix(0.87, 0.5, 0.5, -0.87, -38.26, 1952.47)" xlink:href="#linear-gradient-6"/><linearGradient id="linear-gradient-12" x1="-8701.19" y1="1505.43" x2="-8646.96" y2="1505.43" gradientTransform="translate(-1305.39 -8044.13) rotate(-90)" xlink:href="#linear-gradient-7"/><linearGradient id="linear-gradient-13" x1="-565.48" y1="1400.26" x2="-586.95" y2="1401.48" gradientTransform="matrix(0.84, 0.55, 0.59, -0.91, -174.04, 2199.33)" xlink:href="#linear-gradient-7"/><linearGradient id="linear-gradient-14" x1="-2694.04" y1="-3865.47" x2="-2657.56" y2="-3865.47" gradientTransform="matrix(0.65, -0.76, -0.76, -0.65, -968.2, -3927.06)" xlink:href="#linear-gradient-6"/></defs><g id="Layer_1-2" data-name="Layer 1"><path class="cls-1" d="M187.37,300.24a10.48,10.48,0,0,0,5.29-13.84h0L120.6,125.16l-20.55-20.32q.7,14.43,1.44,28.87l72,161.24A10.48,10.48,0,0,0,187.37,300.24Z"/><path d="M100.21,105.33l.33,9,6.29-2.8Z"/><path d="M87.6,306c2.82,1.71,13.4-11.06,19.17-17.9,14.44-17.09,40.84-51.88,89-128.64.75-1.36,1.57-2.91,2.4-4.65s1.58-3.36,2.33-5.18a96.73,96.73,0,0,0,6.3-22.45,62.84,62.84,0,0,0-20.4,15.22,59.91,59.91,0,0,0-5.61,7.37c-5,7.7-53.72,67.84-85.54,133.2-1.52,3.13-4.33,9-7.66,16.63C87,302.09,86.39,305.24,87.6,306Z"/><path d="M208.35,126.65c4.89,2.77,11.45-2.8,12.14-3.37,6.94-5.9,8.61-17.42,4-26.23-3-5.67-8.44-9.91-9.57-9.28s2.67,4.71,1.77,9.58c-.72,4-3.73,4.1-8.75,11-2.18,3-3.27,4.52-3.63,6.91C203.73,118.85,204.71,124.56,208.35,126.65Z"/><path class="cls-2" d="M210.35,106.49c.8,3.43,7.53,5.72,9.91,3.8,1.18-1,.91-2.58,2.08-3,1.59-.52,3.18,2.26,4.22,1.85s1.07-4.94-.31-9C223,90.6,213.67,85.29,212.91,86c-.45.43,2.44,2.5,2.55,6.4.06,1.92-.81,3.85-2.55,7.67C210.78,104.73,210.05,105.22,210.35,106.49Z"/><path class="cls-3" d="M101.76,132.42A27.8,27.8,0,0,0,120.35,125l-13.63-13.63-6.2,2.47Q101.15,123.15,101.76,132.42Z"/><circle class="cls-4" cx="260.2" cy="265.66" r="83.95"/><path class="cls-5" d="M234.19,345.45q13-39.88,26-79.79l-79.79-26c-1.84,4.61-12.57,33,2.08,63.51C198.06,335.56,229.71,344.3,234.19,345.45Z"/><path class="cls-3" d="M222.21,191l37.65,75.76L180.34,240A82.56,82.56,0,0,1,222.2,191Z"/><rect class="cls-6" x="247.83" y="239.16" width="125.33" height="34.38" rx="12.35" transform="translate(-39.23 455.88) rotate(-69.25)"/><circle class="cls-7" cx="351.56" cy="161.28" r="67.47"/><circle class="cls-8" cx="351.56" cy="161.28" r="57.12"/><path class="cls-9" d="M314.05,133.31c-2.35-4.07,4.86-14.51,14.38-19,8.18-3.85,17.12-2.83,17.36-1.57s-8.07,1.13-13.92,7.66c-5.36,6-3.78,12.12-8.83,14.41C319.91,136.23,315.35,135.59,314.05,133.31Z"/><ellipse class="cls-9" cx="354.78" cy="112.39" rx="3.25" ry="5.15" transform="translate(231.85 463.66) rotate(-88.29)"/><path class="cls-10" d="M224.27,102.81c1-.59.35-3.85-.71-6.08s-2.74-4-3.05-3.8,1,1.68,1.16,4.29c.11,2.16-.69,3,0,4.22S223.63,103.19,224.27,102.81Z"/><ellipse class="cls-10" cx="218.31" cy="91.04" rx="0.91" ry="1.44" transform="translate(0.58 183.47) rotate(-45.64)"/></g><g id="Layer_2" data-name="Layer 2"><path class="cls-11" d="M146.29,446.12,157.17,434l18.9,17,20.17-22.44A950.2,950.2,0,0,0,287.18,525,951.26,951.26,0,0,0,411,621.44l-20.15,22.44,19,17L399,673c-.59-.17-12.93-3.28-20.83,5.28-5.11,5.53-6.4,13.84-3.36,21.66l-13.15,14.63-18.92-17-19.29,21.48a958.65,958.65,0,0,1-113.79-87.5,957.3,957.3,0,0,1-101-105.39l19.28-21.48-18.92-17L122.1,473c8.09,2.19,16.22,0,21.18-5.67C150.93,458.61,146.56,446.67,146.29,446.12Z"/><path class="cls-12" d="M143.57,533.64A708.91,708.91,0,0,0,319.46,691q31.41-35.12,62.83-70.31a725.27,725.27,0,0,1-100-76.57,725.49,725.49,0,0,1-75.89-80.78Z"/><path class="cls-13" d="M116.31,544l9.78-4.77-1.57-19,13.47-27a947.09,947.09,0,0,0,113.39,68.68,951.43,951.43,0,0,0,145,60.06q-6.74,13.47-13.46,27l-32.17,64.58-21.84-4.6A392.51,392.51,0,0,1,79.45,610.56a113.75,113.75,0,0,0,31.42-45.68A109.47,109.47,0,0,0,116.31,544Z"/><path class="cls-14" d="M89.47,527.66l7.24-14.57,22.77,11.26,13.47-27A949.91,949.91,0,0,0,246.34,566a949.92,949.92,0,0,0,145.1,60L378,653l22.77,11.34-7.36,14.56c-.6,0-13.32.3-18.66,10.63-3.47,6.71-2.49,15.05,2.53,21.78L368.48,729l-22.69-11.31-12.87,25.84a957.18,957.18,0,0,1-133-54A954.21,954.21,0,0,1,74.47,614.78L87.33,589,64.57,577.61,73.33,560c8.39,0,15.64-4.31,18.9-11.1C97.27,538.38,89.83,528.06,89.47,527.66Z"/><path class="cls-12" d="M106.08,619.09a709,709,0,0,0,96.49,56.55A710.25,710.25,0,0,0,319.41,720l40.3-85.27a725.1,725.1,0,0,1-117.65-45,726.16,726.16,0,0,1-95.74-55.92Z"/></g><g id="Layer_3" data-name="Layer 3"><path class="cls-15" d="M179.13,526.46l-1-.87-.27-2.12c-.61-5.06-1.1-7.48-2.85-9.12-1.2-1.07-2.73-1.5-4-.08a4.13,4.13,0,0,0-.88,3l-1.5-.57a5.31,5.31,0,0,1,1.31-3.84c1.88-2.14,4.41-1.5,6.08,0,2.17,1.91,2.74,4.8,3.26,9l.17,1.5h0l3.95-4.49,1.32,1.17Z"/><path class="cls-15" d="M185.92,506.72c4,3.54,5.07,6.74,3.12,9-1.72,1.93-5,1.33-9-2.08s-4.82-6.83-3-8.84S182.19,503.47,185.92,506.72Zm-4.6,5.53c3,2.71,5.48,3.46,6.56,2.23s-.09-3.7-3.09-6.36-5.32-3.62-6.55-2.24-.1,3.59,3.08,6.43Z"/><path class="cls-15" d="M192.93,510.87l-1-.86-.28-2.13c-.6-5.05-1.1-7.48-2.85-9.12-1.19-1.05-2.72-1.5-4,0a4.18,4.18,0,0,0-.86,3l-1.5-.57a5.33,5.33,0,0,1,1.29-3.84c1.9-2.13,4.49-1.5,6.1,0,2.16,1.93,2.74,4.8,3.26,9l.15,1.5h0l4-4.49,1.32,1.17Z"/><path class="cls-15" d="M199.92,503.08l-1-.85-.27-2.13c-.62-5-1.11-7.48-2.86-9.11-1.2-1.06-2.72-1.49-4,0a4.15,4.15,0,0,0-.87,3l-1.49-.57a5.29,5.29,0,0,1,1.3-3.86c1.88-2.13,4.49-1.5,6.09,0,2.17,1.93,2.73,4.8,3.26,9l.16,1.5h0l4-4.49,1.32,1.18Z"/><path class="cls-15" d="M135.17,608.75l-1.39-.68-1-2.37c-2.27-5.65-3.62-8.38-6.13-9.66-1.71-.85-3.62-.94-4.68,1.17a4.89,4.89,0,0,0,0,3.72l-1.92-.19a6.43,6.43,0,0,1,.31-4.87c1.5-3,4.64-3.08,7-1.88,3.09,1.49,4.65,4.7,6.56,9.38l.66,1.75h0l3.17-6.34,1.89.94Z"/><path class="cls-15" d="M136.91,583.92c5.7,2.84,7.94,6.21,6.37,9.34-1.37,2.76-5.38,3.09-10.95.37s-7.69-6.4-6.25-9.28S131.6,581.24,136.91,583.92Zm-3.59,7.81c4.35,2.18,7.48,2.29,8.27.54s-1.25-4.25-5.53-6.39-7.29-2.53-8.28-.54C127,587,128.76,589.44,133.32,591.73Z"/><path class="cls-15" d="M146.35,586.45l-1.39-.7-1-2.37c-2.28-5.65-3.62-8.37-6.14-9.66-1.7-.84-3.62-.94-4.68,1.18a5,5,0,0,0-.09,3.71l-1.9-.19a6.47,6.47,0,0,1,.3-4.87c1.5-3,4.65-3.08,7.05-1.88,3.09,1.5,4.65,4.7,6.55,9.38l.67,1.75h0l3.17-6.36,1.89.94Z"/><path class="cls-15" d="M151.93,575.29l-1.39-.7-1-2.37c-2.26-5.65-3.62-8.36-6.13-9.65-1.69-.85-3.62-.94-4.67,1.17a5,5,0,0,0-.09,3.71l-1.9-.19a6.34,6.34,0,0,1,.3-4.87c1.5-3,4.64-3.08,7-1.88,3.1,1.5,4.65,4.7,6.57,9.38l.67,1.75h0l3.19-6.36,1.87.94Z"/><path class="cls-16" d="M230.12,660.3l41.69,21Q284,655.07,296.2,628.89l-35.64-34.56Q245.29,627.3,230.12,660.3Z"/><circle class="cls-17" cx="252.14" cy="655.73" r="0.93"/><circle class="cls-17" cx="254.6" cy="658.66" r="0.39"/><circle class="cls-17" cx="254.57" cy="656.34" r="0.39"/><circle class="cls-17" cx="257.05" cy="656.58" r="0.79"/><circle class="cls-17" cx="246.8" cy="650.97" r="0.66"/><circle class="cls-17" cx="248.54" cy="653.05" r="0.27"/><circle class="cls-17" cx="248.51" cy="651.4" r="0.28"/><path class="cls-17" d="M250.27,651a.56.56,0,1,1-.55.55A.56.56,0,0,1,250.27,651Z"/><circle class="cls-17" cx="254.97" cy="650.43" r="0.6"/><circle class="cls-17" cx="256.57" cy="652.33" r="0.25"/><circle class="cls-17" cx="256.54" cy="650.83" r="0.25"/><circle class="cls-17" cx="258.17" cy="650.98" r="0.51"/><circle class="cls-17" cx="245.96" cy="658.51" r="0.6"/><circle class="cls-17" cx="247.88" cy="656.89" r="0.25"/><circle class="cls-17" cx="246.37" cy="656.92" r="0.25"/><circle class="cls-17" cx="246.53" cy="655.31" r="0.51"/><circle class="cls-17" cx="252.35" cy="653.36" r="0.18"/><circle class="cls-17" cx="252.92" cy="652.88" r="0.07"/><circle class="cls-17" cx="252.47" cy="652.88" r="0.07"/><circle class="cls-17" cx="252.52" cy="652.41" r="0.15"/><circle class="cls-17" cx="248.75" cy="643.5" r="0.93"/><circle class="cls-17" cx="251.21" cy="646.45" r="0.39"/><circle class="cls-17" cx="251.17" cy="644.12" r="0.39"/><circle class="cls-17" cx="253.67" cy="644.36" r="0.79"/><circle class="cls-17" cx="243.41" cy="638.76" r="0.66"/><circle class="cls-17" cx="245.16" cy="640.83" r="0.27"/><circle class="cls-17" cx="245.13" cy="639.18" r="0.28"/><circle class="cls-17" cx="246.89" cy="639.36" r="0.55"/><circle class="cls-17" cx="251.59" cy="638.21" r="0.6"/><circle class="cls-17" cx="253.19" cy="640.12" r="0.25"/><circle class="cls-17" cx="253.16" cy="638.61" r="0.25"/><circle class="cls-17" cx="254.77" cy="638.76" r="0.51"/><circle class="cls-17" cx="242.58" cy="646.29" r="0.6"/><circle class="cls-17" cx="244.5" cy="644.69" r="0.25"/><circle class="cls-17" cx="242.99" cy="644.72" r="0.25"/><circle class="cls-17" cx="243.14" cy="643.09" r="0.51"/><circle class="cls-17" cx="248.97" cy="641.14" r="0.18"/><circle class="cls-17" cx="249.54" cy="640.66" r="0.07"/><circle class="cls-17" cx="249.09" cy="640.68" r="0.07"/><circle class="cls-17" cx="249.14" cy="640.18" r="0.15"/><circle class="cls-17" cx="237.83" cy="657.69" r="0.57"/><circle class="cls-17" cx="239.35" cy="659.51" r="0.24"/><circle class="cls-17" cx="239.32" cy="658.06" r="0.24"/><circle class="cls-17" cx="240.86" cy="658.21" r="0.49"/><circle class="cls-17" cx="234.5" cy="654.74" r="0.4"/><circle class="cls-17" cx="235.58" cy="656.03" r="0.16"/><circle class="cls-17" cx="235.57" cy="655.01" r="0.18"/><circle class="cls-17" cx="236.66" cy="655.11" r="0.34"/><circle class="cls-17" cx="239.58" cy="654.39" r="0.37"/><circle class="cls-17" cx="240.56" cy="655.58" r="0.16"/><circle class="cls-17" cx="240.55" cy="654.65" r="0.16"/><circle class="cls-17" cx="241.55" cy="654.74" r="0.31"/><circle class="cls-17" cx="234" cy="659.41" r="0.37"/><circle class="cls-17" cx="235.18" cy="658.42" r="0.16"/><circle class="cls-17" cx="234.25" cy="658.43" r="0.16"/><circle class="cls-17" cx="234.34" cy="657.42" r="0.31"/><circle class="cls-17" cx="237.96" cy="656.22" r="0.1"/><circle class="cls-17" cx="238.3" cy="655.92" r="0.04"/><circle class="cls-17" cx="238.04" cy="655.92" r="0.04"/><circle class="cls-17" cx="238.07" cy="655.62" r="0.09"/><circle class="cls-17" cx="286.82" cy="633.36" r="0.57"/><circle class="cls-17" cx="288.36" cy="635.19" r="0.24"/><circle class="cls-17" cx="288.33" cy="633.75" r="0.24"/><circle class="cls-17" cx="289.87" cy="633.9" r="0.49"/><circle class="cls-17" cx="283.51" cy="630.41" r="0.4"/><circle class="cls-17" cx="284.59" cy="631.7" r="0.16"/><circle class="cls-17" cx="284.57" cy="630.68" r="0.18"/><circle class="cls-17" cx="285.67" cy="630.79" r="0.34"/><circle class="cls-17" cx="288.58" cy="630.09" r="0.37"/><circle class="cls-17" cx="289.57" cy="631.27" r="0.16"/><circle class="cls-17" cx="289.56" cy="630.33" r="0.16"/><circle class="cls-17" cx="290.56" cy="630.43" r="0.31"/><circle class="cls-17" cx="283" cy="635.08" r="0.37"/><circle class="cls-17" cx="284.18" cy="634.09" r="0.16"/><circle class="cls-17" cx="283.24" cy="634.11" r="0.16"/><circle class="cls-17" cx="283.35" cy="633.11" r="0.31"/><circle class="cls-17" cx="286.97" cy="631.9" r="0.1"/><circle class="cls-17" cx="287.31" cy="631.6" r="0.04"/><circle class="cls-17" cx="287.04" cy="631.61" r="0.04"/><circle class="cls-17" cx="287.06" cy="631.3" r="0.09"/><path class="cls-18" d="M262.4,591.37a2.53,2.53,0,0,1,.18-2,2.9,2.9,0,0,1,3.73-.94c1.49-2.08,4-3,5.74-2a3.43,3.43,0,0,1,1.57,2.2,3.32,3.32,0,0,1,1.11.38,3.17,3.17,0,0,1,1.35,3.93,4.94,4.94,0,0,1,2.14,3.82,5.41,5.41,0,0,1,4.95.22h0A3.92,3.92,0,0,1,288,595.6a3.75,3.75,0,0,1,1.5,4.22,4.49,4.49,0,0,1,5.34,5l.34.14a4.48,4.48,0,0,1,2,5.23,5.42,5.42,0,0,1,4.86,8.12,5.43,5.43,0,0,1-3.31,2.54c1.36,1.84,1.82,3.68,1.06,5a2.78,2.78,0,0,1-.72.81,3.43,3.43,0,0,1-.4,1.15c-1.25,2.17-4.49,2.61-7.35,1a7.43,7.43,0,0,1-2.39-2.21,1,1,0,0,1-.12.23,5,5,0,0,1-9-4.17,18.16,18.16,0,0,1-7-2.41c-5.19-3-8.2-7.48-6.7-10.1a2,2,0,0,1,.18-.25,10.45,10.45,0,0,1-1.5-1.82,7.92,7.92,0,0,1-4.11-1.07c-3.46-2-4.85-6-3.11-9.08a5.74,5.74,0,0,1,2.12-2.09,4.5,4.5,0,0,1,2.65-4.49Z"/><rect class="cls-19" x="226.82" y="612.16" width="78.42" height="54.23" rx="4.22" transform="translate(-424.7 591.02) rotate(-63.41)"/><path class="cls-20" d="M281.67,667l17.55,8.54,16.93-33.83-16.66-8.34-3.68,7,9.83,4.9L295.7,665.2l-10.47-5.26Z"/><path class="cls-21" d="M268.93,588.42a1.5,1.5,0,0,1,1.27-.22,1.94,1.94,0,0,1,.85,2.41,3,3,0,0,1,1.65,3.63,2.8,2.8,0,0,1-1.23,1.5,2.83,2.83,0,0,1-.15.82,2.18,2.18,0,0,1-2.3,1.59,3.73,3.73,0,0,1-2.17,2.11,4.2,4.2,0,0,1,.25,3.45h0a2.69,2.69,0,0,1,1.23,3.14,2.63,2.63,0,0,1-2.47,1.71,3.69,3.69,0,0,1,0,2.23,3.35,3.35,0,0,1-2.54,2.29v.25a3.19,3.19,0,0,1-3,2.31,4.41,4.41,0,0,1-.2,2.07,3.63,3.63,0,0,1-4.39,2.62,3,3,0,0,1-1.81-1.87c-1,1.24-2.11,1.89-3,1.5a1.35,1.35,0,0,1-.55-.36,1.56,1.56,0,0,1-.74-.09c-1.49-.49-1.94-2.68-1.18-4.89a6.29,6.29,0,0,1,1.17-2h-.15a3.32,3.32,0,0,1-1.65-4.37,3.45,3.45,0,0,1,3.52-2.51,15.15,15.15,0,0,1,.91-5.25c1.5-4.09,4-6.92,5.67-6.32l.17.09a7.39,7.39,0,0,1,1-1.37,6.65,6.65,0,0,1,.33-3c.95-2.72,3.33-4.35,5.32-3.66a3,3,0,0,1,1.5,1.11,2,2,0,0,1,2.68,1.1Z"/><path class="cls-22" d="M200,671.55l-39-25.43,32.92-47.43,47.87,13.37Z"/><circle class="cls-17" cx="192.81" cy="650.24" r="0.93"/><circle class="cls-17" cx="189.03" cy="649.58" r="0.39"/><circle class="cls-17" cx="191.06" cy="648.44" r="0.39"/><circle class="cls-17" cx="189.6" cy="646.41" r="0.79"/><circle class="cls-17" cx="199.6" cy="652.45" r="0.66"/><circle class="cls-17" cx="196.94" cy="651.99" r="0.27"/><circle class="cls-17" cx="198.38" cy="651.18" r="0.28"/><circle class="cls-17" cx="197.33" cy="649.74" r="0.55"/><circle class="cls-17" cx="195.95" cy="645.12" r="0.6"/><circle class="cls-17" cx="193.5" cy="644.69" r="0.25"/><circle class="cls-17" cx="194.82" cy="643.95" r="0.25"/><circle class="cls-17" cx="193.86" cy="642.64" r="0.51"/><circle class="cls-17" cx="193.52" cy="656.95" r="0.6"/><circle class="cls-17" cx="193.95" cy="654.5" r="0.25"/><circle class="cls-17" cx="194.68" cy="655.82" r="0.25"/><circle class="cls-17" cx="196" cy="654.86" r="0.51"/><circle class="cls-17" cx="194.74" cy="648.84" r="0.18"/><circle class="cls-17" cx="194.88" cy="648.11" r="0.07"/><circle class="cls-17" cx="195.09" cy="648.5" r="0.07"/><circle class="cls-17" cx="195.49" cy="648.22" r="0.15"/><circle class="cls-17" cx="205.06" cy="646.99" r="0.93"/><circle class="cls-17" cx="201.3" cy="646.35" r="0.39"/><circle class="cls-17" cx="203.31" cy="645.21" r="0.39"/><circle class="cls-17" cx="201.85" cy="643.18" r="0.79"/><circle class="cls-17" cx="211.87" cy="649.2" r="0.66"/><circle class="cls-17" cx="209.19" cy="648.76" r="0.27"/><circle class="cls-17" cx="210.63" cy="647.95" r="0.28"/><circle class="cls-17" cx="209.6" cy="646.51" r="0.55"/><circle class="cls-17" cx="208.22" cy="641.87" r="0.6"/><circle class="cls-17" cx="205.77" cy="641.45" r="0.25"/><circle class="cls-17" cx="207.08" cy="640.72" r="0.25"/><circle class="cls-17" cx="206.13" cy="639.39" r="0.51"/><circle class="cls-17" cx="205.78" cy="653.72" r="0.6"/><circle class="cls-17" cx="206.2" cy="651.27" r="0.25"/><circle class="cls-17" cx="206.93" cy="652.58" r="0.25"/><circle class="cls-17" cx="208.27" cy="651.63" r="0.51"/><circle class="cls-17" cx="207.01" cy="645.61" r="0.18"/><circle class="cls-17" cx="207.13" cy="644.88" r="0.07"/><circle class="cls-17" cx="207.35" cy="645.27" r="0.07"/><circle class="cls-17" cx="207.74" cy="644.99" r="0.15"/><circle class="cls-17" cx="198.33" cy="663.58" r="0.57"/><circle class="cls-17" cx="196" cy="663.18" r="0.24"/><circle class="cls-17" cx="197.26" cy="662.47" r="0.24"/><circle class="cls-17" cx="196.34" cy="661.22" r="0.49"/><circle class="cls-17" cx="202.55" cy="664.96" r="0.4"/><circle class="cls-17" cx="200.89" cy="664.67" r="0.16"/><circle class="cls-17" cx="201.79" cy="664.18" r="0.18"/><circle class="cls-17" cx="201.15" cy="663.28" r="0.34"/><circle class="cls-17" cx="200.29" cy="660.41" r="0.37"/><circle class="cls-17" cx="198.77" cy="660.15" r="0.16"/><circle class="cls-17" cx="199.57" cy="659.69" r="0.16"/><circle class="cls-17" cx="198.99" cy="658.87" r="0.31"/><circle class="cls-17" cx="198.78" cy="667.75" r="0.37"/><circle class="cls-17" cx="199.04" cy="666.23" r="0.16"/><circle class="cls-17" cx="199.5" cy="667.05" r="0.16"/><circle class="cls-17" cx="200.31" cy="666.45" r="0.31"/><circle class="cls-17" cx="199.53" cy="662.73" r="0.1"/><circle class="cls-17" cx="199.62" cy="662.26" r="0.04"/><circle class="cls-17" cx="199.75" cy="662.52" r="0.04"/><circle class="cls-17" cx="199.99" cy="662.34" r="0.09"/><circle class="cls-17" cx="194.64" cy="608.99" r="0.57"/><circle class="cls-17" cx="192.3" cy="608.59" r="0.24"/><circle class="cls-17" cx="193.56" cy="607.89" r="0.24"/><circle class="cls-17" cx="192.65" cy="606.63" r="0.49"/><circle class="cls-17" cx="198.86" cy="610.37" r="0.4"/><circle class="cls-17" cx="197.2" cy="610.09" r="0.16"/><circle class="cls-17" cx="198.09" cy="609.59" r="0.18"/><circle class="cls-17" cx="197.44" cy="608.69" r="0.34"/><circle class="cls-17" cx="196.58" cy="605.82" r="0.37"/><circle class="cls-17" cx="195.07" cy="605.57" r="0.16"/><circle class="cls-17" cx="195.88" cy="605.1" r="0.16"/><circle class="cls-17" cx="195.3" cy="604.3" r="0.31"/><circle class="cls-17" cx="195.09" cy="613.17" r="0.37"/><circle class="cls-17" cx="195.34" cy="611.64" r="0.16"/><circle class="cls-17" cx="195.81" cy="612.46" r="0.16"/><circle class="cls-17" cx="196.61" cy="611.87" r="0.31"/><circle class="cls-17" cx="195.83" cy="608.14" r="0.1"/><circle class="cls-17" cx="195.91" cy="607.69" r="0.04"/><circle class="cls-17" cx="196.06" cy="607.93" r="0.04"/><circle class="cls-17" cx="196.3" cy="607.75" r="0.09"/><path class="cls-23" d="M243.21,608.92a2.55,2.55,0,0,0,1.69-1.18,2.88,2.88,0,0,0-1.08-3.7c1-2.39.56-4.94-1.19-6a3.46,3.46,0,0,0-2.71-.26A3.22,3.22,0,0,0,239,597a3.19,3.19,0,0,0-4.07.82,4.93,4.93,0,0,0-4.38.08,5.46,5.46,0,0,0-2.68-4.18h0a3.91,3.91,0,0,0-1.26-4.89,3.73,3.73,0,0,0-4.38.86,4.49,4.49,0,0,0-5.69-2.81,4.63,4.63,0,0,0-1.28.68l-.3-.21a4.5,4.5,0,0,0-5.57.85,5.41,5.41,0,0,0-10,4.06c-2.26-.26-4.1.27-4.86,1.6a2.81,2.81,0,0,0-.35,1,3.59,3.59,0,0,0-.79.94c-1.24,2.15,0,5.22,2.84,6.84a7.14,7.14,0,0,0,3.12.95l-.14.23a5,5,0,0,0,8.12,5.64,18.26,18.26,0,0,0,5.63,4.86c5.19,3,10.6,3.29,12.09.7.05-.09.09-.19.13-.28a10.53,10.53,0,0,0,2.36.42,8,8,0,0,0,3,3c3.45,2,7.67,1.13,9.4-1.89a5.49,5.49,0,0,0,.75-2.88,4.28,4.28,0,0,0,2.44-4.52Z"/><rect class="cls-24" x="160.84" y="602.83" width="78.42" height="54.23" rx="4.22" transform="translate(-436.79 453.07) rotate(-56.86)"/><path class="cls-25" d="M168.16,630.43l-16.23-10.86L172.6,587.9l15.62,10.19L184,604.8l-9.22-6-12.07,18.6,9.83,6.4Z"/><path class="cls-26" d="M242.48,601.8a1.49,1.49,0,0,0-.45-1.2,2,2,0,0,0-2.53.46,3,3,0,0,0-3.95.42,2.69,2.69,0,0,0-.64,1.8,2.22,2.22,0,0,0-.64.54,2.18,2.18,0,0,0-.21,2.78,3.79,3.79,0,0,0-.74,3,4.16,4.16,0,0,0-3.09,1.5h0a2.57,2.57,0,0,0-3.55,3.53,3.56,3.56,0,0,0-1.9,1.18,3.34,3.34,0,0,0-.69,3.35l-.18.18a3.14,3.14,0,0,0-.45,3.78,4.56,4.56,0,0,0-1.7,1.25,3.64,3.64,0,0,0,0,5.1,3,3,0,0,0,2.51.61c-.55,1.5-.55,2.78.15,3.38a1.81,1.81,0,0,0,.59.29,1.88,1.88,0,0,0,.46.59c1.14,1,3.29.32,4.82-1.49a6.15,6.15,0,0,0,1.15-2l.12.12a3.34,3.34,0,0,0,4.61-.77,3.46,3.46,0,0,0,.38-4.31,15.09,15.09,0,0,0,4.09-3.46c2.8-3.27,4-6.89,2.59-8.06l-.15-.11a8,8,0,0,0,.67-1.49,6.72,6.72,0,0,0,2.44-1.81c1.87-2.19,2.09-5.07.49-6.43a3,3,0,0,0-1.69-.69,2.46,2.46,0,0,0-.81-1.5A2.52,2.52,0,0,0,242.48,601.8Z"/></g></svg>