<svg id="Layer_1" data-name="Layer 1" xmlns="http://www.w3.org/2000/svg" width="516" height="839" viewBox="0 0 516 839"><defs><style>.cls-1{fill:#f2e7e4;}.cls-2{isolation:isolate;}.cls-3{fill:#55696c;}.cls-4,.cls-5{fill:none;stroke:#707070;}.cls-4{stroke-width:2px;}.cls-5{stroke-miterlimit:4;stroke-width:2px;}</style></defs><rect id="Rectangle_7" data-name="Rectangle 7" class="cls-1" x="0.28" y="-0.19" width="516" height="839"/><g id="Logo_og_ikoner" data-name="Logo og ikoner" class="cls-2"><g class="cls-2"><path class="cls-3" d="M134.3,241.7c-.31,2.16-.61,6.09-.88,8.82-.75-.08-2.69-.13-5.16-.13s-5.65,0-8.61,0c-1.81,0-5.74.13-6.8.13l.05-1.5,2.29-.27c.89-.08,1.24-.35,1.28-1.05.09-1.28.22-3.71.22-6.76V231c0-3.22,0-4.67-.08-5.56,0-.66-.31-.88-1.15-1l-2.16-.13.08-1.55c1.11,0,4.24.14,6.18.14s3.84-.14,6.31-.14l.14,1.55-2.39.18c-.84.08-1.1.35-1.14,1.1-.09,1.59-.18,3.88-.18,7.11v8.56c0,2.86,0,5.51.13,6.66,0,.53.27.84,2.08.84,3.92,0,5.2-.27,6.22-1.68a15.54,15.54,0,0,0,2.12-5.43Z"/><path class="cls-3" d="M147.24,230.8c6,0,9.53,4.19,9.53,10,0,6-3.57,10.2-9.89,10.2-6.75,0-9.71-4.46-9.71-9.89s3.4-10.28,10-10.28Zm-.31,1.59a3.17,3.17,0,0,0-2.87,1.8,13.62,13.62,0,0,0-1.1,6,17.77,17.77,0,0,0,1.14,7,3.5,3.5,0,0,0,3.18,2.21,3,3,0,0,0,2.87-2,15.62,15.62,0,0,0,.93-6.13,16.33,16.33,0,0,0-1.15-6.84,3.26,3.26,0,0,0-3-2Z"/><path class="cls-3" d="M164.72,253a2.47,2.47,0,0,0-1.72,2.29c0,2,2.07,3.66,5.87,3.66,4.94,0,7.06-2.29,7.06-4.67a2.27,2.27,0,0,0-2.56-2.34h-7.64c-2.12-.05-3.7-.49-4.94-2a4.29,4.29,0,0,1-1.06-3,5.64,5.64,0,0,1,3-4.72,6.12,6.12,0,0,1-1.59-4.33c0-5,4.15-7.1,8-7.1a8.46,8.46,0,0,1,4.41,1c1.28-1.06,2.78-2.16,4.28-2.16,1.1,0,2,.84,2,1.41a3.34,3.34,0,0,1-1.77,2.08,3.78,3.78,0,0,0-2.2-.67,3.12,3.12,0,0,0-1.11.18,6.51,6.51,0,0,1,2,4.85c0,5-4.28,6.93-8.07,6.93a8.13,8.13,0,0,1-4.81-1.23,2.31,2.31,0,0,0-1.64,2.07c0,1.06,1,1.72,2.52,1.72,2.07,0,4.94-.13,9.35-.13a5.78,5.78,0,0,1,3.62,1.15,5.55,5.55,0,0,1,1.77,4.06c0,5.91-6,8.78-11.74,8.78-5.16,0-8.12-1.94-8.12-4.76a3.2,3.2,0,0,1,1.81-2.83,12.32,12.32,0,0,1,2.6-1.19Zm4.1-20.66c-1.59,0-2.65,1.5-2.65,5.3,0,3,.89,5.29,2.78,5.29s2.7-2.12,2.7-5.34c0-2.42-.53-5.25-2.78-5.25Z"/><path class="cls-3" d="M191.07,230.8c6,0,9.53,4.19,9.53,10,0,6-3.57,10.2-9.89,10.2-6.75,0-9.7-4.46-9.7-9.89s3.39-10.28,10-10.28Zm-.31,1.59a3.17,3.17,0,0,0-2.87,1.8,13.62,13.62,0,0,0-1.1,6,17.77,17.77,0,0,0,1.14,7,3.51,3.51,0,0,0,3.18,2.21,3,3,0,0,0,2.87-2,15.62,15.62,0,0,0,.93-6.13,16.33,16.33,0,0,0-1.15-6.84,3.25,3.25,0,0,0-3-2Z"/><path class="cls-3" d="M223.11,230.8c6,0,9.54,4.19,9.54,10,0,6-3.58,10.2-9.89,10.2-6.75,0-9.71-4.46-9.71-9.89s3.4-10.28,10-10.28Zm-.31,1.59a3.16,3.16,0,0,0-2.86,1.8,13.46,13.46,0,0,0-1.11,6,17.56,17.56,0,0,0,1.15,7,3.5,3.5,0,0,0,3.18,2.21,3,3,0,0,0,2.87-2,15.84,15.84,0,0,0,.92-6.13,16.36,16.36,0,0,0-1.14-6.84,3.26,3.26,0,0,0-3-2Z"/><path class="cls-3" d="M240.59,253a2.47,2.47,0,0,0-1.72,2.29c0,2,2.08,3.66,5.87,3.66,4.94,0,7.06-2.29,7.06-4.67a2.27,2.27,0,0,0-2.56-2.34h-7.63c-2.12-.05-3.71-.49-4.94-2a4.24,4.24,0,0,1-1.06-3,5.64,5.64,0,0,1,3-4.72A6.12,6.12,0,0,1,237,237.9c0-5,4.15-7.1,7.94-7.1a8.51,8.51,0,0,1,4.42,1c1.28-1.06,2.78-2.16,4.28-2.16,1.1,0,2,.84,2,1.41,0,.8-1.14,1.81-1.76,2.08a3.82,3.82,0,0,0-2.21-.67,3.06,3.06,0,0,0-1.1.18,6.55,6.55,0,0,1,2,4.85c0,5-4.28,6.93-8.08,6.93a8.16,8.16,0,0,1-4.81-1.23,2.29,2.29,0,0,0-1.63,2.07c0,1.06,1,1.72,2.51,1.72,2.08,0,4.95-.13,9.36-.13a5.78,5.78,0,0,1,3.62,1.15,5.58,5.58,0,0,1,1.76,4.06c0,5.91-6,8.78-11.74,8.78-5.16,0-8.12-1.94-8.12-4.76a3.2,3.2,0,0,1,1.81-2.83,12.64,12.64,0,0,1,2.61-1.19Zm4.11-20.66c-1.59,0-2.65,1.5-2.65,5.3,0,3,.88,5.29,2.78,5.29s2.69-2.12,2.69-5.34c0-2.42-.53-5.25-2.78-5.25Z"/><path class="cls-3" d="M276.35,250.48c-1.55,0-3.18-.13-5.52-.13-2.52,0-3.84.13-5.16.13V249c2.42-.09,2.69-.4,2.78-1.28s.13-2.43.13-4.77V238c0-2-.05-3.44-.09-4.14s-.4-.84-2.6-.75l0-1.5a60.16,60.16,0,0,0,7.94-.8c0,1-.13,3-.13,6.8V243c0,2.42.09,3.66.09,4.68s.44,1.19,2.56,1.32Zm-5.52-28.24a2.62,2.62,0,0,1,2.82,2.91,2.78,2.78,0,0,1-3,2.82,2.65,2.65,0,0,1-2.73-2.78,2.79,2.79,0,0,1,2.86-2.95Z"/><path class="cls-3" d="M278.55,221.79a59.24,59.24,0,0,0,7.77-.66c0,2-.18,5.3-.18,8.87v9.76c1.73-.36,4.81-4.06,6.05-6.1.27-.44.27-.61-.31-.7l-1.72-.18v-1.45c2.83,0,5.87,0,8.83-.18v1.46c-2.21.26-3.09.39-4,1.19a47.16,47.16,0,0,0-4.15,4.19c1.33,2.3,5.17,8.39,6.45,10a2.67,2.67,0,0,0,2.16.93l1.19,0-.09,1.5a50.67,50.67,0,0,0-7.77.44c-1.19-2.34-4.5-7.59-5.38-9.09-.53-.88-.79-1-1.24-.93,0,3,0,4.59.09,6.8,0,1,.36,1.19,2.61,1.28l0,1.5c-1.59,0-3.09-.13-5.38-.13-2.83,0-4,.13-5.21.13V249c2.25,0,2.6-.4,2.65-1.19s.17-3,.17-6.49V230.58c0-3,0-5,0-6.62,0-.45-.26-.62-1-.67h-1.5Z"/><path class="cls-3" d="M311,230.8c6,0,9.54,4.19,9.54,10,0,6-3.58,10.2-9.89,10.2-6.75,0-9.71-4.46-9.71-9.89s3.4-10.28,10-10.28Zm-.3,1.59a3.17,3.17,0,0,0-2.87,1.8,13.46,13.46,0,0,0-1.11,6,17.56,17.56,0,0,0,1.15,7,3.5,3.5,0,0,0,3.18,2.21,3,3,0,0,0,2.87-2,15.65,15.65,0,0,0,.92-6.13,16.36,16.36,0,0,0-1.14-6.84,3.26,3.26,0,0,0-3-2Z"/><path class="cls-3" d="M323.31,249c2.12-.09,2.38-.27,2.47-1.37.09-1.37.13-2.91.13-4.72v-4c0-2.12,0-3.84-.13-5,0-.58-.26-.71-2.34-.75l.05-1.5a45.47,45.47,0,0,0,7.28-.62,24.71,24.71,0,0,1,.31,2.91c1.5-1.41,3.49-3.13,6.44-3.13a5.14,5.14,0,0,1,4.86,2.56,5.84,5.84,0,0,1,.61,2.78v11.65c0,.92.23,1,2.65,1.19l0,1.5c-1.63,0-3.27-.13-5.34-.13-2.25,0-3.8.13-4.81.13l0-1.5c1.68-.09,2.12-.35,2.16-1.24s.18-2.64.18-5.82c0-5.92,0-6.4-.35-7a2.37,2.37,0,0,0-2.3-1.32,4.27,4.27,0,0,0-3.66,2.2,3.6,3.6,0,0,0-.44,2v5.39c0,1.63,0,3.49.09,4.59,0,.84.44,1.06,2.34,1.19l-.05,1.5c-1.06,0-3.4-.13-5.16-.13-2,0-3.71.13-5,.13Z"/><path class="cls-3" d="M357.61,251c-3.45,0-5.61-1.11-7.07-3a11.28,11.28,0,0,1-1.85-6.7c0-5.48,3.09-10.46,9.31-10.46,6.62,0,7.73,5.25,7.68,7.9,0,.92-.26,1.54-.88,1.81a18,18,0,0,1-5.12.61c-1.28,0-3.31,0-5.38,0a10,10,0,0,0,1.06,5,4.11,4.11,0,0,0,3.88,2.33c2.16,0,3.79-1.1,5-4.1l1.41.79C364.18,249.33,361.36,251,357.61,251Zm.22-18.63c-2.25,0-3.36,3.36-3.45,7.2h2.48a15,15,0,0,0,3-.23c.53-.13.84-.57.84-1.76,0-1.77-.53-5.21-2.87-5.21Z"/><path class="cls-3" d="M370.94,239.31a35.62,35.62,0,0,0-.27-5.38.8.8,0,0,0-.88-.75h-1.63l0-1.5a36.91,36.91,0,0,0,7-.8l.22.14c.17,1.06.31,3.26.35,4.32h.13c1.06-2.38,2.48-4.54,5.3-4.54a3,3,0,0,1,.35,5.87,1.53,1.53,0,0,1-1.45-.62c-.36-.8-.62-1.28-1.46-1.28-1,0-1.68,1.15-2.21,2.6a7.08,7.08,0,0,0-.35,2.47c0,4.51,0,6.67,0,7.73s.45,1.28,3.71,1.41l-.13,1.5c-2,0-4-.13-6.14-.13s-3.75.09-5.51.13l.17-1.5c2-.09,2.43-.31,2.52-1.06.13-1,.18-3.09.18-5.34Z"/></g></g><g id="Klik_her_for_at_se" data-name="Klik her for at se" class="cls-2"><g class="cls-2"><path class="cls-3" d="M159.76,316.6a1.25,1.25,0,0,1-.41.93,1.31,1.31,0,0,1-.94.39,1.37,1.37,0,0,1-1-.45l-10-9v8a1.48,1.48,0,0,1-.37,1.07A1.44,1.44,0,0,1,146,318a1.41,1.41,0,0,1-1-.39,1.45,1.45,0,0,1-.39-1.07v-17.1a1.45,1.45,0,0,1,.39-1.05,1.35,1.35,0,0,1,1-.41,1.43,1.43,0,0,1,1.06.39,1.45,1.45,0,0,1,.39,1.07v7.67l9.55-8.71a1.29,1.29,0,0,1,1.85,0,1.23,1.23,0,0,1,.39.89,1.36,1.36,0,0,1-.47,1l-8.35,7.44,8.85,8A1.3,1.3,0,0,1,159.76,316.6Z"/><path class="cls-3" d="M162.63,317.61a1.23,1.23,0,0,1-.41-1V299.3a1.27,1.27,0,0,1,.41-1,1.52,1.52,0,0,1,1-.35,1.48,1.48,0,0,1,1,.35,1.29,1.29,0,0,1,.39,1v17.3a1.25,1.25,0,0,1-.39,1,1.47,1.47,0,0,1-1,.34A1.51,1.51,0,0,1,162.63,317.61Z"/><path class="cls-3" d="M169.14,300.67a1.53,1.53,0,0,1-.48-1.17,1.47,1.47,0,0,1,.48-1.16,1.81,1.81,0,0,1,1.28-.44,1.86,1.86,0,0,1,1.28.44,1.47,1.47,0,0,1,.49,1.16,1.53,1.53,0,0,1-.48,1.17,1.79,1.79,0,0,1-1.29.45A1.77,1.77,0,0,1,169.14,300.67Zm.26,16.94a1.23,1.23,0,0,1-.4-1V305.24a1.26,1.26,0,0,1,.4-1,1.48,1.48,0,0,1,1-.36,1.44,1.44,0,0,1,1,.36,1.29,1.29,0,0,1,.39,1V316.6a1.25,1.25,0,0,1-.39,1,1.47,1.47,0,0,1-1,.34A1.51,1.51,0,0,1,169.4,317.61Z"/><path class="cls-3" d="M187.76,316.63a1.33,1.33,0,0,1-.37.93,1.14,1.14,0,0,1-.87.39,1.37,1.37,0,0,1-1-.39l-7-6.16v5.18a1.3,1.3,0,0,1-.39,1,1.48,1.48,0,0,1-1,.35,1.52,1.52,0,0,1-1-.35,1.28,1.28,0,0,1-.41-1V299.3a1.27,1.27,0,0,1,.41-1,1.52,1.52,0,0,1,1-.35,1.48,1.48,0,0,1,1,.35,1.29,1.29,0,0,1,.39,1v11l6.38-6a1.44,1.44,0,0,1,.93-.42,1.26,1.26,0,0,1,.92.39,1.29,1.29,0,0,1,.39.93,1.32,1.32,0,0,1-.47,1l-5,4.56,5.49,4.85A1.28,1.28,0,0,1,187.76,316.63Z"/><path class="cls-3" d="M209.9,309.32v7.28a1.3,1.3,0,0,1-.39,1,1.47,1.47,0,0,1-1,.36,1.45,1.45,0,0,1-1-.36,1.32,1.32,0,0,1-.37-1v-7.25a3.65,3.65,0,0,0-.69-2.46,2.71,2.71,0,0,0-2.14-.79,3.67,3.67,0,0,0-2.75,1.07,3.91,3.91,0,0,0-1,2.85v6.58a1.33,1.33,0,0,1-.38,1,1.41,1.41,0,0,1-1,.36,1.48,1.48,0,0,1-1-.36,1.3,1.3,0,0,1-.39-1V299.27a1.23,1.23,0,0,1,.41-1,1.52,1.52,0,0,1,1-.36,1.41,1.41,0,0,1,1,.35,1.21,1.21,0,0,1,.38.94v7a4.6,4.6,0,0,1,1.87-1.79,5.74,5.74,0,0,1,2.69-.62Q209.91,303.81,209.9,309.32Z"/><path class="cls-3" d="M225.11,314.67a1.21,1.21,0,0,1,.25.79,1.61,1.61,0,0,1-1,1.37,9.23,9.23,0,0,1-2.14.87A9,9,0,0,1,220,318a6.86,6.86,0,0,1-5.12-1.9A7,7,0,0,1,213,311a8.09,8.09,0,0,1,.83-3.72,6,6,0,0,1,2.32-2.52,6.51,6.51,0,0,1,3.41-.9,5.6,5.6,0,0,1,4.34,1.76,6.86,6.86,0,0,1,1.59,4.76c0,.75-.33,1.12-1,1.12h-8.65c.19,2.9,1.58,4.34,4.17,4.34a5.16,5.16,0,0,0,1.8-.28,12.14,12.14,0,0,0,1.59-.73l.46-.23a1.66,1.66,0,0,1,.63-.19A.83.83,0,0,1,225.11,314.67ZM217,306.92a4.79,4.79,0,0,0-1.18,2.91H223a4.7,4.7,0,0,0-1-2.93,3.1,3.1,0,0,0-2.48-1A3.41,3.41,0,0,0,217,306.92Z"/><path class="cls-3" d="M237.09,305a1.26,1.26,0,0,1-.31.93,1.69,1.69,0,0,1-1.06.36l-.84.09a3.61,3.61,0,0,0-2.62,1.23,4,4,0,0,0-.85,2.57v6.41a1.25,1.25,0,0,1-.39,1,1.49,1.49,0,0,1-1,.34,1.51,1.51,0,0,1-1-.34,1.2,1.2,0,0,1-.41-1V305.21a1.2,1.2,0,0,1,.41-1,1.48,1.48,0,0,1,1-.36,1.33,1.33,0,0,1,.94.36,1.24,1.24,0,0,1,.37,1v1.34a4.15,4.15,0,0,1,1.63-1.87,5.52,5.52,0,0,1,2.4-.76l.4,0C236.64,303.81,237.09,304.19,237.09,305Z"/><path class="cls-3" d="M250.59,301.11a3.31,3.31,0,0,0-.68,2.25v.79h2.78a1.29,1.29,0,0,1,.91.29,1,1,0,0,1,.32.8,1,1,0,0,1-.32.79,1.3,1.3,0,0,1-.91.3h-2.78v10.25a1.28,1.28,0,0,1-.4,1,1.52,1.52,0,0,1-1,.35,1.48,1.48,0,0,1-1-.35,1.3,1.3,0,0,1-.39-1V306.33h-1.68a1.26,1.26,0,0,1-.91-.3,1,1,0,0,1-.33-.79,1,1,0,0,1,.33-.8,1.26,1.26,0,0,1,.91-.29h1.68v-.37a5.91,5.91,0,0,1,1.31-4,5.3,5.3,0,0,1,3.73-1.63l.72-.06a2.26,2.26,0,0,1,1.31.2.87.87,0,0,1,.4.81c0,.65-.39,1-1.17,1.12l-.73.06A2.88,2.88,0,0,0,250.59,301.11Z"/><path class="cls-3" d="M258.05,317.14a5.86,5.86,0,0,1-2.35-2.48,8.08,8.08,0,0,1-.83-3.74,8.18,8.18,0,0,1,.83-3.77,5.84,5.84,0,0,1,2.35-2.47,7.64,7.64,0,0,1,7.08,0,5.84,5.84,0,0,1,2.35,2.47,8.06,8.06,0,0,1,.83,3.77,8,8,0,0,1-.83,3.74,5.86,5.86,0,0,1-2.35,2.48,7.64,7.64,0,0,1-7.08,0Zm6.41-2.61a7,7,0,0,0,0-7.21,3.92,3.92,0,0,0-5.72,0,7,7,0,0,0,0,7.21,3.94,3.94,0,0,0,5.74,0Z"/><path class="cls-3" d="M280,305a1.26,1.26,0,0,1-.31.93,1.69,1.69,0,0,1-1.06.36l-.84.09a3.61,3.61,0,0,0-2.62,1.23,4,4,0,0,0-.86,2.57v6.41a1.25,1.25,0,0,1-.39,1,1.44,1.44,0,0,1-1,.34,1.52,1.52,0,0,1-1-.34,1.23,1.23,0,0,1-.4-1V305.21a1.23,1.23,0,0,1,.4-1,1.49,1.49,0,0,1,1-.36,1.29,1.29,0,0,1,.93.36,1.24,1.24,0,0,1,.38,1v1.34a4.08,4.08,0,0,1,1.62-1.87,5.56,5.56,0,0,1,2.41-.76l.39,0C279.51,303.81,280,304.19,280,305Z"/><path class="cls-3" d="M298.87,305.18a5.79,5.79,0,0,1,1.33,4.17v7.25a1.33,1.33,0,0,1-.36,1,1.41,1.41,0,0,1-1,.35,1.33,1.33,0,0,1-1-.36,1.35,1.35,0,0,1-.36-1v-1a4,4,0,0,1-1.59,1.81,4.65,4.65,0,0,1-2.45.63,5.62,5.62,0,0,1-2.46-.55,4.15,4.15,0,0,1-1.75-1.53,3.94,3.94,0,0,1-.63-2.18,3.38,3.38,0,0,1,.77-2.34,4.62,4.62,0,0,1,2.55-1.22,25.78,25.78,0,0,1,4.88-.36h.65V309a3.29,3.29,0,0,0-.65-2.27,2.68,2.68,0,0,0-2.07-.7,6.56,6.56,0,0,0-1.85.25,14.2,14.2,0,0,0-1.9.73,2.74,2.74,0,0,1-1.06.42.86.86,0,0,1-.69-.31,1.14,1.14,0,0,1-.27-.78,1.24,1.24,0,0,1,.24-.75A2.73,2.73,0,0,1,290,305a10.12,10.12,0,0,1,2.3-.85,10.92,10.92,0,0,1,2.55-.32A5.39,5.39,0,0,1,298.87,305.18Zm-2.39,9.67a3.81,3.81,0,0,0,1-2.7v-.72H297a22.15,22.15,0,0,0-3.36.19,3.3,3.3,0,0,0-1.68.66,1.73,1.73,0,0,0-.5,1.33,2.09,2.09,0,0,0,.73,1.65,2.63,2.63,0,0,0,1.82.64A3.28,3.28,0,0,0,296.48,314.85Z"/><path class="cls-3" d="M311.64,316.11a1,1,0,0,1,.27.75,1,1,0,0,1-.44.85,2,2,0,0,1-1.27.24l-.76-.06a4.92,4.92,0,0,1-3.39-1.38,5.19,5.19,0,0,1-1.12-3.6v-6.58h-1.68c-.82,0-1.23-.36-1.23-1.09a1,1,0,0,1,.32-.8,1.29,1.29,0,0,1,.91-.29h1.68v-2.89a1.36,1.36,0,0,1,.38-1,1.41,1.41,0,0,1,1-.36,1.48,1.48,0,0,1,1,.36,1.33,1.33,0,0,1,.39,1v2.89h2.77a1.26,1.26,0,0,1,.91.29,1.15,1.15,0,0,1,0,1.61,1.31,1.31,0,0,1-.91.28h-2.77v6.77a2.85,2.85,0,0,0,.55,1.94,2.37,2.37,0,0,0,1.66.7l.79.05A1.47,1.47,0,0,1,311.64,316.11Z"/><path class="cls-3" d="M321.43,316.83a2.2,2.2,0,0,1-.72-.64,1.43,1.43,0,0,1-.21-.76,1.22,1.22,0,0,1,.25-.76.83.83,0,0,1,.65-.31,3,3,0,0,1,1.15.45,12.07,12.07,0,0,0,1.63.73,6.08,6.08,0,0,0,2,.28,4,4,0,0,0,2.1-.47A1.52,1.52,0,0,0,329,314a1.37,1.37,0,0,0-.29-.9,2.63,2.63,0,0,0-1-.6,18.41,18.41,0,0,0-2.16-.57,8.48,8.48,0,0,1-3.54-1.44A3.07,3.07,0,0,1,321,308a3.58,3.58,0,0,1,.7-2.17,4.57,4.57,0,0,1,1.93-1.5,7.1,7.1,0,0,1,2.8-.53,8.44,8.44,0,0,1,2.19.29,6.17,6.17,0,0,1,1.87.86,1.73,1.73,0,0,1,.93,1.43,1.1,1.1,0,0,1-.27.75.8.8,0,0,1-.63.31,1.25,1.25,0,0,1-.5-.11,7.41,7.41,0,0,1-.68-.37,9.19,9.19,0,0,0-1.41-.7,4.56,4.56,0,0,0-1.64-.25,3.27,3.27,0,0,0-1.89.5,1.62,1.62,0,0,0-.71,1.38,1.36,1.36,0,0,0,.66,1.21,7.87,7.87,0,0,0,2.47.83,13.29,13.29,0,0,1,2.94.9,3.49,3.49,0,0,1,1.53,1.24,3.53,3.53,0,0,1,.46,1.89,3.46,3.46,0,0,1-1.52,2.93A6.8,6.8,0,0,1,326.1,318,8.49,8.49,0,0,1,321.43,316.83Z"/><path class="cls-3" d="M346.18,314.67a1.21,1.21,0,0,1,.25.79,1.61,1.61,0,0,1-1,1.37,9.23,9.23,0,0,1-2.14.87,9,9,0,0,1-2.23.31,6.86,6.86,0,0,1-5.12-1.9,7,7,0,0,1-1.88-5.16,8.09,8.09,0,0,1,.83-3.72,6,6,0,0,1,2.32-2.52,6.51,6.51,0,0,1,3.41-.9,5.59,5.59,0,0,1,4.34,1.76,6.86,6.86,0,0,1,1.59,4.76c0,.75-.33,1.12-1,1.12h-8.65c.19,2.9,1.58,4.34,4.17,4.34a5.16,5.16,0,0,0,1.8-.28,12.14,12.14,0,0,0,1.59-.73l.46-.23a1.66,1.66,0,0,1,.63-.19A.83.83,0,0,1,346.18,314.67Zm-8.12-7.75a4.79,4.79,0,0,0-1.18,2.91h7.23a4.7,4.7,0,0,0-1-2.93,3.1,3.1,0,0,0-2.48-1A3.41,3.41,0,0,0,338.06,306.92Z"/></g></g><g id="Group_60" data-name="Group 60"><path id="Path_64" data-name="Path 64" class="cls-4" d="M245.38,334.6s-3.26,25.26,28.51,49.52,40.4-4.59,30.19-6.95-25.59,26.42-10,37.87,57.44,13.68,57.44,13.68"/><path id="Path_65" data-name="Path 65" class="cls-5" d="M341.7,420.9l11,8-11,6.85"/></g></svg>