<svg id="Layer_1" data-name="Layer 1" xmlns="http://www.w3.org/2000/svg" xmlns:xlink="http://www.w3.org/1999/xlink" width="516" height="838" viewBox="0 0 516 838"><defs><style>.cls-1{fill:#ee6c4a;}.cls-2{opacity:0.3;}.cls-3,.cls-4,.cls-6{fill:none;stroke-miterlimit:10;}.cls-3,.cls-4{stroke:#1d1d1b;}.cls-3{stroke-width:5px;}.cls-4{stroke-width:3px;}.cls-5{fill:#010101;}.cls-6{stroke:#010101;stroke-width:2px;}.cls-7{fill:url(#linear-gradient);}.cls-8{fill:url(#linear-gradient-2);}.cls-9{fill:url(#linear-gradient-3);}.cls-10{fill:url(#linear-gradient-4);}.cls-11{fill:url(#linear-gradient-5);}.cls-12{fill:url(#linear-gradient-6);}.cls-13{fill:url(#linear-gradient-7);}.cls-14{fill:url(#linear-gradient-8);}.cls-15{fill:url(#linear-gradient-9);}.cls-16{fill:url(#linear-gradient-10);}.cls-17{fill:url(#linear-gradient-11);}.cls-18{fill:url(#linear-gradient-12);}</style><linearGradient id="linear-gradient" x1="175.66" y1="-1055.51" x2="183.86" y2="-1055.51" gradientTransform="matrix(1, 0, 0, -1, 0, -482.19)" gradientUnits="userSpaceOnUse"><stop offset="0" stop-color="#d3e1ec"/><stop offset="0.52" stop-color="#3592b3"/><stop offset="0.99" stop-color="#216176"/></linearGradient><linearGradient id="linear-gradient-2" x1="183.66" y1="-1046.18" x2="194.76" y2="-1046.18" xlink:href="#linear-gradient"/><linearGradient id="linear-gradient-3" x1="195.67" y1="-1040.64" x2="209.17" y2="-1040.64" xlink:href="#linear-gradient"/><linearGradient id="linear-gradient-4" x1="210.63" y1="-1037.16" x2="227.15" y2="-1037.16" xlink:href="#linear-gradient"/><linearGradient id="linear-gradient-5" x1="530.75" y1="-1028.21" x2="552" y2="-1028.21" gradientTransform="matrix(0, 0.93, 1, 0, 1269.82, 51.61)" xlink:href="#linear-gradient"/><linearGradient id="linear-gradient-6" x1="292.61" y1="-1092.19" x2="357.88" y2="-1092.19" gradientTransform="matrix(0.99, 0.14, 0.14, -0.99, 42.73, -507.27)" xlink:href="#linear-gradient"/><linearGradient id="linear-gradient-7" x1="1012.72" y1="-1089.83" x2="1020.92" y2="-1089.83" gradientTransform="translate(1343.72 -482.19) rotate(180)" xlink:href="#linear-gradient"/><linearGradient id="linear-gradient-8" x1="1020.72" y1="-1080.5" x2="1031.82" y2="-1080.5" gradientTransform="translate(1343.72 -482.19) rotate(180)" xlink:href="#linear-gradient"/><linearGradient id="linear-gradient-9" x1="1032.73" y1="-1074.95" x2="1046.23" y2="-1074.95" gradientTransform="translate(1343.72 -482.19) rotate(180)" xlink:href="#linear-gradient"/><linearGradient id="linear-gradient-10" x1="1047.68" y1="-1071.48" x2="1064.21" y2="-1071.48" gradientTransform="translate(1343.72 -482.19) rotate(180)" xlink:href="#linear-gradient"/><linearGradient id="linear-gradient-11" x1="1405.96" y1="-831.63" x2="1427.2" y2="-831.63" gradientTransform="translate(1583.11 -242.02) rotate(180) scale(0.93 1)" xlink:href="#linear-gradient"/><linearGradient id="linear-gradient-12" x1="1120.06" y1="-1010.55" x2="1187.05" y2="-1010.55" gradientTransform="translate(1300.44 -506.95) rotate(171.95)" xlink:href="#linear-gradient"/></defs><g id="Layer_1-2" data-name="Layer 1"><path id="Path_111" data-name="Path 111" class="cls-1" d="M180.64,112q-7.09,37.61-14.2,75.14c-4.71,2.47-7,3.81-11.65,6.54Q163,154,171.19,114.25c-4.92,1.26-7.37,2-12.26,3.54,1.74-7.8,2.6-11.7,4.34-19.5a290.4,290.4,0,0,1,32.3-4.38c-1,6.37-1.52,9.56-2.53,15.93C188.07,110.57,185.59,111,180.64,112Z"/><path id="Path_112" data-name="Path 112" class="cls-1" d="M197.18,93.83c3.61-.18,5.36-.18,8.92-.18l-9.7,79.74c-4.93,1.93-7.37,3-12.21,5.12Z"/><path id="Path_113" data-name="Path 113" class="cls-1" d="M244.87,97.71q3.76,30,7.52,60c-5.61,1-8.4,1.52-13.94,2.77-9-13.23-15.5-28.11-20.49-43.24q-1.47,24.77-3,49.55c-4.73,1.49-7.07,2.29-11.73,4L211,93.73c3.82.11,5.73.21,9.53.51,4.71,15.79,10.14,31.28,18.55,45.54q-1.2-21.79-2.39-43.59C240,96.73,241.63,97,244.87,97.71Z"/><path id="Path_114" data-name="Path 114" class="cls-1" d="M277.23,107.52l4.87,8.7a172,172,0,0,0-21.13-5l3,11.09a187.21,187.21,0,0,1,19,2.56l4.45,9a201.64,201.64,0,0,0-20.7-1.33c1.33,4.92,2,7.38,3.32,12.29a243.73,243.73,0,0,1,28.09.1l4.87,8.69a387.94,387.94,0,0,0-43.35,3l-10-57.8A176.25,176.25,0,0,1,277.23,107.52Z"/><path id="Path_115" data-name="Path 115" class="cls-1" d="M303.47,123.65a175.63,175.63,0,0,0-19.27-7l-5-8.42a179,179,0,0,1,27,13.75l7,5.48c4.31,5.57,4.62,9.19,2.14,18.93a247,247,0,0,1,27.81,4.75l8.47,6.68a292.87,292.87,0,0,0-47.1-4.33c-1.6-2.8-2.41-4.19-4-7C304.84,135.09,305.57,130.65,303.47,123.65Z"/></g><g id="logo_sort_hvid" data-name="logo sort hvid"><g id="Layer_2" data-name="Layer 2"><g id="Group_69" data-name="Group 69" class="cls-2"><circle id="Ellipse_20" data-name="Ellipse 20" class="cls-3" cx="255.65" cy="357.23" r="68.97"/><path id="Path_88" data-name="Path 88" class="cls-3" d="M186.67,357.23C206,343.06,220,341.94,229.22,343.6c23.72,4.23,30.3,29.18,54.81,33.94,15.64,3,30.17-3.75,40-9.91"/><path id="Path_89" data-name="Path 89" class="cls-3" d="M189.22,375.85c11.47-9.56,28.54-20.54,46.18-17,20.47,4.08,26.24,24.67,46.07,27.66C297,388.81,311.94,379,324,367.62"/><path id="Path_90" data-name="Path 90" class="cls-3" d="M195.67,391.31c9.05-8.47,21.92-17.45,36.59-16.37,20.92,1.54,28.33,22.82,46.94,24.22,9.73.74,24.67-3.74,44.8-31.53"/><path id="Path_91" data-name="Path 91" class="cls-3" d="M233.3,422.5c-8.16-2.38-14-8.44-14.75-15.31-.85-7.5,4.39-15.2,10.63-17.65,15.28-6,29.18,22.42,50,22.31,11-.06,26.33-8,44.8-44.22"/><path id="Path_92" data-name="Path 92" class="cls-3" d="M236.88,423.62c5.34,1.54,10.77-.73,13-5s1.13-11.09-3.25-13c-4.07-1.78-10.18.87-10.89,4.87-.62,3.5,2.92,8,5.53,7.47,1.71-.35,3-2.84,3.41-6"/></g></g><g id="Layer_1-3" data-name="Layer 1"><circle id="Ellipse_21" data-name="Ellipse 21" class="cls-4" cx="254.68" cy="355.35" r="68.97"/><path id="Path_93" data-name="Path 93" class="cls-5" d="M159.24,341.08c-.27,2.74,1,5.58,5.44,6,3.74.37,5.68-2,6-5a5.48,5.48,0,0,0-1.42-4.11.43.43,0,0,1,.28-.75h0a1.19,1.19,0,0,1,.59.37,6,6,0,0,1,1.47,4.65c-.34,3.55-2.82,6.26-7,5.85-4.87-.49-6.6-3.91-6.29-7.16.25-2.51,1.76-4.14,3.57-4,.78.08,1.37.5,1.33.9s-.19.42-.41.4-.22-.2-.88-.27C160.47,337.86,159.42,339.23,159.24,341.08Z"/><path id="Path_94" data-name="Path 94" class="cls-5" d="M174.27,314.68l3.83,2s.34.19.1.65-.6.27-.6.27l-10.77-5.76s-.34-.19-.11-.64.6-.28.6-.28l6.12,3.27,4-7.52-6.12-3.27s-.35-.18-.1-.65.6-.27.6-.27l10.79,5.76s.35.19.11.65-.6.27-.6.27l-3.82-2Z"/><path id="Path_95" data-name="Path 95" class="cls-5" d="M195.33,289.18l.75,2.73c0,.19.08.36-.25.64a.41.41,0,0,1-.57,0l0,0a.48.48,0,0,1-.08-.16l-3.45-12.82c-.09-.35-.12-.55.2-.82a.71.71,0,0,1,.81-.06l12,5.75a1,1,0,0,1,.2.15c.07.08.21.25-.14.54a.6.6,0,0,1-.68.14L201.54,284Zm-.28-1,5.56-4.61-7.9-3.85Z"/><path id="Path_96" data-name="Path 96" class="cls-5" d="M231.45,271.48c.13,0,.27.09.31.24.15.45-.32.91-1,1.13-1.5.49-3.54-2.38-5.75-2.83a8.78,8.78,0,0,1-1.58.66c-.44.15-.63,0-.71-.24s0-.49.21-.56c2.78-.91,5.11-2.88,4.3-5.35s-2.84-2.31-5.84-1.33l-1.32.43,3.63,11.11s.12.38-.38.54-.61-.21-.61-.21l-3.83-11.68a.35.35,0,0,1,.23-.44h0l2-.65c3.56-1.16,6.16-1.06,7.14,1.95.67,2-.38,3.87-2.13,5.11,2,.7,3.67,2.72,4.7,2.38A4.66,4.66,0,0,0,231.45,271.48Z"/><path id="Path_97" data-name="Path 97" class="cls-5" d="M259.58,269.37a.41.41,0,0,1,.39.44v0c0,.49-.42.47-.42.47l-7.26-.28a.35.35,0,0,1-.35-.34l.48-12.28s0-.4.54-.38.5.42.5.42L253,269.13Z"/><path id="Path_98" data-name="Path 98" class="cls-5" d="M281,268.18a6.4,6.4,0,1,1,12,4.36,5.65,5.65,0,0,1-.29.67,6.4,6.4,0,1,1-12-4.35A5.79,5.79,0,0,1,281,268.18Zm10.79,4.64c1.35-3.16.07-6.26-2.65-7.41a5.74,5.74,0,1,0,2.49,7.73A3.18,3.18,0,0,0,291.74,272.82Z"/><path id="Path_99" data-name="Path 99" class="cls-5" d="M318,285.14l-8.18,8.34s-.28.28-.66-.08-.09-.65-.09-.65l8.18-8.34-2.81-2.78a.42.42,0,0,1,0-.59l0,0a.42.42,0,0,1,.6-.08l0,0,6.37,6.25a.43.43,0,0,1,0,.6l0,0a.41.41,0,0,1-.58.08l0,0Z"/><path id="Path_100" data-name="Path 100" class="cls-5" d="M336.9,312.05l-10.55,5s-.35.17-.58-.3.14-.64.14-.64l10.55-5-1.68-3.57A.4.4,0,0,1,335,307l0,0a.43.43,0,0,1,.59.11s0,0,0,.05l3.82,8.07a.42.42,0,0,1-.22.55l-.05,0a.42.42,0,0,1-.57-.13l0,0Z"/><path id="Path_101" data-name="Path 101" class="cls-5" d="M334.53,348.76a.49.49,0,0,1-.53.45.51.51,0,0,1-.42-.35l-.66-7.95a.33.33,0,0,1,.28-.37h0l12.29-1a.35.35,0,0,1,.37.32l.63,7.44a.45.45,0,0,1-.44.44.47.47,0,0,1-.53-.34l-.57-6.78-6.43.51.49,5.76a.43.43,0,0,1-.43.43.45.45,0,0,1-.52-.34l-.48-5.75-3.69.3Z"/><path id="Path_102" data-name="Path 102" class="cls-5" d="M198.72,425.92l-1,10.92,8.65-7.87a.61.61,0,0,1,.7-.13.4.4,0,0,1,.2.53s0,0,0,0a1,1,0,0,1-.24.27l-9.65,8.77a.34.34,0,0,1-.47.05c-.17-.08-.3-.17-.28-.37l1-11.28-8.45,7.54c-.15.14-.33.07-.5,0a.38.38,0,0,1-.28-.44l1.31-13a.59.59,0,0,1,.07-.26.46.46,0,0,1,.62-.19h0c.24.11.35.31.3.71l-1.19,11.68,8.29-7.38a.49.49,0,0,1,.52,0,.58.58,0,0,1,.37.46Z"/><path id="Path_103" data-name="Path 103" class="cls-5" d="M230.85,445.37l-1.46,2.43c-.1.17-.21.31-.64.26a.39.39,0,0,1-.4-.39v-.05a.51.51,0,0,1,.07-.17l6.89-11.34c.19-.31.31-.47.73-.43a.68.68,0,0,1,.6.55l4.14,12.64a2.11,2.11,0,0,1,0,.25c0,.1,0,.33-.49.28a.59.59,0,0,1-.56-.4l-.86-2.7Zm.54-.9,7.17.83-2.67-8.37Z"/><path id="Path_104" data-name="Path 104" class="cls-5" d="M269.71,443.12l.9,4.24s.08.39-.43.5-.6-.28-.6-.28l-2.51-12s-.08-.39.43-.5.59.29.59.29l1.43,6.78,8.34-1.74-1.43-6.78s-.08-.39.43-.5.59.28.59.28l2.52,12s.08.39-.43.5-.59-.29-.59-.29l-.9-4.25Z"/><path id="Path_105" data-name="Path 105" class="cls-5" d="M313.91,430.35a.42.42,0,0,1,.56.17s0,0,0,0a.43.43,0,0,1-.06.6l0,0-6.31,3.6a.34.34,0,0,1-.47-.12h0L301.53,424s-.2-.34.25-.6.65.09.65.09l5.78,10.14Z"/><circle id="Ellipse_22" data-name="Ellipse 22" class="cls-6" cx="333.4" cy="386.39" r="2.07"/><circle id="Ellipse_23" data-name="Ellipse 23" class="cls-6" cx="171.03" cy="387.29" r="2.07"/><path id="Path_106" data-name="Path 106" class="cls-4" d="M185.71,355.35c19.32-14.17,33.3-15.29,42.54-13.63,23.72,4.23,30.3,29.18,54.81,33.94,15.64,3,30.17-3.75,40-9.91"/><path id="Path_107" data-name="Path 107" class="cls-4" d="M188.26,374c11.47-9.57,28.54-20.54,46.18-17,20.47,4.08,26.24,24.67,46.07,27.65C296,386.93,311,377.14,323,365.75"/><path id="Path_108" data-name="Path 108" class="cls-4" d="M194.7,389.43c9.05-8.47,21.92-17.45,36.59-16.37,20.93,1.54,28.33,22.82,47,24.23,9.73.73,24.67-3.75,44.8-31.54"/><path id="Path_109" data-name="Path 109" class="cls-4" d="M232.34,420.62c-8.16-2.38-14-8.44-14.76-15.31-.83-7.49,4.38-15.2,10.64-17.65,15.27-6,29.18,22.42,50,22.31,11-.07,26.33-8,44.8-44.23"/><path id="Path_110" data-name="Path 110" class="cls-4" d="M235.92,421.75c5.33,1.53,10.77-.74,13-5s1.12-11.09-3.26-13c-4.07-1.78-10.17.88-10.88,4.87-.62,3.5,2.91,8,5.52,7.47,1.72-.35,3.06-2.84,3.42-6"/></g></g><circle class="cls-7" cx="179.76" cy="573.32" r="4.1"/><circle class="cls-8" cx="189.21" cy="563.99" r="5.55"/><circle class="cls-9" cx="202.42" cy="558.44" r="6.75"/><circle class="cls-10" cx="218.89" cy="554.97" r="8.26"/><ellipse class="cls-11" cx="241.61" cy="555.29" rx="11.82" ry="9.91" transform="translate(-358.66 635.32) rotate(-74.08)"/><path class="cls-12" d="M192.3,656.9c-15.22-23.58-24.05-67.6-1.53-84.4,14.82-11,42-9.39,50.54,3.78,7.7,11.82-.7,31.17-2.29,34.84-5.53,12.74-10.76,11.67-12.62,21-3.06,15.27,10,23.61,4.75,36.1-1.8,4.33-5.78,9.1-10.89,10.19C207.86,681,194.66,660.56,192.3,656.9Z"/><circle class="cls-13" cx="326.9" cy="607.64" r="4.1"/><circle class="cls-14" cx="317.45" cy="598.31" r="5.55"/><circle class="cls-15" cx="304.24" cy="592.76" r="6.75"/><circle class="cls-16" cx="287.77" cy="589.29" r="8.26"/><ellipse class="cls-17" cx="265.05" cy="589.61" rx="9.91" ry="11.82" transform="translate(-151.56 95.32) rotate(-15.92)"/><path class="cls-18" d="M314.36,691.22c5-8.79,10.87-25,5-31.13-1.37-1.44-5-4.05-6.83-9.1-.62-1.73-1-2.77-.5-3.79,1.58-3.36,9.57-.52,12.63-4.55a6.18,6.18,0,0,0,.76-6.06c-2.45-4.92-13-1.39-17.94-7.84-.78-1-1.52-2-1.26-3,1.17-4.73,20.75-1,22.49-5.81,1.15-3.2-5.85-9.39-12.86-13.09-15.2-8-41.43-10.21-50.54,3.77-7.69,11.82.71,31.17,2.29,34.84,5.53,12.75,10.77,11.67,12.63,21,3.06,15.28-10,23.61-4.76,36.11,1.8,4.33,5.79,9.1,10.89,10.18C300,715.58,313.28,693.1,314.36,691.22Z"/><path d="M186,728.75h2.33l-6.92,16.44h-.53l-7.06-16.44h2.36l4.93,11.5Z"/><path d="M195.12,738.64v4.59c0,.36.13.55.38.55a2.59,2.59,0,0,0,1.2-.58v1.3a6.23,6.23,0,0,1-1.16.64,2.59,2.59,0,0,1-.92.17c-.92,0-1.45-.36-1.62-1.08a4.59,4.59,0,0,1-2.89,1.06,2.56,2.56,0,0,1-1.88-.75,2.52,2.52,0,0,1-.75-1.87,2.67,2.67,0,0,1,.73-1.82,5,5,0,0,1,2.08-1.27l2.74-.94v-.57a1.72,1.72,0,0,0-1.95-2,4.71,4.71,0,0,0-3.4,1.81V735.6a4.43,4.43,0,0,1,3.58-1.47,4.14,4.14,0,0,1,2.8.92,2.92,2.92,0,0,1,.63.77,2.79,2.79,0,0,1,.36,1A14.84,14.84,0,0,1,195.12,738.64ZM193,743v-3.2l-1.43.55a4.83,4.83,0,0,0-1.55.88,1.45,1.45,0,0,0-.45,1.09,1.48,1.48,0,0,0,.43,1.09,1.53,1.53,0,0,0,1.11.42A2.67,2.67,0,0,0,193,743Z"/><path d="M198.64,728.75h2.13v16.37h-2.13Z"/><path d="M203.76,728.75h2.13v6.37a4.88,4.88,0,0,1,3-1,4.19,4.19,0,0,1,3.35,1.54,6,6,0,0,1,1.3,4,5.32,5.32,0,0,1-5.71,5.68,11.55,11.55,0,0,1-2.2-.22,7.54,7.54,0,0,1-1.83-.56Zm2.13,8.4V743a7.69,7.69,0,0,0,2.24.33,3,3,0,0,0,2.32-1,3.77,3.77,0,0,0,.89-2.59,3.93,3.93,0,0,0-.84-2.61,2.69,2.69,0,0,0-2.18-1A3.78,3.78,0,0,0,205.89,737.15Z"/><path d="M222.24,734.34h2.39L217,750.62h-2.38l3.66-7.81-4.16-8.47h2.43l2.91,6.09Z"/><path d="M233.11,728.75h8.74v2.09h-6.39v4.57h6.39v2.08h-6.39v7.63h-2.35Z"/><path d="M248.85,734.32a5.61,5.61,0,0,1,4.09,1.59,5.33,5.33,0,0,1,1.63,4,5.08,5.08,0,0,1-1.65,3.87,5.85,5.85,0,0,1-4.16,1.54,5.65,5.65,0,0,1-4.06-1.56,5.54,5.54,0,0,1,0-7.85A5.71,5.71,0,0,1,248.85,734.32Zm-.11,1.92a3.36,3.36,0,0,0-2.52,1,3.51,3.51,0,0,0-1,2.57,3.36,3.36,0,0,0,1,2.52,3.58,3.58,0,0,0,2.59,1,3.5,3.5,0,0,0,2.57-1,3.41,3.41,0,0,0,1-2.54,3.36,3.36,0,0,0-1-2.54A3.62,3.62,0,0,0,248.74,736.24Z"/><path d="M264.13,728.75h2.15v16.37h-4.56a5,5,0,0,1-3.81-1.51,5.67,5.67,0,0,1-1.43-4.05,5.39,5.39,0,0,1,1.5-3.92,5.08,5.08,0,0,1,3.81-1.53,6.78,6.78,0,0,1,2.34.46Zm0,14.55v-6.84a4.46,4.46,0,0,0-2-.5,3.28,3.28,0,0,0-2.54,1,4.06,4.06,0,0,0-.94,2.82,3.66,3.66,0,0,0,.82,2.56,2.58,2.58,0,0,0,1,.73,7.24,7.24,0,0,0,2,.19Z"/><path d="M269.17,728.75h2.14v16.37h-2.14Zm7,5.59h2.53l-4.6,5.28,5.54,5.5H276.8l-5.4-5.5Z"/><path d="M280.72,728.75h2.13v16.37h-2.13Z"/><path d="M287,729.81a1.28,1.28,0,0,1,.91.36,1.19,1.19,0,0,1,.37.89,1.22,1.22,0,0,1-.37.89,1.25,1.25,0,0,1-.91.38,1.18,1.18,0,0,1-.86-.38,1.24,1.24,0,0,1-.38-.89,1.2,1.2,0,0,1,.38-.87A1.14,1.14,0,0,1,287,729.81Zm-1,4.53h2.13v10.78H286Z"/><path d="M293.33,734.34v1.37a4.29,4.29,0,0,1,3.24-1.58,3.67,3.67,0,0,1,1.88.52,3.5,3.5,0,0,1,1.32,1.43,6.89,6.89,0,0,1,.45,2.88v6.16h-2.14V739a4.16,4.16,0,0,0-.5-2.36,1.94,1.94,0,0,0-1.69-.71,3.07,3.07,0,0,0-2.56,1.51v7.7h-2.18V734.34Z"/><path d="M304.29,729.81a1.26,1.26,0,0,1,.91.36,1.19,1.19,0,0,1,.37.89,1.22,1.22,0,0,1-.37.89,1.24,1.24,0,0,1-.91.38,1.19,1.19,0,0,1-.86-.38,1.24,1.24,0,0,1-.38-.89,1.2,1.2,0,0,1,.38-.87A1.16,1.16,0,0,1,304.29,729.81Zm-1.05,4.53h2.13v10.78h-2.13Z"/><path d="M308.45,728.75h2.14v16.37h-2.14Zm7,5.59H318l-4.6,5.28,5.53,5.5h-2.86l-5.4-5.5Z"/></svg>