<svg id="Layer_1" data-name="Layer 1" xmlns="http://www.w3.org/2000/svg" width="516" height="838" viewBox="0 0 516 838"><defs><style>.cls-1{fill:#fff;}.cls-2{fill:none;stroke:#000;stroke-miterlimit:10;stroke-width:3px;}</style></defs><path d="M314.6,81.8c-8.42,0-26.13,4.87-42.56,14.24-9.15,5.21-15.12,10.43-24.57,10-8.59-.38-13.35-5.12-21.21-10C209,85.29,190.48,81.8,183.7,81.8c-36.87,0-66.75,27.76-66.75,62,0,36.51,35,61.71,66.75,62,22,.21,38.11-11.58,43.82-16.23A46,46,0,0,1,274,188.9c5.78,5.07,20.41,16.41,40.61,16.9,32,.78,66.75-26,66.75-62C381.35,109.56,351.47,81.8,314.6,81.8Z"/><ellipse class="cls-1" cx="179.67" cy="143.81" rx="53.58" ry="51.67"/><ellipse class="cls-1" cx="317.71" cy="143.81" rx="53.58" ry="51.67"/><path d="M314.52,121.26a9.13,9.13,0,0,1-3.12-4.9c-.51-2.29.25-4-.8-4.78a2.17,2.17,0,0,0-2.79.31c-.48.74.34,1.68,1.37,4.34,1.15,2.93,1.72,4.4,1.19,5.73-.61,1.53-2,1.37-3,3.45-.44.89-.67,1.33-1.15,2.2-.17.3-.37.64-.63,1a6.82,6.82,0,0,1-1,1.16,32.43,32.43,0,0,1-5.3,3.22,3.66,3.66,0,0,0-3-.23c-.74.36-1.11,1-1.61,2.08-1.51,3.23-2.26,4.85-1.85,5.76.76,1.67,4,2.44,7.84,1.39,4.71-4.65,8.32-5.51,10.84-5.31,2,.16,4,1,6.23,0,2.43-1.12,2.49-3.24,3.69-3.46,3-.54,9.6,11.36,11.06,24,.62,5.26,2.41,19.34-6.68,31.59-4.79,6.46-11,7.92-10.38,9.46.85,2.17,13.09.4,23.52-4.38,8.3-3.81,15.57-6.25,17.75-12.68.73-2.14.91-4.64-1.61-12.92-3-10-5.9-19.35-13.83-30a80.37,80.37,0,0,0-17.07-16.84,7.36,7.36,0,0,0,4.38-2.76c.78-1.11,1.52-3,.93-3.46s-2.21.49-2.54.69a13,13,0,0,0-4.84,2.08c-1.85,1.3-2.43,2.51-3.23,2.3-1.54-.39-1.58-5.34-1.58-5.62,0-2.88.77-4.31.05-4.82s-2.26.09-2.88,1.15c-.71,1.23.26,2.47.58,4.87A12.1,12.1,0,0,1,314.52,121.26Z"/><path d="M187.81,124.79c4.78,2.53,3.78,4.64,11.41,11.48,4.49,4,5.81,4.17,6.64,6.6,1.45,4.26-.32,10.47-3.72,12.06-.74.35-1.91.63-13-4-5-2.08-6.63-2.94-9-2.3-2.79.75-3.52,2.73-5.84,2.59-3.36-.21-4.81-4.55-5.89-4.08-1.33.57-1.26,8,2.17,15,4,8.1,9,8.36,13,14.93,2.37,3.87,4.54,10.18,3.19,20.67a46.13,46.13,0,0,1-22.95.08c-14.84-3.79-23.66-14-26.7-17.88a93.68,93.68,0,0,1,.27-14.93c1.06-10.75,3.26-33.08,18.58-44.2,3.12-2.27,10.75-6.94,23.36-6.32a8,8,0,0,0,0,5.74C180.66,123,183.62,122.57,187.81,124.79Z"/><g id="Group_1" data-name="Group 1"><path id="Path_1" data-name="Path 1" d="M215.21,348.33v24.43h-5.79V348.33Z"/><path id="Path_2" data-name="Path 2" d="M234.67,382.83l-19.53,0v3.44a8.39,8.39,0,0,0,1.1,6.37,9.36,9.36,0,0,0,5.42,3.54,16.79,16.79,0,0,0,12.07-1.29v6.46c-1.56.55-7.59,2.55-13.44.7a15.26,15.26,0,0,1-5.12-2.62,14.38,14.38,0,0,1-3.26-3.61,9.85,9.85,0,0,1-1.21,2.32c-2.2,3.14-5.65,4.17-7.68,4.78a23.65,23.65,0,0,1-13.54-.28v-5.17a16.54,16.54,0,0,0,12.07,0,10,10,0,0,0,5-3.94c1-1.8,1.13-3.76,1.29-7.27.07-1.44,0-2.64,0-3.45l-19.24,0,0-6.27,46.06.1Z"/><path id="Path_3" data-name="Path 3" d="M189,412.11l45.7.22,0,5.63L189,417.73Z"/><path id="Path_4" data-name="Path 4" d="M272.43,402.81c7.25,0,11,2.69,11,7.37,0,3.83-2.41,6.32-7.24,7.87l-24.7,7.81c-1.41.45-2.28,1.34-2.28,2.49s1.14,2.19,3.35,2.19h29.87v5.87H252c-7.25,0-10.94-2.69-10.94-7.37,0-3.83,2.42-6.32,7.32-7.86L273,413.37c1.47-.45,2.35-1.35,2.35-2.49,0-1.3-1.14-2.19-3.43-2.19H242.7v-5.88Z"/><path id="Path_5" data-name="Path 5" d="M265.89,365.77v32.12h-6.38V365.77Z"/><path id="Path_6" data-name="Path 6" d="M276.61,398.12H270l12-28.72c1.26-3,3.59-4.16,7.18-4.16s5.86,1.15,7.08,4.16l11.52,28.72h-6.61l-10.37-26a1.62,1.62,0,0,0-1.67-1.1,1.74,1.74,0,0,0-1.72,1.1Z"/><path id="Path_7" data-name="Path 7" d="M251.27,365.57v32.12h-6V365.57Z"/></g><path d="M202.42,646.82l14.65,36.79,15.27-39.77a.92.92,0,0,1,.92-.57c.8,0,1,.23,1,.46a1.67,1.67,0,0,1-.17.57l-16,41.31c-.28.8-.45,1.15-1.08,1.15s-.81-.35-1-1l-14.42-36.45L187.2,685.79c-.23.62-.4,1-1,1s-.81-.35-1.09-1.15l-16-41.31a1.67,1.67,0,0,1-.17-.57c0-.23.23-.46,1-.46a.9.9,0,0,1,.92.57l15.28,39.77,14.65-36.79a.82.82,0,0,1,1.6,0Z"/><path d="M254.15,649.91,271,685.33a1.21,1.21,0,0,1,.17.46c0,.22-.29.4-1,.4a1.3,1.3,0,0,1-1-.46l-3.71-7.84H240.7L237,685.73a1.27,1.27,0,0,1-1,.46c-.69,0-1-.18-1-.4a1.21,1.21,0,0,1,.17-.46l16.88-35.42a1.2,1.2,0,0,1,1-.8A1.21,1.21,0,0,1,254.15,649.91Zm-12.7,26.38h23.28l-11.61-24.55Z"/><path d="M280.36,672.17v13.62s-.12.4-.86.4-.86-.4-.86-.4V650.08s.12-.34.86-.34.86.34.86.34v20.37h26.89V650.08s.12-.34.86-.34.86.34.86.34v35.71s-.12.4-.86.4-.86-.4-.86-.4V672.17Z"/><path d="M344,684.53s.34.11.34.8-.34.86-.34.86H322.65a.93.93,0,0,1-1-1V650.08s.12-.34.86-.34.86.34.86.34v34.45Z"/><path class="cls-2" d="M142.58,730.51c38.18-3.12,55.77-18.33,63.36-26.76,9-10,14.92-25.56,26.43-56.93,11.22-30.59,13.76-45.64,29.14-62.34,8.08-8.78,15.95-13.93,24.39-16.94,5.27-1.88,17.77-6.37,31.18-1.36,17.4,6.51,25.07,24.48,24.39,25.07-.38.33-3.4-4.55-10.16-7.45a29.48,29.48,0,0,0-17.62-1.36c-11.39,2.56-21.09,12-24.4,23.72-.6,2.13-5.06,18.89,5.42,29.14,9.21,9,26.41,9.55,40-.68"/><path d="M125.86,242.62c-.25,0-.21-.28.14-.84a177.49,177.49,0,0,1,17.19-23.21c1.29-1.47,2.17-2.38,3.08-2.38a20.22,20.22,0,0,1,2.48.32c.81.18,1.47.8.81,2.17a96.48,96.48,0,0,0-4.76,11.52,118.1,118.1,0,0,1,12.25-13.38c.7-.63.94-.66,1.5-.49a13.5,13.5,0,0,1,2.8.95c1.09.81.67,1.58-.73,3.57-3.78,5.5-8.37,13.27-11,18a3.9,3.9,0,0,1-1.43,1.4c-.56.21-1.58.42-2.42.77-.52.24-.73.07-.59-.25,2.24-5,5-10.64,8.22-16.41A122.64,122.64,0,0,0,141.54,238c-.35.49-.56.73-.87.73a3.62,3.62,0,0,1-1.65-.77c-1-.66-1.33-1.71-.45-4s2.38-5.81,4.2-9.8a192.69,192.69,0,0,0-12.71,15.61A5.67,5.67,0,0,1,127.4,242,6.11,6.11,0,0,1,125.86,242.62Z"/><path d="M160.06,241c-1.85-.67-2.73-2.45-2.73-4.59,0-2.87,2.17-6.82,5.25-11a80.69,80.69,0,0,1,7.46-8.93.56.56,0,0,1,.8-.14,10,10,0,0,1,2.07,1.82,1.65,1.65,0,0,1-.18,2.38c-1.92,2.31-4.16,5.08-6.16,7.81-3.46,4.79-5.28,8.33-5.11,10.78,2.66-.35,5.81-2.77,9.87-7.53a95.71,95.71,0,0,0,9.59-13.69.36.36,0,0,1,.63-.07c.21.22.35.53.63.84.49.56.7,1.13,0,2.42a84,84,0,0,1-7.91,12.6c-4.27,5.5-7.56,8.12-11.27,8.12A5.36,5.36,0,0,1,160.06,241Z"/><path d="M173.75,242.17c1.86-2.94,4.41-6.79,7.07-10.68a4,4,0,0,1-1.08-1.85c-.18-.53,0-.7.31-.74.81-.1,1.75-.21,2.77-.31,1.85-2.66,3.67-5.25,5.28-7.46-1.4.11-2,0-2.27-.24a3.21,3.21,0,0,1-.7-1.69c0-.31.1-.34.45-.41,1.44-.22,3-.46,4.76-.67.39-.49.77-1,1.09-1.36s.7-.67,1-.39a9.61,9.61,0,0,1,1.16,1.4c4.06-.46,8.15-.77,10.92-.88.21,0,.21.14.14.32a4.3,4.3,0,0,1-.77,1.22c-.39.5-.84.67-2.07.88-2.1.35-4.93.81-7.56,1.16a8.51,8.51,0,0,1-1.12,2.06c-1,1.54-2.31,3.36-3.74,5.43,2.34-.21,4.72-.46,6.68-.7.46-.07.53,0,.53.14a3.93,3.93,0,0,1-1.26,1.89,4.11,4.11,0,0,1-1.47.59c-2.21.49-4.66,1-6.79,1.26-2.1,2.94-4.55,6.23-7.32,9.91-.45.63-.66.66-1.4.7a37.47,37.47,0,0,0-4.51.94C173.61,242.69,173.54,242.52,173.75,242.17Z"/><path d="M207.08,242.8a99.33,99.33,0,0,1,2.69-11.17,93.06,93.06,0,0,0-9.9,4.13c-2.21,2.73-3.05,4.1-3.43,5.6-.11.35-.18.6-.46.6a5.67,5.67,0,0,1-2.31-1.3c-1.47-1.15-1.43-2.41.18-4.65,3.71-5.08,13.3-14.67,16.8-17.4,2.13-1.65,2.83-2.1,3.67-2.1a21.28,21.28,0,0,1,2.87.91c1.44.42,1.72,1.37,1,2.62a86.86,86.86,0,0,0-4,8.41,1.62,1.62,0,0,1,.42.31c.46.46.56.7.56.88s-.07.21-.84.45l-.94.32c-1.37,3.36-2.59,6.93-3.71,10.46a2.7,2.7,0,0,1-1.23,1.68c-.17.11-.63.35-.91.53S207,243.22,207.08,242.8Zm3.46-13.69c.91-2.76,1.82-5.32,2.7-7.35a120.62,120.62,0,0,0-9.31,9.24C206.06,230.34,208.3,229.71,210.54,229.11Z"/><path d="M218.7,242.83a4.92,4.92,0,0,1-4.09-2.27c-1.2-1.61-1-2.24-.6-2.24l1.36,0c5.54,0,9.95-2.1,9.95-4.23,0-1-.6-1.51-2.45-2.66-1.58-1-3.08-1.93-3.08-3.89,0-2.59,2.55-5.21,6.26-7.7s7.49-4.2,9.63-4.2c1.26,0,2.06.63,2.94,1.89s.77,1.68.42,1.78a51.16,51.16,0,0,0-10.19,4.7c-3.53,2.13-5.21,3.64-5.21,5.14,0,.81.77,1.51,1.64,2.07,1.54,1,3.57,2.13,3.57,4.23C228.85,239.19,223,242.83,218.7,242.83Z"/><path d="M244.61,242.8a99.33,99.33,0,0,1,2.69-11.17,94.2,94.2,0,0,0-9.91,4.13c-2.2,2.73-3,4.1-3.43,5.6-.1.35-.17.6-.45.6a5.55,5.55,0,0,1-2.31-1.3c-1.47-1.15-1.44-2.41.17-4.65,3.71-5.08,13.31-14.67,16.81-17.4,2.13-1.65,2.83-2.1,3.67-2.1a21.28,21.28,0,0,1,2.87.91c1.44.42,1.72,1.37,1,2.62a86.86,86.86,0,0,0-4,8.41,1.62,1.62,0,0,1,.42.31c.46.46.56.7.56.88s-.07.21-.84.45l-.94.32c-1.37,3.36-2.59,6.93-3.71,10.46a2.7,2.7,0,0,1-1.23,1.68c-.17.11-.63.35-.91.53S244.54,243.22,244.61,242.8Zm3.46-13.69c.91-2.76,1.82-5.32,2.7-7.35a120.62,120.62,0,0,0-9.31,9.24C243.59,230.34,245.83,229.71,248.07,229.11Z"/><path d="M261.87,242.83a5,5,0,0,1-4.1-2.27c-1.19-1.61-1-2.24-.59-2.24l1.36,0c5.53,0,9.94-2.1,9.94-4.23,0-1-.59-1.51-2.45-2.66-1.57-1-3.08-1.93-3.08-3.89,0-2.59,2.56-5.21,6.27-7.7s7.49-4.2,9.62-4.2c1.26,0,2.07.63,2.94,1.89s.77,1.68.42,1.78A51.31,51.31,0,0,0,272,224c-3.54,2.13-5.22,3.64-5.22,5.14,0,.81.77,1.51,1.65,2.07,1.54,1,3.57,2.13,3.57,4.23C272,239.19,266.21,242.83,261.87,242.83Z"/><path d="M287.77,242.8a97.36,97.36,0,0,1,2.7-11.17,94.2,94.2,0,0,0-9.91,4.13c-2.21,2.73-3.05,4.1-3.43,5.6-.11.35-.18.6-.45.6a5.62,5.62,0,0,1-2.32-1.3c-1.47-1.15-1.43-2.41.18-4.65,3.71-5.08,13.3-14.67,16.8-17.4,2.14-1.65,2.84-2.1,3.68-2.1a22.21,22.21,0,0,1,2.87.91c1.43.42,1.71,1.37,1,2.62a86.88,86.88,0,0,0-4,8.41,1.62,1.62,0,0,1,.42.31c.45.46.56.7.56.88s-.07.21-.84.45l-.95.32c-1.36,3.36-2.59,6.93-3.71,10.46a2.66,2.66,0,0,1-1.22,1.68c-.18.11-.63.35-.91.53S287.7,243.22,287.77,242.8Zm3.47-13.69c.91-2.76,1.82-5.32,2.69-7.35a122.43,122.43,0,0,0-9.31,9.24C286.76,230.34,289,229.71,291.24,229.11Z"/><path d="M292.67,242.17c1.86-2.94,4.42-6.79,7.08-10.68a4,4,0,0,1-1.09-1.85c-.17-.53,0-.7.31-.74.81-.1,1.76-.21,2.77-.31,1.86-2.66,3.68-5.25,5.29-7.46-1.4.11-2,0-2.28-.24a3.21,3.21,0,0,1-.7-1.69c0-.31.11-.34.46-.41,1.43-.22,3-.46,4.76-.67.38-.49.77-1,1.08-1.36s.7-.67,1-.39a9,9,0,0,1,1.15,1.4c4.06-.46,8.16-.77,10.92-.88.21,0,.21.14.14.32a4.3,4.3,0,0,1-.77,1.22c-.38.5-.84.67-2.06.88-2.1.35-4.94.81-7.56,1.16a9.29,9.29,0,0,1-1.12,2.06c-1.05,1.54-2.31,3.36-3.75,5.43,2.35-.21,4.73-.46,6.69-.7.45-.07.52,0,.52.14a3.86,3.86,0,0,1-1.26,1.89,4,4,0,0,1-1.47.59c-2.2.49-4.65,1-6.79,1.26-2.1,2.94-4.55,6.23-7.32,9.91-.45.63-.66.66-1.4.7a37.47,37.47,0,0,0-4.51.94C292.53,242.69,292.46,242.52,292.67,242.17Z"/><path d="M326,242.8a97.36,97.36,0,0,1,2.7-11.17,94.2,94.2,0,0,0-9.91,4.13c-2.21,2.73-3.05,4.1-3.43,5.6-.11.35-.18.6-.45.6a5.62,5.62,0,0,1-2.32-1.3c-1.47-1.15-1.43-2.41.18-4.65,3.71-5.08,13.3-14.67,16.8-17.4,2.14-1.65,2.84-2.1,3.68-2.1a22.21,22.21,0,0,1,2.87.91c1.43.42,1.71,1.37,1,2.62a86.88,86.88,0,0,0-4,8.41,1.62,1.62,0,0,1,.42.31c.45.46.56.7.56.88s-.07.21-.84.45l-.95.32c-1.36,3.36-2.59,6.93-3.71,10.46a2.66,2.66,0,0,1-1.22,1.68c-.18.11-.63.35-.91.53S325.93,243.22,326,242.8Zm3.47-13.69c.91-2.76,1.82-5.32,2.69-7.35a122.43,122.43,0,0,0-9.31,9.24C325,230.34,327.23,229.71,329.47,229.11Z"/><path d="M348.51,242.24a74.05,74.05,0,0,0-5.71-9.63c-1.4,1.93-2.87,4-4.55,6.23a5,5,0,0,1-3.5,2.42,16.11,16.11,0,0,1-2.9.42c-.32,0-.28-.53.07-1.05,4-6.41,9.17-14.07,13.3-19.36a.78.78,0,0,1-.17-.21,16.16,16.16,0,0,1-.88-3c-.07-.36,0-.78.42-.88a22.21,22.21,0,0,1,5.32-.63c3.29,0,5.67.66,7.42,2.52a4.43,4.43,0,0,1,1.19,3.12c0,4.09-4.41,8.26-10.57,10,1,1.89,1.89,3.78,2.59,5.46a4.6,4.6,0,0,1,.49,1.82c0,1-.38,1.05-1.29,2.31C349.25,242.45,348.72,242.66,348.51,242.24Zm-3.05-13.44c4.38-.46,10.65-4.17,11.21-7.63a5.13,5.13,0,0,0-3.61-1,20.91,20.91,0,0,0-4.24.52c.95.85,1.3,1.3.81,2C348.23,224.74,346.9,226.73,345.46,228.8Z"/><path d="M368.57,216.79c.28-.39.46-.42.87-.25a10.56,10.56,0,0,1,1.72.85c1.12.7,1.23,1.92-.63,4.51-2.94,4.48-8.79,13-12.08,17.68-.77,1-1.15,1.57-2.31,1.75s-2.48.24-3.43.45c-1.12.25-1.33-.1-.94-.66C355.69,235.34,364.26,222.88,368.57,216.79Z"/></svg>