<svg id="Layer_1" data-name="Layer 1" xmlns="http://www.w3.org/2000/svg" xmlns:xlink="http://www.w3.org/1999/xlink" width="516" height="838" viewBox="0 0 516 838"><defs><style>.cls-1{fill:url(#linear-gradient);}.cls-10,.cls-2,.cls-3,.cls-4,.cls-5,.cls-6,.cls-7,.cls-8,.cls-9{isolation:isolate;}.cls-10,.cls-2,.cls-3,.cls-4,.cls-5,.cls-6,.cls-7{opacity:0.7;}.cls-2{fill:url(#linear-gradient-2);}.cls-3{fill:url(#linear-gradient-3);}.cls-4{fill:url(#linear-gradient-4);}.cls-5{fill:url(#linear-gradient-5);}.cls-6{fill:url(#linear-gradient-6);}.cls-7{fill:url(#linear-gradient-7);}.cls-8,.cls-9{opacity:0.4;}.cls-8{fill:url(#linear-gradient-8);}.cls-9{fill:url(#linear-gradient-9);}.cls-10{fill:url(#linear-gradient-10);}</style><linearGradient id="linear-gradient" x1="185.16" y1="-6001.93" x2="1023.16" y2="-6001.93" gradientTransform="matrix(0, 1, 1, 0, 6258.24, -185.16)" gradientUnits="userSpaceOnUse"><stop offset="0" stop-color="#d68fff"/><stop offset="0.14" stop-color="#99b0ff"/><stop offset="0.64" stop-color="#8945f8"/><stop offset="0.69" stop-color="#8145fa"/><stop offset="0.8" stop-color="#7145fe"/><stop offset="0.9" stop-color="#6c45ff"/><stop offset="1" stop-color="#4d45ff"/></linearGradient><linearGradient id="linear-gradient-2" x1="906.92" y1="3363.91" x2="987.67" y2="3363.91" gradientTransform="translate(2906.72 -1707.78) rotate(62.76)" gradientUnits="userSpaceOnUse"><stop offset="0" stop-color="#131226"/><stop offset="1" stop-color="#d990d0"/></linearGradient><linearGradient id="linear-gradient-3" x1="885.23" y1="3366.9" x2="1015" y2="3366.9" gradientTransform="translate(2906.72 -1707.78) rotate(62.76)" gradientUnits="userSpaceOnUse"><stop offset="0" stop-color="#131226"/><stop offset="0.13" stop-color="#313239"/><stop offset="0.44" stop-color="#e08bff"/><stop offset="0.7" stop-color="#a84f85"/><stop offset="0.89" stop-color="#c76499"/><stop offset="1" stop-color="#d348a0"/></linearGradient><linearGradient id="linear-gradient-4" x1="294.71" y1="3300.22" x2="396.95" y2="3300.22" gradientTransform="translate(2907.58 2249.74) rotate(135)" gradientUnits="userSpaceOnUse"><stop offset="0" stop-color="#131226"/><stop offset="1" stop-color="#559bd7"/></linearGradient><linearGradient id="linear-gradient-5" x1="648.12" y1="3317.79" x2="683.26" y2="3317.79" gradientTransform="translate(3629.66 -185.16) rotate(90)" gradientUnits="userSpaceOnUse"><stop offset="0" stop-color="#131226"/><stop offset="0.14" stop-color="#24212f"/><stop offset="0.42" stop-color="#5134c7"/><stop offset="0.81" stop-color="#984ad7"/><stop offset="1" stop-color="#7846d1"/></linearGradient><linearGradient id="linear-gradient-6" x1="472.47" y1="3470.47" x2="523.59" y2="3470.47" gradientTransform="translate(3629.66 -185.16) rotate(90)" gradientUnits="userSpaceOnUse"><stop offset="0" stop-color="#131226"/><stop offset="1" stop-color="#2231d7"/></linearGradient><linearGradient id="linear-gradient-7" x1="65.86" y1="-5182.67" x2="172.96" y2="-5182.67" gradientTransform="matrix(1, 0, 0, -1, 0, -4654.3)" gradientUnits="userSpaceOnUse"><stop offset="0" stop-color="#121026"/><stop offset="1" stop-color="#00a2b9"/></linearGradient><linearGradient id="linear-gradient-8" x1="67.06" y1="-5159.61" x2="162.11" y2="-5159.61" gradientTransform="matrix(1, 0, 0, -1, 0, -4654.3)" gradientUnits="userSpaceOnUse"><stop offset="0" stop-color="#121026"/><stop offset="0.35" stop-color="#0a4e64"/><stop offset="0.64" stop-color="#057c92"/><stop offset="0.87" stop-color="#0198ae"/><stop offset="1" stop-color="#00a2b9"/></linearGradient><linearGradient id="linear-gradient-9" x1="3300.92" y1="13124.92" x2="3460.13" y2="13124.92" gradientTransform="matrix(-1, 0, 0, 1, 3508.83, -12576.05)" gradientUnits="userSpaceOnUse"><stop offset="0" stop-color="#00a2b9"/><stop offset="0.34" stop-color="#076d83"/><stop offset="0.79" stop-color="#0f2a40"/><stop offset="1" stop-color="#121026"/></linearGradient><linearGradient id="linear-gradient-10" x1="339.65" y1="3546.67" x2="363.4" y2="3546.67" xlink:href="#linear-gradient-5"/></defs><rect class="cls-1" x="-3.38" width="519.38" height="838"/><path class="cls-2" d="M367.93,710.05a40.37,40.37,0,0,1-54.36-17.42c-7.06-13.71-5-30.43,3.08-42A36.32,36.32,0,0,1,331,638.28c15.79-7.39,43-4.68,54.36,17.41A40.35,40.35,0,0,1,367.93,710.05Z"/><path class="cls-3" d="M315.25,652.49c.33-1.07-34.4-15.68-36.8-11.37-2.63,4.71,33.42,32.44,72.86,51.84,29.45,14.46,64.49,26.09,66.55,21.91s-31-25-31.51-24.33,21.46,15.54,19.84,18.27c-1.88,3.19-34.13-12.12-52.83-21.79-26-13.45-60.15-33.72-58.28-37.67C296.39,646.54,315,653.27,315.25,652.49Z"/><circle class="cls-4" cx="329.43" cy="160.67" r="51.12" transform="translate(-17.12 280) rotate(-45)"/><circle class="cls-5" cx="311.86" cy="480.53" r="17.57"/><circle class="cls-6" cx="159.19" cy="312.87" r="25.56"/><circle class="cls-7" cx="119.41" cy="528.37" r="53.55"/><path class="cls-8" d="M134.5,509.77c-.1,4.3-48.63,5.4-48.65,8.76,0,2.14,19.54,2.85,19.51,4.28,0,1.86-33.48,7-37.79-2.85-2.25-5.12,3.3-14.66,10-16.61,5.52-1.62,8.83,2.83,15,1.18,5.61-1.51,7.55-6.53,10.68-10.2,12.51-14.68,44.55-8.44,44.62-6.88s-32.44,2.22-32.52,6.17c0,2,8.26,5.25,16.62,4.51,11.88-1.06,16.91-9.57,24.2-6.89,3.22,1.19,6.46,4.4,5.94,6.65-1.75,7.48-44.83,2.7-45.1,5.46C116.77,505.12,134.56,507.2,134.5,509.77Z"/><path class="cls-9" d="M103.92,544.41c.1-4.31,48.63-5.41,48.66-8.77,0-2.14-19.55-2.85-19.52-4.27,0-1.86,33.48-7,37.79,2.84,2.25,5.13-3.3,14.66-10,16.62-5.52,1.61-8.83-2.84-15-1.19-5.61,1.51-7.55,6.53-10.68,10.2-12.51,14.68-44.55,8.45-44.62,6.89s32.44-2.22,32.52-6.17c0-2-8.26-5.25-16.62-4.51-11.88,1-16.91,9.56-24.2,6.88-3.22-1.19-6.46-4.4-5.94-6.65,1.75-7.48,44.83-2.7,45.1-5.45C121.62,549.05,103.86,547,103.92,544.41Z"/><circle class="cls-10" cx="82.99" cy="166.37" r="11.87"/></svg>