<svg id="Layer_1" data-name="Layer 1" xmlns="http://www.w3.org/2000/svg" xmlns:xlink="http://www.w3.org/1999/xlink" width="460" height="310" viewBox="0 0 460 310"><defs><style>.cls-1{fill:url(#linear-gradient);}.cls-2{fill:#333;}.cls-3{fill:#dcdcdc;}.cls-4{fill:url(#linear-gradient-2);}.cls-5{fill:url(#linear-gradient-3);}.cls-6{fill:url(#linear-gradient-4);}.cls-7{fill:none;stroke:#000;stroke-miterlimit:10;stroke-width:4px;}.cls-8{fill:url(#linear-gradient-5);}.cls-9{fill:#ee6c4a;}.cls-10{opacity:0.4;}.cls-11{fill:#fffef9;}</style><linearGradient id="linear-gradient" x1="-759.43" y1="6875.69" x2="-759.43" y2="6874.69" gradientTransform="matrix(190.88, 0, 0, -130.34, 145177.95, 896335.92)" gradientUnits="userSpaceOnUse"><stop offset="0" stop-color="#fff"/><stop offset="0.49" stop-color="#51514f"/><stop offset="0.61" stop-color="#fff"/><stop offset="0.69" stop-color="#626261"/><stop offset="0.77" stop-color="#474746"/><stop offset="0.92" stop-color="#141414"/><stop offset="1"/></linearGradient><linearGradient id="linear-gradient-2" x1="-760.49" y1="6874.93" x2="-759.49" y2="6874.93" gradientTransform="matrix(107.1, 0, 0, -131, 81632.81, 900749.22)" gradientUnits="userSpaceOnUse"><stop offset="0.01" stop-color="#fff"/><stop offset="0.13" stop-color="#f8f8f8"/><stop offset="0.32" stop-color="#e5e5e5"/><stop offset="0.54" stop-color="#c5c5c5"/><stop offset="0.78" stop-color="#9a9a9a"/><stop offset="1" stop-color="#6d6d6d"/></linearGradient><linearGradient id="linear-gradient-3" x1="-760.46" y1="7914.08" x2="-759.46" y2="7914.08" gradientTransform="matrix(107.1, 0, 0, -6.2, 81616.9, 49138.54)" gradientUnits="userSpaceOnUse"><stop offset="0.01"/><stop offset="0.16" stop-color="#060606"/><stop offset="0.39" stop-color="#191919"/><stop offset="0.65" stop-color="#383838"/><stop offset="0.94" stop-color="#646464"/><stop offset="1" stop-color="#6d6d6d"/></linearGradient><linearGradient id="linear-gradient-4" x1="-760.49" y1="6877.49" x2="-759.49" y2="6877.49" gradientTransform="matrix(107.1, 0, 0, -124.81, 81619.17, 858488.77)" xlink:href="#linear-gradient-2"/><linearGradient id="linear-gradient-5" x1="-767.82" y1="7914.08" x2="-766.82" y2="7914.08" gradientTransform="matrix(15.93, 0, 0, -6.2, 12509.26, 49138.54)" xlink:href="#linear-gradient-3"/></defs><g id="Group_67" data-name="Group 67"><path id="Path_66-3" data-name="Path 66-3" class="cls-1" d="M126.22,304.7c58.26-48.81,66.33-76.79,61.48-93.62-2.18-7.54-6.76-12.16-4.59-18.35,8.07-23,92.53-19.89,96.35-3.67,1.7,7.19-13.87,10.9-19.27,24.78-9.73,25,22,61.45,56.9,92.68Z"/><rect id="Rectangle_28-3" data-name="Rectangle 28-3" class="cls-2" x="1.25" y="3.48" width="457.5" height="231.57" rx="8.87"/><rect id="Rectangle_29-3" data-name="Rectangle 29-3" class="cls-3" x="9.33" y="8.81" width="441.35" height="220.91" rx="8.87"/><g id="Group_65" data-name="Group 65"><path id="Path_80" data-name="Path 80" class="cls-4" d="M291.51,195.06l-15.69,4h-91.4V68H291.51Z"/><path id="Path_81" data-name="Path 81" class="cls-5" d="M178.66,74.24h96.92V68H178.66l-10.18,6.2Z"/><rect id="Rectangle_38" data-name="Rectangle 38" class="cls-6" x="168.48" y="74.24" width="107.1" height="124.81"/><path id="Path_82" data-name="Path 82" class="cls-7" d="M209.21,92.42c0-1.47,0-3.56,0-6.07.17-27.22.39-40.91,6.92-45,4.66-2.91,11.51-2.17,15.43.51,4.36,3,5.37,8.23,6.12,15.92a208.64,208.64,0,0,1,.44,35.26"/><path id="Path_83" data-name="Path 83" class="cls-8" d="M275.59,74.24V68h15.93Z"/><path id="Path_84" data-name="Path 84" class="cls-7" d="M218.38,69.16c0-.77,0-1.87,0-3.2.12-11.08.38-20,6.21-23.71A12.36,12.36,0,0,1,234.71,41c5,1.69,8.35,7.18,7.9,13.72V68.48"/></g><g id="Group_66" data-name="Group 66"><path id="Path_1" data-name="Path 1" class="cls-9" d="M212.23,114.27v10.11h-2.4V114.27Z"/><path id="Path_2" data-name="Path 2" class="cls-9" d="M220.28,128.55l-8.09,0V130a3.54,3.54,0,0,0,.46,2.64,3.92,3.92,0,0,0,2.24,1.47,6.94,6.94,0,0,0,5-.54v2.68a9.34,9.34,0,0,1-5.56.29,6.47,6.47,0,0,1-2.12-1.09,5.86,5.86,0,0,1-1.35-1.5,4.17,4.17,0,0,1-.5,1,5.56,5.56,0,0,1-3.18,2,9.8,9.8,0,0,1-5.6-.11V134.6a6.85,6.85,0,0,0,5,0,4.14,4.14,0,0,0,2.06-1.63,6.37,6.37,0,0,0,.54-3c0-.6,0-1.1,0-1.43l-8,0v-2.6l19.08,0Z"/><path id="Path_3" data-name="Path 3" class="cls-9" d="M201.37,140.68l18.92.09v2.33L201.36,143Z"/><path id="Path_4" data-name="Path 4" class="cls-9" d="M235.92,136.83c3,0,4.56,1.11,4.56,3,0,1.59-1,2.62-3,3.26l-10.23,3.24a1.15,1.15,0,0,0-.94,1c0,.54.47.91,1.39.91h12.36v2.43H227.47c-3,0-4.53-1.11-4.53-3.05,0-1.59,1-2.62,3-3.26l10.17-3.24c.61-.18,1-.55,1-1s-.48-.9-1.42-.9H223.61v-2.44Z"/><path id="Path_5" data-name="Path 5" class="cls-9" d="M233.21,121.49v13.3h-2.64v-13.3Z"/><path id="Path_6" data-name="Path 6" class="cls-9" d="M237.65,134.88h-2.72l5-11.89a2.81,2.81,0,0,1,3-1.72A2.77,2.77,0,0,1,245.8,123l4.77,11.89h-2.74l-4.29-10.76a.67.67,0,0,0-.69-.45.72.72,0,0,0-.72.45Z"/><path id="Path_7" data-name="Path 7" class="cls-9" d="M227.16,121.4v13.3h-2.49V121.4Z"/></g><g id="Group_62" data-name="Group 62" class="cls-10"><path id="Path_67-2" data-name="Path 67-2" class="cls-11" d="M78.9,229.72H235.69L381.1,8.8H245.31Q162.09,119.26,78.9,229.72Z"/></g></g></svg>