<svg id="Layer_1" data-name="Layer 1" xmlns="http://www.w3.org/2000/svg" xmlns:xlink="http://www.w3.org/1999/xlink" width="460" height="310" viewBox="0 0 460 310"><defs><style>.cls-1{fill:url(#linear-gradient);}.cls-2{fill:#333;}.cls-3{fill:#dcdcdc;}.cls-4{fill:#ee6c4a;}.cls-5{opacity:0.4;}.cls-6{fill:#fffef9;}</style><linearGradient id="linear-gradient" x1="-148.75" y1="6875.69" x2="-148.75" y2="6874.69" gradientTransform="matrix(190.88, 0, 0, -130.34, 28613.87, 896335.9)" gradientUnits="userSpaceOnUse"><stop offset="0" stop-color="#fff"/><stop offset="0.49" stop-color="#51514f"/><stop offset="0.61" stop-color="#fff"/><stop offset="0.69" stop-color="#626261"/><stop offset="0.77" stop-color="#474746"/><stop offset="0.92" stop-color="#141414"/><stop offset="1"/></linearGradient></defs><path id="Path_66" data-name="Path 66" class="cls-1" d="M126.22,304.7c58.26-48.81,66.33-76.79,61.48-93.62-2.18-7.54-6.76-12.16-4.59-18.35,8.07-23,92.53-19.89,96.35-3.67,1.7,7.19-13.87,10.9-19.27,24.78-9.73,25,22,61.45,56.9,92.68Z"/><rect id="Rectangle_28" data-name="Rectangle 28" class="cls-2" x="1.25" y="3.48" width="457.5" height="231.57" rx="8.87"/><rect id="Rectangle_29" data-name="Rectangle 29" class="cls-3" x="9.33" y="8.81" width="441.35" height="220.91" rx="8.87"/><g id="Layer_2-2" data-name="Layer 2-2"><g id="Layer_1-2" data-name="Layer 1-2"><path id="Path_111" data-name="Path 111" class="cls-4" d="M157.44,87.62q-7.09,37.62-14.2,75.14c-4.71,2.47-7,3.81-11.65,6.54q8.21-39.72,16.4-79.47c-4.92,1.26-7.37,2-12.26,3.54,1.74-7.8,2.6-11.7,4.34-19.5a292.45,292.45,0,0,1,32.3-4.38c-1,6.37-1.52,9.56-2.53,15.93C164.87,86.15,162.39,86.59,157.44,87.62Z"/><path id="Path_112" data-name="Path 112" class="cls-4" d="M174,69.41c3.61-.18,5.36-.18,8.92-.18L173.2,149c-4.93,1.93-7.37,3-12.21,5.12Z"/><path id="Path_113" data-name="Path 113" class="cls-4" d="M221.67,73.29q3.77,30,7.52,60c-5.61,1-8.4,1.52-13.94,2.77-9-13.23-15.5-28.11-20.49-43.24q-1.47,24.78-3,49.55c-4.73,1.49-7.07,2.29-11.73,4l7.81-77.06c3.82.11,5.73.21,9.53.51,4.71,15.79,10.14,31.28,18.55,45.54q-1.2-21.78-2.39-43.59C216.8,72.31,218.43,72.61,221.67,73.29Z"/><path id="Path_114" data-name="Path 114" class="cls-4" d="M254,83.1l4.87,8.7a176.22,176.22,0,0,0-21.13-5l3,11.09a190.09,190.09,0,0,1,19,2.56l4.45,9q-10.32-1.19-20.7-1.33c1.33,4.92,2,7.38,3.32,12.29a246,246,0,0,1,28.09.1l4.87,8.69a392.59,392.59,0,0,0-43.35,3l-10-57.8A176.58,176.58,0,0,1,254,83.1Z"/><path id="Path_115" data-name="Path 115" class="cls-4" d="M280.26,99.23a179.09,179.09,0,0,0-19.27-7l-5-8.42a179.9,179.9,0,0,1,27,13.75l7,5.48c4.31,5.57,4.62,9.19,2.14,18.93a251.18,251.18,0,0,1,27.81,4.75l8.47,6.68a292.66,292.66,0,0,0-47.1-4.33c-1.6-2.8-2.41-4.19-4-7C281.64,110.67,282.37,106.23,280.26,99.23Z"/></g></g><g id="Group_62-3" data-name="Group 62-3" class="cls-5"><path id="Path_67-4" data-name="Path 67-4" class="cls-6" d="M70.55,229.72h156.8L372.75,8.8H237Z"/></g></svg>