<svg id="Layer_1" data-name="Layer 1" xmlns="http://www.w3.org/2000/svg" xmlns:xlink="http://www.w3.org/1999/xlink" width="460" height="310" viewBox="0 0 460 310"><defs><style>.cls-1{fill:url(#linear-gradient);}.cls-2{fill:#333;}.cls-3{fill:#dcdcdc;}.cls-4{opacity:0.3;}.cls-5,.cls-6,.cls-8{fill:none;stroke-miterlimit:10;}.cls-5,.cls-6{stroke:#1d1d1b;}.cls-5{stroke-width:5px;}.cls-6{stroke-width:3px;}.cls-7{fill:#010101;}.cls-8{stroke:#010101;stroke-width:2px;}.cls-9{opacity:0.4;}.cls-10{fill:#fffef9;}</style><linearGradient id="linear-gradient" x1="-759.43" y1="7508.2" x2="-759.43" y2="7507.2" gradientTransform="matrix(190.88, 0, 0, -130.34, 145178.13, 978775.18)" gradientUnits="userSpaceOnUse"><stop offset="0" stop-color="#fff"/><stop offset="0.49" stop-color="#51514f"/><stop offset="0.61" stop-color="#fff"/><stop offset="0.69" stop-color="#626261"/><stop offset="0.77" stop-color="#474746"/><stop offset="0.92" stop-color="#141414"/><stop offset="1"/></linearGradient></defs><g id="Group_70" data-name="Group 70"><path id="Path_66-4" data-name="Path 66-4" class="cls-1" d="M126.22,304.7c58.26-48.81,66.33-76.79,61.48-93.62-2.18-7.54-6.76-12.16-4.59-18.35,8.07-23,92.53-19.89,96.35-3.66,1.7,7.18-13.87,10.9-19.27,24.77-9.73,25,22,61.45,56.9,92.68Z"/><rect id="Rectangle_28-4" data-name="Rectangle 28-4" class="cls-2" x="1.25" y="3.48" width="457.5" height="231.57" rx="8.87"/><rect id="Rectangle_29-4" data-name="Rectangle 29-4" class="cls-3" x="9.33" y="8.81" width="441.35" height="220.91" rx="8.87"/><g id="logo_sort_hvid" data-name="logo sort hvid"><g id="Layer_2" data-name="Layer 2"><g id="Group_69" data-name="Group 69" class="cls-4"><circle id="Ellipse_20" data-name="Ellipse 20" class="cls-5" cx="223.61" cy="123.27" r="68.97"/><path id="Path_88" data-name="Path 88" class="cls-5" d="M154.64,123.27c19.31-14.16,33.3-15.28,42.54-13.63,23.72,4.24,30.3,29.19,54.82,33.94,15.63,3,30.16-3.75,40-9.91"/><path id="Path_89" data-name="Path 89" class="cls-5" d="M157.19,141.89c11.46-9.56,28.54-20.53,46.17-17,20.47,4.08,26.24,24.67,46.07,27.65,15.49,2.33,30.48-7.46,42.54-18.85"/><path id="Path_90" data-name="Path 90" class="cls-5" d="M163.63,157.35c9.06-8.47,21.92-17.44,36.6-16.37,20.92,1.54,28.32,22.82,46.94,24.23,9.73.73,24.67-3.75,44.8-31.54"/><path id="Path_91" data-name="Path 91" class="cls-5" d="M201.27,188.55c-8.16-2.38-14-8.45-14.76-15.32-.85-7.49,4.39-15.2,10.63-17.64,15.29-6,29.19,22.42,50,22.31,11-.07,26.33-8,44.8-44.23"/><path id="Path_92" data-name="Path 92" class="cls-5" d="M204.85,189.67c5.33,1.54,10.77-.73,13-5s1.13-11.09-3.25-13c-4.07-1.78-10.17.87-10.88,4.86-.63,3.51,2.91,8,5.52,7.47,1.72-.35,3.05-2.83,3.41-6"/></g></g><g id="Layer_1-2" data-name="Layer 1"><circle id="Ellipse_21" data-name="Ellipse 21" class="cls-6" cx="222.65" cy="121.4" r="68.97"/><path id="Path_93" data-name="Path 93" class="cls-7" d="M127.21,107.12c-.28,2.75,1,5.58,5.44,6,3.73.37,5.67-2,6-5a5.43,5.43,0,0,0-1.42-4.1.43.43,0,0,1-.14-.38.4.4,0,0,1,.42-.38h0a1.23,1.23,0,0,1,.59.38,6,6,0,0,1,1.48,4.65c-.35,3.54-2.83,6.25-7,5.84-4.86-.48-6.6-3.9-6.29-7.15.25-2.51,1.76-4.14,3.58-4,.77.08,1.36.5,1.32.9s-.18.42-.4.4-.23-.19-.89-.26C128.43,103.91,127.39,105.27,127.21,107.12Z"/><path id="Path_94" data-name="Path 94" class="cls-7" d="M142.24,80.72l3.82,2s.35.19.11.64-.6.28-.6.28L134.8,77.93s-.35-.19-.11-.65.6-.27.6-.27l6.11,3.26,4-7.52-6.11-3.26s-.35-.19-.1-.65.6-.27.6-.27l10.78,5.76s.35.19.11.65-.6.27-.6.27l-3.82-2Z"/><path id="Path_95" data-name="Path 95" class="cls-7" d="M163.29,55.22l.76,2.73c0,.2.07.37-.26.65a.4.4,0,0,1-.56,0l0,0a.51.51,0,0,1-.07-.17l-3.45-12.81c-.09-.35-.12-.56.2-.82a.7.7,0,0,1,.8-.07l12,5.75a.62.62,0,0,1,.2.15c.07.08.21.26-.14.55a.6.6,0,0,1-.67.13l-2.55-1.25Zm-.28-1,5.56-4.62-7.9-3.85Z"/><path id="Path_96" data-name="Path 96" class="cls-7" d="M199.41,37.53c.13-.05.27.09.32.24.14.44-.32.91-1,1.12-1.5.49-3.53-2.37-5.75-2.82a9,9,0,0,1-1.57.66c-.45.15-.63,0-.72-.24s0-.49.22-.56c2.78-.91,5.11-2.88,4.3-5.36s-2.84-2.3-5.85-1.32l-1.32.43,3.63,11.11s.12.38-.37.54-.62-.22-.62-.22l-3.82-11.68a.34.34,0,0,1,.22-.43h0l2-.65c3.57-1.17,6.16-1.06,7.14,1.94.67,2.05-.38,3.87-2.12,5.12,2,.69,3.66,2.71,4.7,2.38A5.42,5.42,0,0,0,199.41,37.53Z"/><path id="Path_97" data-name="Path 97" class="cls-7" d="M227.55,35.41a.42.42,0,0,1,.38.45v0a.43.43,0,0,1-.42.47l-7.26-.28a.35.35,0,0,1-.34-.35l.47-12.27s0-.4.54-.38.5.42.5.42L221,35.17Z"/><path id="Path_98" data-name="Path 98" class="cls-7" d="M248.91,34.23a6.4,6.4,0,0,1,12,4.36c-.09.22-.18.45-.29.67a6.4,6.4,0,1,1-12-4.36C248.71,34.67,248.8,34.45,248.91,34.23Zm10.79,4.63a5.42,5.42,0,0,0-2.64-7.41,5.74,5.74,0,1,0,2.49,7.74Z"/><path id="Path_99" data-name="Path 99" class="cls-7" d="M286,51.18l-8.18,8.34s-.28.29-.65-.08-.09-.65-.09-.65l8.18-8.34-2.82-2.78a.41.41,0,0,1,0-.59l0,0a.43.43,0,0,1,.6-.09l0,0,6.37,6.26a.43.43,0,0,1,0,.6l0,0a.42.42,0,0,1-.59.08l0,0Z"/><path id="Path_100" data-name="Path 100" class="cls-7" d="M304.87,78.09l-10.55,5s-.35.17-.59-.3.14-.64.14-.64l10.56-5-1.69-3.56A.43.43,0,0,1,303,73H303a.42.42,0,0,1,.58.11l0,0,3.82,8.07a.43.43,0,0,1-.23.56h0a.41.41,0,0,1-.58-.13s0,0,0,0Z"/><path id="Path_101" data-name="Path 101" class="cls-7" d="M302.5,114.81a.49.49,0,0,1-.53.44.48.48,0,0,1-.42-.35l-.66-7.94a.31.31,0,0,1,.27-.37h0l12.29-1a.35.35,0,0,1,.38.31l.62,7.45a.44.44,0,0,1-.43.44.48.48,0,0,1-.54-.35l-.56-6.77-6.43.51.49,5.75a.46.46,0,0,1-.44.44.46.46,0,0,1-.52-.35l-.47-5.75-3.69.31Z"/><path id="Path_102" data-name="Path 102" class="cls-7" d="M166.69,192l-1,10.91,8.65-7.86a.58.58,0,0,1,.69-.13.4.4,0,0,1,.2.53s0,0,0,0a1.05,1.05,0,0,1-.24.27l-9.65,8.78a.36.36,0,0,1-.48.05c-.17-.09-.3-.17-.27-.38l1-11.27-8.44,7.53c-.15.14-.33.07-.5,0a.38.38,0,0,1-.29-.43l1.31-13a.72.72,0,0,1,.07-.25.46.46,0,0,1,.63-.19h0c.23.12.35.31.3.72l-1.19,11.67,8.29-7.38a.47.47,0,0,1,.51,0,.63.63,0,0,1,.38.47Z"/><path id="Path_103" data-name="Path 103" class="cls-7" d="M198.81,211.42l-1.45,2.43c-.11.16-.21.31-.64.26a.41.41,0,0,1-.41-.4.09.09,0,0,1,0-.05.36.36,0,0,1,.07-.17l6.88-11.34c.2-.31.32-.47.73-.42a.67.67,0,0,1,.6.54l4.14,12.65a.69.69,0,0,1,0,.25c0,.1,0,.32-.48.27a.6.6,0,0,1-.57-.4l-.86-2.7Zm.54-.9,7.18.82L203.86,203Z"/><path id="Path_104" data-name="Path 104" class="cls-7" d="M237.68,209.16l.89,4.25s.08.39-.43.5-.59-.29-.59-.29l-2.52-12s-.08-.39.43-.5.59.28.59.28l1.43,6.78,8.34-1.73-1.43-6.79s-.08-.39.43-.5.59.28.59.28l2.52,12s.08.39-.43.5-.59-.28-.59-.28l-.9-4.25Z"/><path id="Path_105" data-name="Path 105" class="cls-7" d="M281.87,196.4a.41.41,0,0,1,.56.17l0,0a.41.41,0,0,1-.07.59l0,0-6.31,3.6a.33.33,0,0,1-.47-.13h0L269.49,190s-.2-.35.26-.6.65.08.65.08l5.78,10.15Z"/><circle id="Ellipse_22" data-name="Ellipse 22" class="cls-8" cx="301.36" cy="152.44" r="2.07"/><circle id="Ellipse_23" data-name="Ellipse 23" class="cls-8" cx="138.99" cy="153.33" r="2.07"/><path id="Path_106" data-name="Path 106" class="cls-6" d="M153.68,121.39c19.31-14.16,33.3-15.28,42.54-13.63,23.72,4.24,30.3,29.19,54.81,34,15.63,3,30.17-3.75,40-9.92"/><path id="Path_107" data-name="Path 107" class="cls-6" d="M156.23,140c11.46-9.56,28.54-20.54,46.17-17,20.48,4.07,26.24,24.66,46.07,27.65C264,153,278.94,143.19,291,131.8"/><path id="Path_108" data-name="Path 108" class="cls-6" d="M162.67,155.47c9.05-8.46,21.92-17.44,36.59-16.36,20.92,1.54,28.33,22.82,47,24.22,9.72.74,24.66-3.75,44.79-31.53"/><path id="Path_109" data-name="Path 109" class="cls-6" d="M200.3,186.67c-8.16-2.38-14-8.45-14.75-15.32-.83-7.49,4.38-15.2,10.63-17.65,15.27-6,29.19,22.42,50,22.31,11-.06,26.33-8,44.8-44.22"/><path id="Path_110" data-name="Path 110" class="cls-6" d="M203.88,187.79c5.33,1.54,10.77-.73,13-5s1.13-11.09-3.25-13c-4.07-1.78-10.17.87-10.88,4.86-.63,3.51,2.91,8,5.52,7.47,1.71-.34,3-2.83,3.41-6"/></g></g><g id="Group_62-2" data-name="Group 62-2" class="cls-9"><path id="Path_67-3" data-name="Path 67-3" class="cls-10" d="M70.55,229.72h156.8L372.75,8.81H237Z"/></g></g></svg>