<svg id="Layer_1" data-name="Layer 1" xmlns="http://www.w3.org/2000/svg" xmlns:xlink="http://www.w3.org/1999/xlink" width="460" height="310" viewBox="0 0 460 310"><defs><style>.cls-1{fill:url(#linear-gradient);}.cls-2{fill:#333;}.cls-3{fill:#dcdcdc;}.cls-4{fill:url(#linear-gradient-2);}.cls-5{fill:url(#linear-gradient-3);}.cls-6{fill:url(#linear-gradient-4);}.cls-7{fill:url(#linear-gradient-5);}.cls-8{fill:#7a7a7a;}.cls-9{fill:url(#linear-gradient-6);}.cls-10{fill:url(#linear-gradient-7);}.cls-11{fill:url(#linear-gradient-8);}.cls-12{fill:url(#linear-gradient-9);}.cls-13{fill:url(#linear-gradient-10);}.cls-14{fill:url(#linear-gradient-11);}.cls-15{fill:url(#linear-gradient-12);}.cls-16{fill:url(#linear-gradient-13);}.cls-17{fill:none;stroke:#7a7a7a;stroke-miterlimit:10;stroke-width:1.5px;}.cls-18{fill:url(#radial-gradient);}.cls-19{fill:url(#radial-gradient-2);}.cls-20{fill:url(#radial-gradient-3);}.cls-21{fill:url(#radial-gradient-4);}.cls-22{opacity:0.4;}.cls-23{fill:#fffef9;}</style><linearGradient id="linear-gradient" x1="-148.75" y1="7508.2" x2="-148.75" y2="7507.2" gradientTransform="matrix(190.88, 0, 0, -130.34, 28613.87, 978775.22)" gradientUnits="userSpaceOnUse"><stop offset="0" stop-color="#fff"/><stop offset="0.49" stop-color="#51514f"/><stop offset="0.61" stop-color="#fff"/><stop offset="0.69" stop-color="#626261"/><stop offset="0.77" stop-color="#474746"/><stop offset="0.92" stop-color="#141414"/><stop offset="1"/></linearGradient><linearGradient id="linear-gradient-2" x1="-149.19" y1="7505.78" x2="-148.19" y2="7505.78" gradientTransform="matrix(205.98, 0, 0, -135.34, 30850.2, 1015968.71)" gradientUnits="userSpaceOnUse"><stop offset="0.01" stop-color="#fff"/><stop offset="0.13" stop-color="#f8f8f8"/><stop offset="0.32" stop-color="#e5e5e5"/><stop offset="0.54" stop-color="#c5c5c5"/><stop offset="0.78" stop-color="#9a9a9a"/><stop offset="1" stop-color="#6d6d6d"/></linearGradient><linearGradient id="linear-gradient-3" x1="-148.81" y1="7506.06" x2="-148.8" y2="7507.35" gradientTransform="matrix(174.73, 0, 0, -133.47, 26224.21, 1001999.38)" gradientUnits="userSpaceOnUse"><stop offset="0"/><stop offset="0.39" stop-color="#220f07"/><stop offset="0.81" stop-color="#fa6e33"/></linearGradient><linearGradient id="linear-gradient-4" x1="-132.08" y1="8236.43" x2="-131.08" y2="8236.43" gradientTransform="matrix(30.58, -2.92, -0.82, -8.6, 10936, 70526.84)" gradientUnits="userSpaceOnUse"><stop offset="0"/><stop offset="1" stop-color="#575757"/></linearGradient><linearGradient id="linear-gradient-5" x1="-114.79" y1="6681.98" x2="-113.79" y2="6681.98" gradientTransform="matrix(-30.46, -4.02, -1.13, 8.57, 4345.49, -57643.04)" xlink:href="#linear-gradient-4"/><linearGradient id="linear-gradient-6" x1="-158.12" y1="7977.49" x2="-159.11" y2="7977.62" gradientTransform="matrix(12.96, 0, 0, -12.96, 2329.48, 103502.38)" gradientUnits="userSpaceOnUse"><stop offset="0.03" stop-color="#7a7a7a"/><stop offset="1" stop-color="#fff"/></linearGradient><linearGradient id="linear-gradient-7" x1="-158.12" y1="7977.49" x2="-159.11" y2="7977.62" gradientTransform="matrix(12.96, 0, 0, -12.96, 2343.88, 103518.7)" xlink:href="#linear-gradient-6"/><linearGradient id="linear-gradient-8" x1="-158.12" y1="7977.49" x2="-159.11" y2="7977.62" gradientTransform="matrix(12.96, 0, 0, -12.96, 2343.88, 103487.5)" xlink:href="#linear-gradient-6"/><linearGradient id="linear-gradient-9" x1="-158.12" y1="7977.49" x2="-159.11" y2="7977.62" gradientTransform="matrix(12.96, 0, 0, -12.96, 2358.76, 103502.86)" xlink:href="#linear-gradient-6"/><linearGradient id="linear-gradient-10" x1="-158.29" y1="7918.04" x2="-159.28" y2="7918.15" gradientTransform="matrix(12.78, 0, 0, -14.63, 2186.34, 115923.1)" xlink:href="#linear-gradient-6"/><linearGradient id="linear-gradient-11" x1="-156.42" y1="7995.9" x2="-157.41" y2="7996.06" gradientTransform="matrix(15.43, 0, 0, -12.52, 2589.63, 100206.75)" xlink:href="#linear-gradient-6"/><linearGradient id="linear-gradient-12" x1="-157.41" y1="7985.39" x2="-157.41" y2="7984.39" gradientTransform="matrix(14.62, 0, 0, -12.78, 2449.03, 102159.7)" gradientUnits="userSpaceOnUse"><stop offset="0" stop-color="#fff"/><stop offset="1" stop-color="#696969"/></linearGradient><linearGradient id="linear-gradient-13" x1="-158.99" y1="7894.4" x2="-158.99" y2="7893.4" gradientTransform="matrix(12.51, 0, 0, -15.44, 2147.01, 121964.52)" gradientUnits="userSpaceOnUse"><stop offset="0" stop-color="#7a7a7a"/><stop offset="0" stop-color="#fff"/><stop offset="1" stop-color="#7a7a7a"/><stop offset="1" stop-color="#fff"/></linearGradient><radialGradient id="radial-gradient" cx="-151.69" cy="7636.43" r="0.5" gradientTransform="matrix(37.44, 0, 0, -37.44, 5934.25, 286051.6)" gradientUnits="userSpaceOnUse"><stop offset="0.46"/><stop offset="0.7" stop-color="#343434"/><stop offset="1"/></radialGradient><radialGradient id="radial-gradient-2" cx="-153.86" cy="7743.32" r="0.5" gradientTransform="matrix(23.52, 0, 0, -23.52, 3873.94, 182265.98)" xlink:href="#radial-gradient"/><radialGradient id="radial-gradient-3" cx="-151.69" cy="7636.43" r="0.5" gradientTransform="matrix(37.44, 0, 0, -37.44, 5868, 286051.6)" xlink:href="#radial-gradient"/><radialGradient id="radial-gradient-4" cx="-153.86" cy="7743.32" r="0.5" gradientTransform="matrix(23.52, 0, 0, -23.52, 3807.69, 182265.98)" xlink:href="#radial-gradient"/></defs><g id="Group_68" data-name="Group 68"><path id="Path_66-2" data-name="Path 66-2" class="cls-1" d="M126.22,304.7c58.26-48.81,66.33-76.79,61.48-93.62-2.18-7.54-6.76-12.16-4.59-18.35,8.07-23,92.53-19.89,96.35-3.67,1.7,7.19-13.87,10.9-19.27,24.78-9.73,25,22,61.45,56.9,92.68Z"/><rect id="Rectangle_28-2" data-name="Rectangle 28-2" class="cls-2" x="1.25" y="3.48" width="457.5" height="231.57" rx="8.87"/><rect id="Rectangle_29-2" data-name="Rectangle 29-2" class="cls-3" x="9.33" y="8.81" width="441.35" height="220.91" rx="8.87"/><g id="Group_63" data-name="Group 63"><g id="Layer_10" data-name="Layer 10"><path id="Path_69" data-name="Path 69" class="cls-4" d="M139.82,68.28c-2.35,1.78-7.12,6-14.39,37.93a247.46,247.46,0,0,0-6.73,51.84c-.32,16.35,1.23,22.42,5.28,27.36,5.72,7,16.89,12.23,22.57,8.64,1.41-.9,2.06-2.07,3.36-4.8A223.46,223.46,0,0,0,159,166.69c3.44-9.76,5.22-14.68,8.16-16.8,5.09-3.67,12.14-3.81,13.92-3.84a30.73,30.73,0,0,1,8.16,1c7.62,1.83,10.67.41,33.12.48,24.46.07,26.3,1.77,32.65-.48a21.12,21.12,0,0,1,9.6-1.44,20.68,20.68,0,0,1,11,4.8c2,1.78,3.86,4.25,7.2,15.84,3.58,12.47,3.77,17.75,8.65,24.19,2.1,2.77,3.68,3.92,5.27,4.61,6.28,2.74,13.33-1.47,14.88-2.4a26.49,26.49,0,0,0,7.2-6.72c9.59-13.76,4.32-51.84,4.32-51.84-7.87-56.84-13.94-63.22-19.68-65.77-4.53-2-12.9-3.42-18.24-4.32A150.89,150.89,0,0,0,266.56,62c-21.44-1-32.15-1.57-45.6-1.44-4.55,0-18.61.83-46.57,2.4C154.54,64.12,144.53,64.75,139.82,68.28Z"/></g><g id="Layer_11" data-name="Layer 11"><path id="Path_70" data-name="Path 70" class="cls-5" d="M180.63,63c.43.1-.78,4-.48,9.12S181.88,78,184.47,86c3.15,9.8,2.44,12.89,5.76,15.37,2,1.5,4.1,2.07,8.16,1.92,7.84-.3,15.68,0,23.52,0,19.41-.1,21.12,0,21.12,0,7.93,0,9.17-1.21,10.09-1.92,4.16-3.24,2.47-7.94,7.2-20.65.67-1.81,1.09-3.29,1.92-6.24,1.45-5.15,1.67-7.13,1-9.12-.61-1.69-1.65-2.71-1.44-2.88s2,1,2.88,2.88a7.53,7.53,0,0,1,.48,4.32,52.69,52.69,0,0,1-2.4,9.6,67.46,67.46,0,0,0-2.4,10.08,31.58,31.58,0,0,0-.48,9.6c1,6.27,5.48,10.34,7.68,12.48,6.85,6.7,10.58,13.76,17.28,26.4,2.83,5.35,6.84,15.89,14.88,37,.39,1,1.21,3.07,2.4,5.76,2.6,5.91,5.07,10.52,6.72,13.44a13,13,0,0,1-6.72,1.92,12.73,12.73,0,0,1-4.8-1c-.87-2-2.23-5.18-3.84-9.12-2.63-6.43-4.71-11.93-8.16-20.17-2.9-6.9-3.88-8.65-5.28-10.56-1.83-2.47-4.25-5.92-8.16-7.68-5.2-2.33-10.56-.66-13,0-9.74,2.68-7.82-1.07-41.29,0-17.78.57-27.3,1.92-34.08-.48a15.1,15.1,0,0,0-6.24-1,18.9,18.9,0,0,0-10.08,4.32c-2.69,2.18-3.74,4.31-7.2,12-6.17,13.72-10.08,23-10.08,23l-3.84,9.13a17.51,17.51,0,0,1-4.32.48,17.8,17.8,0,0,1-7.68-1.92,52.08,52.08,0,0,0,6.24-8.65c3.37-5.87,4-10,6.24-17.28,2.83-9.13,5.51-17.75,10.08-27.84a87,87,0,0,1,6.72-13c2.27-3.49,5.22-7.18,11-14.4,6.14-7.63,6.23-7.43,6.72-8.64,2.76-6.78.77-14.46-1-21.12-1.18-4.56-2.46-7.36-1.92-12C178.69,66.3,180.22,62.91,180.63,63Z"/></g><g id="Layer_12" data-name="Layer 12"><path id="Rectangle_35" data-name="Rectangle 35" class="cls-6" d="M149.84,57.05l14.51-1.39a8.65,8.65,0,0,1,9.42,7.79h0l-30.59,2.91h0l-.1-1.12A7.5,7.5,0,0,1,149.84,57.05Z"/><path id="Rectangle_36" data-name="Rectangle 36" class="cls-7" d="M300,67.15l-30.45-4h0a8.64,8.64,0,0,1,9.69-7.44l14.45,1.91A7.51,7.51,0,0,1,300.14,66h0L300,67.15Z"/></g><g id="Layer_13" data-name="Layer 13"><path id="Path_71" data-name="Path 71" class="cls-8" d="M156.66,94.17c-2.28-.24-3.6-2.76-4.53-4.53-.8-1.53-2.8-5.32-1-8.06,1.25-1.9,3.66-2.3,5-2.51s4.16-.68,6,1c2.49,2.21,1.63,6.64.5,9.07C161.85,91,159.53,94.48,156.66,94.17Z"/><path id="Path_72" data-name="Path 72" class="cls-8" d="M160.19,97.2c0-3.15,4-5.06,5-5.54s5.91-2.81,9.06,0a7.18,7.18,0,0,1,.5,9.57c-2.92,3.47-8.09,1.85-9.06,1.51C165.36,102.61,160.21,100.74,160.19,97.2Z"/><path id="Path_73" data-name="Path 73" class="cls-8" d="M154.75,95.64c-.26-2.28-2.79-3.58-4.57-4.5-1.54-.79-5.34-2.75-8.06-.94-1.9,1.25-2.27,3.67-2.48,5s-.64,4.17,1.05,6c2.23,2.46,6.65,1.58,9.07.43C151.6,100.85,155.08,98.51,154.75,95.64Z"/><path id="Path_74" data-name="Path 74" class="cls-8" d="M157.8,99.14c-3.14,0-5,4.06-5.5,5.08-.54,1.17-2.76,5.94.07,9.07a7.18,7.18,0,0,0,9.57.43c3.46-3,1.79-8.1,1.44-9.08C163.25,104.27,161.34,99.14,157.8,99.14Z"/><circle id="Ellipse_6" data-name="Ellipse 6" class="cls-8" cx="273.47" cy="97.79" r="6.91"/><circle id="Ellipse_7" data-name="Ellipse 7" class="cls-8" cx="287.9" cy="114.18" r="6.91"/><circle id="Ellipse_8" data-name="Ellipse 8" class="cls-8" cx="287.9" cy="82.88" r="6.91"/><circle id="Ellipse_9" data-name="Ellipse 9" class="cls-8" cx="302.82" cy="98.27" r="6.91"/><circle id="Ellipse_10" data-name="Ellipse 10" class="cls-9" cx="273.52" cy="97.33" r="6.48"/><circle id="Ellipse_11" data-name="Ellipse 11" class="cls-10" cx="287.92" cy="113.65" r="6.48"/><circle id="Ellipse_12" data-name="Ellipse 12" class="cls-11" cx="287.92" cy="82.45" r="6.48"/><circle id="Ellipse_13" data-name="Ellipse 13" class="cls-12" cx="302.8" cy="97.81" r="6.48"/><path id="Path_75" data-name="Path 75" class="cls-13" d="M156.56,93.56c-2.17-.23-3.43-2.63-4.32-4.32-.77-1.46-2.66-5.07-1-7.68,1.19-1.81,3.49-2.19,4.8-2.4s4-.64,5.76,1c2.37,2.11,1.55,6.33.48,8.64C161.51,90.52,159.3,93.86,156.56,93.56Z"/><path id="Path_76" data-name="Path 76" class="cls-14" d="M159.93,96.44c0-3,3.82-4.82,4.79-5.28s5.65-2.67,8.65,0a6.86,6.86,0,0,1,.48,9.12c-2.79,3.32-7.72,1.77-8.64,1.44C164.85,101.6,160,99.82,159.93,96.44Z"/><path id="Path_77" data-name="Path 77" class="cls-15" d="M154.74,95c-.25-2.17-2.66-3.41-4.35-4.29-1.47-.75-5.09-2.62-7.69-.9-1.81,1.2-2.16,3.5-2.36,4.82s-.61,4,1,5.76c2.12,2.35,6.34,1.5,8.64.41C151.73,99.93,155.06,97.69,154.74,95Z"/><path id="Path_78" data-name="Path 78" class="cls-16" d="M157.65,98.3c-3,0-4.79,3.86-5.25,4.84s-2.63,5.66.07,8.64a6.84,6.84,0,0,0,9.12.41c3.3-2.81,1.71-7.72,1.38-8.65C162.84,103.19,161,98.3,157.65,98.3Z"/></g><g id="Layer_14" data-name="Layer 14"><circle id="Ellipse_14" data-name="Ellipse 14" class="cls-17" cx="303.28" cy="97.33" r="3.12"/><line id="Line_4" data-name="Line 4" class="cls-17" x1="284.8" y1="111.01" x2="291.52" y2="116.29"/><line id="Line_5" data-name="Line 5" class="cls-17" x1="290.91" y1="110.9" x2="284.79" y2="116.87"/><rect id="Rectangle_37" data-name="Rectangle 37" class="cls-17" x="269.68" y="93.49" width="7.68" height="7.2"/><path id="Path_79" data-name="Path 79" class="cls-17" d="M284.32,85.57l3.6-7.42L292,85.57Z"/></g><g id="Layer_15" data-name="Layer 15"><circle id="Ellipse_15" data-name="Ellipse 15" class="cls-18" cx="254.55" cy="128.29" r="18.72"/><circle id="Ellipse_16" data-name="Ellipse 16" class="cls-19" cx="254.79" cy="127.57" r="11.76"/><circle id="Ellipse_17" data-name="Ellipse 17" class="cls-20" cx="188.31" cy="128.29" r="18.72"/><circle id="Ellipse_18" data-name="Ellipse 18" class="cls-21" cx="188.55" cy="127.57" r="11.76"/></g></g><g id="Group_64" data-name="Group 64" class="cls-22"><path id="Path_67" data-name="Path 67" class="cls-23" d="M58.89,229.73H215.68L361.09,8.81H225.3Q142.08,119.26,58.89,229.73Z"/></g></g></svg>